<svg xmlns="http://www.w3.org/2000/svg" width="1850.468" height="483.057" viewBox="0 0 1850.468 483.057">
  <g id="Group_140" data-name="Group 140" transform="translate(-34.766 -8.471)">
    <g id="Group_6" data-name="Group 6">
      <g id="Group_5" data-name="Group 5">
        <circle id="Ellipse_4" data-name="Ellipse 4" cx="1.957" cy="1.957" r="1.957" transform="translate(34.766 8.471)" fill="#d0d0d0"/>
        <circle id="Ellipse_5" data-name="Ellipse 5" cx="1.957" cy="1.957" r="1.957" transform="translate(94.332 8.471)" fill="#d0d0d0"/>
        <circle id="Ellipse_6" data-name="Ellipse 6" cx="1.957" cy="1.957" r="1.957" transform="translate(153.898 8.471)" fill="#d0d0d0"/>
        <circle id="Ellipse_7" data-name="Ellipse 7" cx="1.957" cy="1.957" r="1.957" transform="translate(213.465 8.471)" fill="#d0d0d0"/>
        <circle id="Ellipse_8" data-name="Ellipse 8" cx="1.957" cy="1.957" r="1.957" transform="translate(273.031 8.471)" fill="#d0d0d0"/>
        <circle id="Ellipse_9" data-name="Ellipse 9" cx="1.957" cy="1.957" r="1.957" transform="translate(332.597 8.471)" fill="#d0d0d0"/>
        <circle id="Ellipse_10" data-name="Ellipse 10" cx="1.957" cy="1.957" r="1.957" transform="translate(392.163 8.471)" fill="#d0d0d0"/>
        <circle id="Ellipse_11" data-name="Ellipse 11" cx="1.957" cy="1.957" r="1.957" transform="translate(451.73 8.471)" fill="#d0d0d0"/>
        <circle id="Ellipse_12" data-name="Ellipse 12" cx="1.957" cy="1.957" r="1.957" transform="translate(511.296 8.471)" fill="#d0d0d0"/>
        <circle id="Ellipse_13" data-name="Ellipse 13" cx="1.957" cy="1.957" r="1.957" transform="translate(570.862 8.471)" fill="#d0d0d0"/>
        <circle id="Ellipse_14" data-name="Ellipse 14" cx="1.957" cy="1.957" r="1.957" transform="translate(630.428 8.471)" fill="#d0d0d0"/>
        <circle id="Ellipse_15" data-name="Ellipse 15" cx="1.957" cy="1.957" r="1.957" transform="translate(689.995 8.471)" fill="#d0d0d0"/>
        <circle id="Ellipse_16" data-name="Ellipse 16" cx="1.957" cy="1.957" r="1.957" transform="translate(749.561 8.471)" fill="#d0d0d0"/>
        <circle id="Ellipse_17" data-name="Ellipse 17" cx="1.957" cy="1.957" r="1.957" transform="translate(809.127 8.471)" fill="#d0d0d0"/>
        <circle id="Ellipse_18" data-name="Ellipse 18" cx="1.957" cy="1.957" r="1.957" transform="translate(868.693 8.471)" fill="#d0d0d0"/>
        <circle id="Ellipse_19" data-name="Ellipse 19" cx="1.957" cy="1.957" r="1.957" transform="translate(928.259 8.471)" fill="#d0d0d0"/>
        <circle id="Ellipse_20" data-name="Ellipse 20" cx="1.957" cy="1.957" r="1.957" transform="translate(987.826 8.471)" fill="#d0d0d0"/>
        <circle id="Ellipse_21" data-name="Ellipse 21" cx="1.957" cy="1.957" r="1.957" transform="translate(1047.392 8.471)" fill="#d0d0d0"/>
        <circle id="Ellipse_22" data-name="Ellipse 22" cx="1.957" cy="1.957" r="1.957" transform="translate(1106.958 8.471)" fill="#d0d0d0"/>
        <circle id="Ellipse_23" data-name="Ellipse 23" cx="1.957" cy="1.957" r="1.957" transform="translate(1166.524 8.471)" fill="#d0d0d0"/>
        <circle id="Ellipse_24" data-name="Ellipse 24" cx="1.957" cy="1.957" r="1.957" transform="translate(1226.091 8.471)" fill="#d0d0d0"/>
        <circle id="Ellipse_25" data-name="Ellipse 25" cx="1.957" cy="1.957" r="1.957" transform="translate(1285.657 8.471)" fill="#d0d0d0"/>
        <circle id="Ellipse_26" data-name="Ellipse 26" cx="1.957" cy="1.957" r="1.957" transform="translate(1345.223 8.471)" fill="#d0d0d0"/>
        <circle id="Ellipse_27" data-name="Ellipse 27" cx="1.957" cy="1.957" r="1.957" transform="translate(1404.789 8.471)" fill="#d0d0d0"/>
        <circle id="Ellipse_28" data-name="Ellipse 28" cx="1.957" cy="1.957" r="1.957" transform="translate(1464.355 8.471)" fill="#d0d0d0"/>
        <circle id="Ellipse_29" data-name="Ellipse 29" cx="1.957" cy="1.957" r="1.957" transform="translate(1523.922 8.471)" fill="#d0d0d0"/>
        <circle id="Ellipse_30" data-name="Ellipse 30" cx="1.957" cy="1.957" r="1.957" transform="translate(1583.488 8.471)" fill="#d0d0d0"/>
        <circle id="Ellipse_31" data-name="Ellipse 31" cx="1.957" cy="1.957" r="1.957" transform="translate(1643.054 8.471)" fill="#d0d0d0"/>
        <circle id="Ellipse_32" data-name="Ellipse 32" cx="1.957" cy="1.957" r="1.957" transform="translate(1702.62 8.471)" fill="#d0d0d0"/>
        <circle id="Ellipse_33" data-name="Ellipse 33" cx="1.957" cy="1.957" r="1.957" transform="translate(1762.187 8.471)" fill="#d0d0d0"/>
        <circle id="Ellipse_34" data-name="Ellipse 34" cx="1.957" cy="1.957" r="1.957" transform="translate(1821.753 8.471)" fill="#d0d0d0"/>
        <circle id="Ellipse_35" data-name="Ellipse 35" cx="1.957" cy="1.957" r="1.957" transform="translate(1881.319 8.471)" fill="#d0d0d0"/>
      </g>
    </g>
    <g id="Group_8" data-name="Group 8">
      <g id="Group_7" data-name="Group 7">
        <circle id="Ellipse_36" data-name="Ellipse 36" cx="1.957" cy="1.957" r="1.957" transform="translate(34.766 68.89)" fill="#d0d0d0"/>
        <circle id="Ellipse_37" data-name="Ellipse 37" cx="1.957" cy="1.957" r="1.957" transform="translate(94.332 68.89)" fill="#d0d0d0"/>
        <circle id="Ellipse_38" data-name="Ellipse 38" cx="1.957" cy="1.957" r="1.957" transform="translate(153.898 68.89)" fill="#d0d0d0"/>
        <circle id="Ellipse_39" data-name="Ellipse 39" cx="1.957" cy="1.957" r="1.957" transform="translate(213.465 68.89)" fill="#d0d0d0"/>
        <circle id="Ellipse_40" data-name="Ellipse 40" cx="1.957" cy="1.957" r="1.957" transform="translate(273.031 68.89)" fill="#d0d0d0"/>
        <circle id="Ellipse_41" data-name="Ellipse 41" cx="1.957" cy="1.957" r="1.957" transform="translate(332.597 68.89)" fill="#d0d0d0"/>
        <circle id="Ellipse_42" data-name="Ellipse 42" cx="1.957" cy="1.957" r="1.957" transform="translate(392.163 68.89)" fill="#d0d0d0"/>
        <circle id="Ellipse_43" data-name="Ellipse 43" cx="1.957" cy="1.957" r="1.957" transform="translate(451.73 68.89)" fill="#d0d0d0"/>
        <circle id="Ellipse_44" data-name="Ellipse 44" cx="1.957" cy="1.957" r="1.957" transform="translate(511.296 68.89)" fill="#d0d0d0"/>
        <circle id="Ellipse_45" data-name="Ellipse 45" cx="1.957" cy="1.957" r="1.957" transform="translate(570.862 68.89)" fill="#d0d0d0"/>
        <circle id="Ellipse_46" data-name="Ellipse 46" cx="1.957" cy="1.957" r="1.957" transform="translate(630.428 68.89)" fill="#d0d0d0"/>
        <circle id="Ellipse_47" data-name="Ellipse 47" cx="1.957" cy="1.957" r="1.957" transform="translate(689.995 68.89)" fill="#d0d0d0"/>
        <circle id="Ellipse_48" data-name="Ellipse 48" cx="1.957" cy="1.957" r="1.957" transform="translate(749.561 68.89)" fill="#d0d0d0"/>
        <circle id="Ellipse_49" data-name="Ellipse 49" cx="1.957" cy="1.957" r="1.957" transform="translate(809.127 68.89)" fill="#d0d0d0"/>
        <circle id="Ellipse_50" data-name="Ellipse 50" cx="1.957" cy="1.957" r="1.957" transform="translate(868.693 68.89)" fill="#d0d0d0"/>
        <circle id="Ellipse_51" data-name="Ellipse 51" cx="1.957" cy="1.957" r="1.957" transform="translate(928.259 68.89)" fill="#d0d0d0"/>
        <circle id="Ellipse_52" data-name="Ellipse 52" cx="1.957" cy="1.957" r="1.957" transform="translate(987.826 68.89)" fill="#d0d0d0"/>
        <circle id="Ellipse_53" data-name="Ellipse 53" cx="1.957" cy="1.957" r="1.957" transform="translate(1047.392 68.89)" fill="#d0d0d0"/>
        <circle id="Ellipse_54" data-name="Ellipse 54" cx="1.957" cy="1.957" r="1.957" transform="translate(1106.958 68.89)" fill="#d0d0d0"/>
        <circle id="Ellipse_55" data-name="Ellipse 55" cx="1.957" cy="1.957" r="1.957" transform="translate(1166.524 68.89)" fill="#d0d0d0"/>
        <circle id="Ellipse_56" data-name="Ellipse 56" cx="1.957" cy="1.957" r="1.957" transform="translate(1226.091 68.89)" fill="#d0d0d0"/>
        <circle id="Ellipse_57" data-name="Ellipse 57" cx="1.957" cy="1.957" r="1.957" transform="translate(1285.657 68.89)" fill="#d0d0d0"/>
        <circle id="Ellipse_58" data-name="Ellipse 58" cx="1.957" cy="1.957" r="1.957" transform="translate(1345.223 68.89)" fill="#d0d0d0"/>
        <circle id="Ellipse_59" data-name="Ellipse 59" cx="1.957" cy="1.957" r="1.957" transform="translate(1404.789 68.89)" fill="#d0d0d0"/>
        <circle id="Ellipse_60" data-name="Ellipse 60" cx="1.957" cy="1.957" r="1.957" transform="translate(1464.355 68.89)" fill="#d0d0d0"/>
        <circle id="Ellipse_61" data-name="Ellipse 61" cx="1.957" cy="1.957" r="1.957" transform="translate(1523.922 68.89)" fill="#d0d0d0"/>
        <circle id="Ellipse_62" data-name="Ellipse 62" cx="1.957" cy="1.957" r="1.957" transform="translate(1583.488 68.89)" fill="#d0d0d0"/>
        <circle id="Ellipse_63" data-name="Ellipse 63" cx="1.957" cy="1.957" r="1.957" transform="translate(1643.054 68.89)" fill="#d0d0d0"/>
        <circle id="Ellipse_64" data-name="Ellipse 64" cx="1.957" cy="1.957" r="1.957" transform="translate(1702.62 68.89)" fill="#d0d0d0"/>
        <circle id="Ellipse_65" data-name="Ellipse 65" cx="1.957" cy="1.957" r="1.957" transform="translate(1762.187 68.89)" fill="#d0d0d0"/>
        <circle id="Ellipse_66" data-name="Ellipse 66" cx="1.957" cy="1.957" r="1.957" transform="translate(1821.753 68.89)" fill="#d0d0d0"/>
        <circle id="Ellipse_67" data-name="Ellipse 67" cx="1.957" cy="1.957" r="1.957" transform="translate(1881.319 68.89)" fill="#d0d0d0"/>
      </g>
    </g>
    <g id="Group_10" data-name="Group 10">
      <g id="Group_9" data-name="Group 9">
        <circle id="Ellipse_68" data-name="Ellipse 68" cx="1.957" cy="1.957" r="1.957" transform="translate(34.766 127.352)" fill="#d0d0d0"/>
        <circle id="Ellipse_69" data-name="Ellipse 69" cx="1.957" cy="1.957" r="1.957" transform="translate(94.332 127.352)" fill="#d0d0d0"/>
        <circle id="Ellipse_70" data-name="Ellipse 70" cx="1.957" cy="1.957" r="1.957" transform="translate(153.898 127.352)" fill="#d0d0d0"/>
        <circle id="Ellipse_71" data-name="Ellipse 71" cx="1.957" cy="1.957" r="1.957" transform="translate(213.465 127.352)" fill="#d0d0d0"/>
        <circle id="Ellipse_72" data-name="Ellipse 72" cx="1.957" cy="1.957" r="1.957" transform="translate(273.031 127.352)" fill="#d0d0d0"/>
        <circle id="Ellipse_73" data-name="Ellipse 73" cx="1.957" cy="1.957" r="1.957" transform="translate(332.597 127.352)" fill="#d0d0d0"/>
        <circle id="Ellipse_74" data-name="Ellipse 74" cx="1.957" cy="1.957" r="1.957" transform="translate(392.163 127.352)" fill="#d0d0d0"/>
        <circle id="Ellipse_75" data-name="Ellipse 75" cx="1.957" cy="1.957" r="1.957" transform="translate(451.73 127.352)" fill="#d0d0d0"/>
        <circle id="Ellipse_76" data-name="Ellipse 76" cx="1.957" cy="1.957" r="1.957" transform="translate(511.296 127.352)" fill="#d0d0d0"/>
        <circle id="Ellipse_77" data-name="Ellipse 77" cx="1.957" cy="1.957" r="1.957" transform="translate(570.862 127.352)" fill="#d0d0d0"/>
        <circle id="Ellipse_78" data-name="Ellipse 78" cx="1.957" cy="1.957" r="1.957" transform="translate(630.428 127.352)" fill="#d0d0d0"/>
        <circle id="Ellipse_79" data-name="Ellipse 79" cx="1.957" cy="1.957" r="1.957" transform="translate(689.995 127.352)" fill="#d0d0d0"/>
        <circle id="Ellipse_80" data-name="Ellipse 80" cx="1.957" cy="1.957" r="1.957" transform="translate(749.561 127.352)" fill="#d0d0d0"/>
        <circle id="Ellipse_81" data-name="Ellipse 81" cx="1.957" cy="1.957" r="1.957" transform="translate(809.127 127.352)" fill="#d0d0d0"/>
        <circle id="Ellipse_82" data-name="Ellipse 82" cx="1.957" cy="1.957" r="1.957" transform="translate(868.693 127.352)" fill="#d0d0d0"/>
        <circle id="Ellipse_83" data-name="Ellipse 83" cx="1.957" cy="1.957" r="1.957" transform="translate(928.259 127.352)" fill="#d0d0d0"/>
        <circle id="Ellipse_84" data-name="Ellipse 84" cx="1.957" cy="1.957" r="1.957" transform="translate(987.826 127.352)" fill="#d0d0d0"/>
        <circle id="Ellipse_85" data-name="Ellipse 85" cx="1.957" cy="1.957" r="1.957" transform="translate(1047.392 127.352)" fill="#d0d0d0"/>
        <circle id="Ellipse_86" data-name="Ellipse 86" cx="1.957" cy="1.957" r="1.957" transform="translate(1106.958 127.352)" fill="#d0d0d0"/>
        <circle id="Ellipse_87" data-name="Ellipse 87" cx="1.957" cy="1.957" r="1.957" transform="translate(1166.524 127.352)" fill="#d0d0d0"/>
        <circle id="Ellipse_88" data-name="Ellipse 88" cx="1.957" cy="1.957" r="1.957" transform="translate(1226.091 127.352)" fill="#d0d0d0"/>
        <circle id="Ellipse_89" data-name="Ellipse 89" cx="1.957" cy="1.957" r="1.957" transform="translate(1285.657 127.352)" fill="#d0d0d0"/>
        <circle id="Ellipse_90" data-name="Ellipse 90" cx="1.957" cy="1.957" r="1.957" transform="translate(1345.223 127.352)" fill="#d0d0d0"/>
        <circle id="Ellipse_91" data-name="Ellipse 91" cx="1.957" cy="1.957" r="1.957" transform="translate(1404.789 127.352)" fill="#d0d0d0"/>
        <circle id="Ellipse_92" data-name="Ellipse 92" cx="1.957" cy="1.957" r="1.957" transform="translate(1464.355 127.352)" fill="#d0d0d0"/>
        <circle id="Ellipse_93" data-name="Ellipse 93" cx="1.957" cy="1.957" r="1.957" transform="translate(1523.922 127.352)" fill="#d0d0d0"/>
        <circle id="Ellipse_94" data-name="Ellipse 94" cx="1.957" cy="1.957" r="1.957" transform="translate(1583.488 127.352)" fill="#d0d0d0"/>
        <circle id="Ellipse_95" data-name="Ellipse 95" cx="1.957" cy="1.957" r="1.957" transform="translate(1643.054 127.352)" fill="#d0d0d0"/>
        <circle id="Ellipse_96" data-name="Ellipse 96" cx="1.957" cy="1.957" r="1.957" transform="translate(1702.62 127.352)" fill="#d0d0d0"/>
        <circle id="Ellipse_97" data-name="Ellipse 97" cx="1.957" cy="1.957" r="1.957" transform="translate(1762.187 127.352)" fill="#d0d0d0"/>
        <circle id="Ellipse_98" data-name="Ellipse 98" cx="1.957" cy="1.957" r="1.957" transform="translate(1821.753 127.352)" fill="#d0d0d0"/>
        <circle id="Ellipse_99" data-name="Ellipse 99" cx="1.957" cy="1.957" r="1.957" transform="translate(1881.319 127.352)" fill="#d0d0d0"/>
      </g>
    </g>
    <g id="Group_12" data-name="Group 12">
      <g id="Group_11" data-name="Group 11">
        <circle id="Ellipse_100" data-name="Ellipse 100" cx="1.957" cy="1.957" r="1.957" transform="translate(34.766 248.189)" fill="#d0d0d0"/>
        <circle id="Ellipse_101" data-name="Ellipse 101" cx="1.957" cy="1.957" r="1.957" transform="translate(94.332 248.189)" fill="#d0d0d0"/>
        <circle id="Ellipse_102" data-name="Ellipse 102" cx="1.957" cy="1.957" r="1.957" transform="translate(153.898 248.189)" fill="#d0d0d0"/>
        <circle id="Ellipse_103" data-name="Ellipse 103" cx="1.957" cy="1.957" r="1.957" transform="translate(213.465 248.189)" fill="#d0d0d0"/>
        <circle id="Ellipse_104" data-name="Ellipse 104" cx="1.957" cy="1.957" r="1.957" transform="translate(273.031 248.189)" fill="#d0d0d0"/>
        <circle id="Ellipse_105" data-name="Ellipse 105" cx="1.957" cy="1.957" r="1.957" transform="translate(332.597 248.189)" fill="#d0d0d0"/>
        <circle id="Ellipse_106" data-name="Ellipse 106" cx="1.957" cy="1.957" r="1.957" transform="translate(392.163 248.189)" fill="#d0d0d0"/>
        <circle id="Ellipse_107" data-name="Ellipse 107" cx="1.957" cy="1.957" r="1.957" transform="translate(451.73 248.189)" fill="#d0d0d0"/>
        <circle id="Ellipse_108" data-name="Ellipse 108" cx="1.957" cy="1.957" r="1.957" transform="translate(511.296 248.189)" fill="#d0d0d0"/>
        <circle id="Ellipse_109" data-name="Ellipse 109" cx="1.957" cy="1.957" r="1.957" transform="translate(570.862 248.189)" fill="#d0d0d0"/>
        <circle id="Ellipse_110" data-name="Ellipse 110" cx="1.957" cy="1.957" r="1.957" transform="translate(630.428 248.189)" fill="#d0d0d0"/>
        <circle id="Ellipse_111" data-name="Ellipse 111" cx="1.957" cy="1.957" r="1.957" transform="translate(689.995 248.189)" fill="#d0d0d0"/>
        <circle id="Ellipse_112" data-name="Ellipse 112" cx="1.957" cy="1.957" r="1.957" transform="translate(749.561 248.189)" fill="#d0d0d0"/>
        <circle id="Ellipse_113" data-name="Ellipse 113" cx="1.957" cy="1.957" r="1.957" transform="translate(809.127 248.189)" fill="#d0d0d0"/>
        <circle id="Ellipse_114" data-name="Ellipse 114" cx="1.957" cy="1.957" r="1.957" transform="translate(868.693 248.189)" fill="#d0d0d0"/>
        <circle id="Ellipse_115" data-name="Ellipse 115" cx="1.957" cy="1.957" r="1.957" transform="translate(928.259 248.189)" fill="#d0d0d0"/>
        <circle id="Ellipse_116" data-name="Ellipse 116" cx="1.957" cy="1.957" r="1.957" transform="translate(987.826 248.189)" fill="#d0d0d0"/>
        <circle id="Ellipse_117" data-name="Ellipse 117" cx="1.957" cy="1.957" r="1.957" transform="translate(1047.392 248.189)" fill="#d0d0d0"/>
        <circle id="Ellipse_118" data-name="Ellipse 118" cx="1.957" cy="1.957" r="1.957" transform="translate(1106.958 248.189)" fill="#d0d0d0"/>
        <circle id="Ellipse_119" data-name="Ellipse 119" cx="1.957" cy="1.957" r="1.957" transform="translate(1166.524 248.189)" fill="#d0d0d0"/>
        <circle id="Ellipse_120" data-name="Ellipse 120" cx="1.957" cy="1.957" r="1.957" transform="translate(1226.091 248.189)" fill="#d0d0d0"/>
        <circle id="Ellipse_121" data-name="Ellipse 121" cx="1.957" cy="1.957" r="1.957" transform="translate(1285.657 248.189)" fill="#d0d0d0"/>
        <circle id="Ellipse_122" data-name="Ellipse 122" cx="1.957" cy="1.957" r="1.957" transform="translate(1345.223 248.189)" fill="#d0d0d0"/>
        <circle id="Ellipse_123" data-name="Ellipse 123" cx="1.957" cy="1.957" r="1.957" transform="translate(1404.789 248.189)" fill="#d0d0d0"/>
        <circle id="Ellipse_124" data-name="Ellipse 124" cx="1.957" cy="1.957" r="1.957" transform="translate(1464.355 248.189)" fill="#d0d0d0"/>
        <circle id="Ellipse_125" data-name="Ellipse 125" cx="1.957" cy="1.957" r="1.957" transform="translate(1523.922 248.189)" fill="#d0d0d0"/>
        <circle id="Ellipse_126" data-name="Ellipse 126" cx="1.957" cy="1.957" r="1.957" transform="translate(1583.488 248.189)" fill="#d0d0d0"/>
        <circle id="Ellipse_127" data-name="Ellipse 127" cx="1.957" cy="1.957" r="1.957" transform="translate(1643.054 248.189)" fill="#d0d0d0"/>
        <circle id="Ellipse_128" data-name="Ellipse 128" cx="1.957" cy="1.957" r="1.957" transform="translate(1702.62 248.189)" fill="#d0d0d0"/>
        <circle id="Ellipse_129" data-name="Ellipse 129" cx="1.957" cy="1.957" r="1.957" transform="translate(1762.187 248.189)" fill="#d0d0d0"/>
        <circle id="Ellipse_130" data-name="Ellipse 130" cx="1.957" cy="1.957" r="1.957" transform="translate(1821.753 248.189)" fill="#d0d0d0"/>
        <circle id="Ellipse_131" data-name="Ellipse 131" cx="1.957" cy="1.957" r="1.957" transform="translate(1881.319 248.189)" fill="#d0d0d0"/>
      </g>
    </g>
    <g id="Group_14" data-name="Group 14">
      <g id="Group_13" data-name="Group 13">
        <circle id="Ellipse_132" data-name="Ellipse 132" cx="1.957" cy="1.957" r="1.957" transform="translate(34.766 308.608)" fill="#d0d0d0"/>
        <circle id="Ellipse_133" data-name="Ellipse 133" cx="1.957" cy="1.957" r="1.957" transform="translate(94.332 308.608)" fill="#d0d0d0"/>
        <circle id="Ellipse_134" data-name="Ellipse 134" cx="1.957" cy="1.957" r="1.957" transform="translate(153.898 308.608)" fill="#d0d0d0"/>
        <circle id="Ellipse_135" data-name="Ellipse 135" cx="1.957" cy="1.957" r="1.957" transform="translate(213.465 308.608)" fill="#d0d0d0"/>
        <circle id="Ellipse_136" data-name="Ellipse 136" cx="1.957" cy="1.957" r="1.957" transform="translate(273.031 308.608)" fill="#d0d0d0"/>
        <circle id="Ellipse_137" data-name="Ellipse 137" cx="1.957" cy="1.957" r="1.957" transform="translate(332.597 308.608)" fill="#d0d0d0"/>
        <circle id="Ellipse_138" data-name="Ellipse 138" cx="1.957" cy="1.957" r="1.957" transform="translate(392.163 308.608)" fill="#d0d0d0"/>
        <circle id="Ellipse_139" data-name="Ellipse 139" cx="1.957" cy="1.957" r="1.957" transform="translate(451.73 308.608)" fill="#d0d0d0"/>
        <circle id="Ellipse_140" data-name="Ellipse 140" cx="1.957" cy="1.957" r="1.957" transform="translate(511.296 308.608)" fill="#d0d0d0"/>
        <circle id="Ellipse_141" data-name="Ellipse 141" cx="1.957" cy="1.957" r="1.957" transform="translate(570.862 308.608)" fill="#d0d0d0"/>
        <circle id="Ellipse_142" data-name="Ellipse 142" cx="1.957" cy="1.957" r="1.957" transform="translate(630.428 308.608)" fill="#d0d0d0"/>
        <circle id="Ellipse_143" data-name="Ellipse 143" cx="1.957" cy="1.957" r="1.957" transform="translate(689.995 308.608)" fill="#d0d0d0"/>
        <circle id="Ellipse_144" data-name="Ellipse 144" cx="1.957" cy="1.957" r="1.957" transform="translate(749.561 308.608)" fill="#d0d0d0"/>
        <circle id="Ellipse_145" data-name="Ellipse 145" cx="1.957" cy="1.957" r="1.957" transform="translate(809.127 308.608)" fill="#d0d0d0"/>
        <circle id="Ellipse_146" data-name="Ellipse 146" cx="1.957" cy="1.957" r="1.957" transform="translate(868.693 308.608)" fill="#d0d0d0"/>
        <circle id="Ellipse_147" data-name="Ellipse 147" cx="1.957" cy="1.957" r="1.957" transform="translate(928.259 308.608)" fill="#d0d0d0"/>
        <circle id="Ellipse_148" data-name="Ellipse 148" cx="1.957" cy="1.957" r="1.957" transform="translate(987.826 308.608)" fill="#d0d0d0"/>
        <circle id="Ellipse_149" data-name="Ellipse 149" cx="1.957" cy="1.957" r="1.957" transform="translate(1047.392 308.608)" fill="#d0d0d0"/>
        <circle id="Ellipse_150" data-name="Ellipse 150" cx="1.957" cy="1.957" r="1.957" transform="translate(1106.958 308.608)" fill="#d0d0d0"/>
        <circle id="Ellipse_151" data-name="Ellipse 151" cx="1.957" cy="1.957" r="1.957" transform="translate(1166.524 308.608)" fill="#d0d0d0"/>
        <circle id="Ellipse_152" data-name="Ellipse 152" cx="1.957" cy="1.957" r="1.957" transform="translate(1226.091 308.608)" fill="#d0d0d0"/>
        <circle id="Ellipse_153" data-name="Ellipse 153" cx="1.957" cy="1.957" r="1.957" transform="translate(1285.657 308.608)" fill="#d0d0d0"/>
        <circle id="Ellipse_154" data-name="Ellipse 154" cx="1.957" cy="1.957" r="1.957" transform="translate(1345.223 308.608)" fill="#d0d0d0"/>
        <circle id="Ellipse_155" data-name="Ellipse 155" cx="1.957" cy="1.957" r="1.957" transform="translate(1404.789 308.608)" fill="#d0d0d0"/>
        <circle id="Ellipse_156" data-name="Ellipse 156" cx="1.957" cy="1.957" r="1.957" transform="translate(1464.355 308.608)" fill="#d0d0d0"/>
        <circle id="Ellipse_157" data-name="Ellipse 157" cx="1.957" cy="1.957" r="1.957" transform="translate(1523.922 308.608)" fill="#d0d0d0"/>
        <circle id="Ellipse_158" data-name="Ellipse 158" cx="1.957" cy="1.957" r="1.957" transform="translate(1583.488 308.608)" fill="#d0d0d0"/>
        <circle id="Ellipse_159" data-name="Ellipse 159" cx="1.957" cy="1.957" r="1.957" transform="translate(1643.054 308.608)" fill="#d0d0d0"/>
        <circle id="Ellipse_160" data-name="Ellipse 160" cx="1.957" cy="1.957" r="1.957" transform="translate(1702.62 308.608)" fill="#d0d0d0"/>
        <circle id="Ellipse_161" data-name="Ellipse 161" cx="1.957" cy="1.957" r="1.957" transform="translate(1762.187 308.608)" fill="#d0d0d0"/>
        <circle id="Ellipse_162" data-name="Ellipse 162" cx="1.957" cy="1.957" r="1.957" transform="translate(1821.753 308.608)" fill="#d0d0d0"/>
        <circle id="Ellipse_163" data-name="Ellipse 163" cx="1.957" cy="1.957" r="1.957" transform="translate(1881.319 308.608)" fill="#d0d0d0"/>
      </g>
    </g>
    <g id="Group_16" data-name="Group 16">
      <g id="Group_15" data-name="Group 15">
        <circle id="Ellipse_164" data-name="Ellipse 164" cx="1.957" cy="1.957" r="1.957" transform="translate(34.766 367.07)" fill="#d0d0d0"/>
        <circle id="Ellipse_165" data-name="Ellipse 165" cx="1.957" cy="1.957" r="1.957" transform="translate(94.332 367.07)" fill="#d0d0d0"/>
        <circle id="Ellipse_166" data-name="Ellipse 166" cx="1.957" cy="1.957" r="1.957" transform="translate(153.898 367.07)" fill="#d0d0d0"/>
        <circle id="Ellipse_167" data-name="Ellipse 167" cx="1.957" cy="1.957" r="1.957" transform="translate(213.465 367.07)" fill="#d0d0d0"/>
        <circle id="Ellipse_168" data-name="Ellipse 168" cx="1.957" cy="1.957" r="1.957" transform="translate(273.031 367.07)" fill="#d0d0d0"/>
        <circle id="Ellipse_169" data-name="Ellipse 169" cx="1.957" cy="1.957" r="1.957" transform="translate(332.597 367.07)" fill="#d0d0d0"/>
        <circle id="Ellipse_170" data-name="Ellipse 170" cx="1.957" cy="1.957" r="1.957" transform="translate(392.163 367.07)" fill="#d0d0d0"/>
        <circle id="Ellipse_171" data-name="Ellipse 171" cx="1.957" cy="1.957" r="1.957" transform="translate(451.73 367.07)" fill="#d0d0d0"/>
        <circle id="Ellipse_172" data-name="Ellipse 172" cx="1.957" cy="1.957" r="1.957" transform="translate(511.296 367.07)" fill="#d0d0d0"/>
        <circle id="Ellipse_173" data-name="Ellipse 173" cx="1.957" cy="1.957" r="1.957" transform="translate(570.862 367.07)" fill="#d0d0d0"/>
        <circle id="Ellipse_174" data-name="Ellipse 174" cx="1.957" cy="1.957" r="1.957" transform="translate(630.428 367.07)" fill="#d0d0d0"/>
        <circle id="Ellipse_175" data-name="Ellipse 175" cx="1.957" cy="1.957" r="1.957" transform="translate(689.995 367.07)" fill="#d0d0d0"/>
        <circle id="Ellipse_176" data-name="Ellipse 176" cx="1.957" cy="1.957" r="1.957" transform="translate(749.561 367.07)" fill="#d0d0d0"/>
        <circle id="Ellipse_177" data-name="Ellipse 177" cx="1.957" cy="1.957" r="1.957" transform="translate(809.127 367.07)" fill="#d0d0d0"/>
        <circle id="Ellipse_178" data-name="Ellipse 178" cx="1.957" cy="1.957" r="1.957" transform="translate(868.693 367.07)" fill="#d0d0d0"/>
        <circle id="Ellipse_179" data-name="Ellipse 179" cx="1.957" cy="1.957" r="1.957" transform="translate(928.259 367.07)" fill="#d0d0d0"/>
        <circle id="Ellipse_180" data-name="Ellipse 180" cx="1.957" cy="1.957" r="1.957" transform="translate(987.826 367.07)" fill="#d0d0d0"/>
        <circle id="Ellipse_181" data-name="Ellipse 181" cx="1.957" cy="1.957" r="1.957" transform="translate(1047.392 367.07)" fill="#d0d0d0"/>
        <circle id="Ellipse_182" data-name="Ellipse 182" cx="1.957" cy="1.957" r="1.957" transform="translate(1106.958 367.07)" fill="#d0d0d0"/>
        <circle id="Ellipse_183" data-name="Ellipse 183" cx="1.957" cy="1.957" r="1.957" transform="translate(1166.524 367.07)" fill="#d0d0d0"/>
        <circle id="Ellipse_184" data-name="Ellipse 184" cx="1.957" cy="1.957" r="1.957" transform="translate(1226.091 367.07)" fill="#d0d0d0"/>
        <circle id="Ellipse_185" data-name="Ellipse 185" cx="1.957" cy="1.957" r="1.957" transform="translate(1285.657 367.07)" fill="#d0d0d0"/>
        <circle id="Ellipse_186" data-name="Ellipse 186" cx="1.957" cy="1.957" r="1.957" transform="translate(1345.223 367.07)" fill="#d0d0d0"/>
        <circle id="Ellipse_187" data-name="Ellipse 187" cx="1.957" cy="1.957" r="1.957" transform="translate(1404.789 367.07)" fill="#d0d0d0"/>
        <circle id="Ellipse_188" data-name="Ellipse 188" cx="1.957" cy="1.957" r="1.957" transform="translate(1464.355 367.07)" fill="#d0d0d0"/>
        <circle id="Ellipse_189" data-name="Ellipse 189" cx="1.957" cy="1.957" r="1.957" transform="translate(1523.922 367.07)" fill="#d0d0d0"/>
        <circle id="Ellipse_190" data-name="Ellipse 190" cx="1.957" cy="1.957" r="1.957" transform="translate(1583.488 367.07)" fill="#d0d0d0"/>
        <circle id="Ellipse_191" data-name="Ellipse 191" cx="1.957" cy="1.957" r="1.957" transform="translate(1643.054 367.07)" fill="#d0d0d0"/>
        <circle id="Ellipse_192" data-name="Ellipse 192" cx="1.957" cy="1.957" r="1.957" transform="translate(1702.62 367.07)" fill="#d0d0d0"/>
        <circle id="Ellipse_193" data-name="Ellipse 193" cx="1.957" cy="1.957" r="1.957" transform="translate(1762.187 367.07)" fill="#d0d0d0"/>
        <circle id="Ellipse_194" data-name="Ellipse 194" cx="1.957" cy="1.957" r="1.957" transform="translate(1821.753 367.07)" fill="#d0d0d0"/>
        <circle id="Ellipse_195" data-name="Ellipse 195" cx="1.957" cy="1.957" r="1.957" transform="translate(1881.319 367.07)" fill="#d0d0d0"/>
      </g>
    </g>
    <g id="Group_18" data-name="Group 18">
      <g id="Group_17" data-name="Group 17">
        <circle id="Ellipse_196" data-name="Ellipse 196" cx="1.957" cy="1.957" r="1.957" transform="translate(34.766 429.152)" fill="#d0d0d0"/>
        <circle id="Ellipse_197" data-name="Ellipse 197" cx="1.957" cy="1.957" r="1.957" transform="translate(94.332 429.152)" fill="#d0d0d0"/>
        <circle id="Ellipse_198" data-name="Ellipse 198" cx="1.957" cy="1.957" r="1.957" transform="translate(153.898 429.152)" fill="#d0d0d0"/>
        <circle id="Ellipse_199" data-name="Ellipse 199" cx="1.957" cy="1.957" r="1.957" transform="translate(213.465 429.152)" fill="#d0d0d0"/>
        <circle id="Ellipse_200" data-name="Ellipse 200" cx="1.957" cy="1.957" r="1.957" transform="translate(273.031 429.152)" fill="#d0d0d0"/>
        <circle id="Ellipse_201" data-name="Ellipse 201" cx="1.957" cy="1.957" r="1.957" transform="translate(332.597 429.152)" fill="#d0d0d0"/>
        <circle id="Ellipse_202" data-name="Ellipse 202" cx="1.957" cy="1.957" r="1.957" transform="translate(392.163 429.152)" fill="#d0d0d0"/>
        <circle id="Ellipse_203" data-name="Ellipse 203" cx="1.957" cy="1.957" r="1.957" transform="translate(451.73 429.152)" fill="#d0d0d0"/>
        <circle id="Ellipse_204" data-name="Ellipse 204" cx="1.957" cy="1.957" r="1.957" transform="translate(511.296 429.152)" fill="#d0d0d0"/>
        <circle id="Ellipse_205" data-name="Ellipse 205" cx="1.957" cy="1.957" r="1.957" transform="translate(570.862 429.152)" fill="#d0d0d0"/>
        <circle id="Ellipse_206" data-name="Ellipse 206" cx="1.957" cy="1.957" r="1.957" transform="translate(630.428 429.152)" fill="#d0d0d0"/>
        <circle id="Ellipse_207" data-name="Ellipse 207" cx="1.957" cy="1.957" r="1.957" transform="translate(689.995 429.152)" fill="#d0d0d0"/>
        <circle id="Ellipse_208" data-name="Ellipse 208" cx="1.957" cy="1.957" r="1.957" transform="translate(749.561 429.152)" fill="#d0d0d0"/>
        <circle id="Ellipse_209" data-name="Ellipse 209" cx="1.957" cy="1.957" r="1.957" transform="translate(809.127 429.152)" fill="#d0d0d0"/>
        <circle id="Ellipse_210" data-name="Ellipse 210" cx="1.957" cy="1.957" r="1.957" transform="translate(868.693 429.152)" fill="#d0d0d0"/>
        <circle id="Ellipse_211" data-name="Ellipse 211" cx="1.957" cy="1.957" r="1.957" transform="translate(928.259 429.152)" fill="#d0d0d0"/>
        <circle id="Ellipse_212" data-name="Ellipse 212" cx="1.957" cy="1.957" r="1.957" transform="translate(987.826 429.152)" fill="#d0d0d0"/>
        <circle id="Ellipse_213" data-name="Ellipse 213" cx="1.957" cy="1.957" r="1.957" transform="translate(1047.392 429.152)" fill="#d0d0d0"/>
        <circle id="Ellipse_214" data-name="Ellipse 214" cx="1.957" cy="1.957" r="1.957" transform="translate(1106.958 429.152)" fill="#d0d0d0"/>
        <circle id="Ellipse_215" data-name="Ellipse 215" cx="1.957" cy="1.957" r="1.957" transform="translate(1166.524 429.152)" fill="#d0d0d0"/>
        <circle id="Ellipse_216" data-name="Ellipse 216" cx="1.957" cy="1.957" r="1.957" transform="translate(1226.091 429.152)" fill="#d0d0d0"/>
        <circle id="Ellipse_217" data-name="Ellipse 217" cx="1.957" cy="1.957" r="1.957" transform="translate(1285.657 429.152)" fill="#d0d0d0"/>
        <circle id="Ellipse_218" data-name="Ellipse 218" cx="1.957" cy="1.957" r="1.957" transform="translate(1345.223 429.152)" fill="#d0d0d0"/>
        <circle id="Ellipse_219" data-name="Ellipse 219" cx="1.957" cy="1.957" r="1.957" transform="translate(1404.789 429.152)" fill="#d0d0d0"/>
        <circle id="Ellipse_220" data-name="Ellipse 220" cx="1.957" cy="1.957" r="1.957" transform="translate(1464.355 429.152)" fill="#d0d0d0"/>
        <circle id="Ellipse_221" data-name="Ellipse 221" cx="1.957" cy="1.957" r="1.957" transform="translate(1523.922 429.152)" fill="#d0d0d0"/>
        <circle id="Ellipse_222" data-name="Ellipse 222" cx="1.957" cy="1.957" r="1.957" transform="translate(1583.488 429.152)" fill="#d0d0d0"/>
        <circle id="Ellipse_223" data-name="Ellipse 223" cx="1.957" cy="1.957" r="1.957" transform="translate(1643.054 429.152)" fill="#d0d0d0"/>
        <circle id="Ellipse_224" data-name="Ellipse 224" cx="1.957" cy="1.957" r="1.957" transform="translate(1702.62 429.152)" fill="#d0d0d0"/>
        <circle id="Ellipse_225" data-name="Ellipse 225" cx="1.957" cy="1.957" r="1.957" transform="translate(1762.187 429.152)" fill="#d0d0d0"/>
        <circle id="Ellipse_226" data-name="Ellipse 226" cx="1.957" cy="1.957" r="1.957" transform="translate(1821.753 429.152)" fill="#d0d0d0"/>
        <circle id="Ellipse_227" data-name="Ellipse 227" cx="1.957" cy="1.957" r="1.957" transform="translate(1881.319 429.152)" fill="#d0d0d0"/>
      </g>
    </g>
    <g id="Group_20" data-name="Group 20">
      <g id="Group_19" data-name="Group 19">
        <circle id="Ellipse_228" data-name="Ellipse 228" cx="1.957" cy="1.957" r="1.957" transform="translate(34.766 487.614)" fill="#d0d0d0"/>
        <circle id="Ellipse_229" data-name="Ellipse 229" cx="1.957" cy="1.957" r="1.957" transform="translate(94.332 487.614)" fill="#d0d0d0"/>
        <circle id="Ellipse_230" data-name="Ellipse 230" cx="1.957" cy="1.957" r="1.957" transform="translate(153.898 487.614)" fill="#d0d0d0"/>
        <circle id="Ellipse_231" data-name="Ellipse 231" cx="1.957" cy="1.957" r="1.957" transform="translate(213.465 487.614)" fill="#d0d0d0"/>
        <circle id="Ellipse_232" data-name="Ellipse 232" cx="1.957" cy="1.957" r="1.957" transform="translate(273.031 487.614)" fill="#d0d0d0"/>
        <circle id="Ellipse_233" data-name="Ellipse 233" cx="1.957" cy="1.957" r="1.957" transform="translate(332.597 487.614)" fill="#d0d0d0"/>
        <circle id="Ellipse_234" data-name="Ellipse 234" cx="1.957" cy="1.957" r="1.957" transform="translate(392.163 487.614)" fill="#d0d0d0"/>
        <circle id="Ellipse_235" data-name="Ellipse 235" cx="1.957" cy="1.957" r="1.957" transform="translate(451.73 487.614)" fill="#d0d0d0"/>
        <circle id="Ellipse_236" data-name="Ellipse 236" cx="1.957" cy="1.957" r="1.957" transform="translate(511.296 487.614)" fill="#d0d0d0"/>
        <circle id="Ellipse_237" data-name="Ellipse 237" cx="1.957" cy="1.957" r="1.957" transform="translate(570.862 487.614)" fill="#d0d0d0"/>
        <circle id="Ellipse_238" data-name="Ellipse 238" cx="1.957" cy="1.957" r="1.957" transform="translate(630.428 487.614)" fill="#d0d0d0"/>
        <circle id="Ellipse_239" data-name="Ellipse 239" cx="1.957" cy="1.957" r="1.957" transform="translate(689.995 487.614)" fill="#d0d0d0"/>
        <circle id="Ellipse_240" data-name="Ellipse 240" cx="1.957" cy="1.957" r="1.957" transform="translate(749.561 487.614)" fill="#d0d0d0"/>
        <circle id="Ellipse_241" data-name="Ellipse 241" cx="1.957" cy="1.957" r="1.957" transform="translate(809.127 487.614)" fill="#d0d0d0"/>
        <circle id="Ellipse_242" data-name="Ellipse 242" cx="1.957" cy="1.957" r="1.957" transform="translate(868.693 487.614)" fill="#d0d0d0"/>
        <circle id="Ellipse_243" data-name="Ellipse 243" cx="1.957" cy="1.957" r="1.957" transform="translate(928.259 487.614)" fill="#d0d0d0"/>
        <circle id="Ellipse_244" data-name="Ellipse 244" cx="1.957" cy="1.957" r="1.957" transform="translate(987.826 487.614)" fill="#d0d0d0"/>
        <circle id="Ellipse_245" data-name="Ellipse 245" cx="1.957" cy="1.957" r="1.957" transform="translate(1047.392 487.614)" fill="#d0d0d0"/>
        <circle id="Ellipse_246" data-name="Ellipse 246" cx="1.957" cy="1.957" r="1.957" transform="translate(1106.958 487.614)" fill="#d0d0d0"/>
        <circle id="Ellipse_247" data-name="Ellipse 247" cx="1.957" cy="1.957" r="1.957" transform="translate(1166.524 487.614)" fill="#d0d0d0"/>
        <circle id="Ellipse_248" data-name="Ellipse 248" cx="1.957" cy="1.957" r="1.957" transform="translate(1226.091 487.614)" fill="#d0d0d0"/>
        <circle id="Ellipse_249" data-name="Ellipse 249" cx="1.957" cy="1.957" r="1.957" transform="translate(1285.657 487.614)" fill="#d0d0d0"/>
        <circle id="Ellipse_250" data-name="Ellipse 250" cx="1.957" cy="1.957" r="1.957" transform="translate(1345.223 487.614)" fill="#d0d0d0"/>
        <circle id="Ellipse_251" data-name="Ellipse 251" cx="1.957" cy="1.957" r="1.957" transform="translate(1404.789 487.614)" fill="#d0d0d0"/>
        <circle id="Ellipse_252" data-name="Ellipse 252" cx="1.957" cy="1.957" r="1.957" transform="translate(1464.355 487.614)" fill="#d0d0d0"/>
        <circle id="Ellipse_253" data-name="Ellipse 253" cx="1.957" cy="1.957" r="1.957" transform="translate(1523.922 487.614)" fill="#d0d0d0"/>
        <circle id="Ellipse_254" data-name="Ellipse 254" cx="1.957" cy="1.957" r="1.957" transform="translate(1583.488 487.614)" fill="#d0d0d0"/>
        <circle id="Ellipse_255" data-name="Ellipse 255" cx="1.957" cy="1.957" r="1.957" transform="translate(1643.054 487.614)" fill="#d0d0d0"/>
        <circle id="Ellipse_256" data-name="Ellipse 256" cx="1.957" cy="1.957" r="1.957" transform="translate(1702.62 487.614)" fill="#d0d0d0"/>
        <circle id="Ellipse_257" data-name="Ellipse 257" cx="1.957" cy="1.957" r="1.957" transform="translate(1762.187 487.614)" fill="#d0d0d0"/>
        <circle id="Ellipse_258" data-name="Ellipse 258" cx="1.957" cy="1.957" r="1.957" transform="translate(1821.753 487.614)" fill="#d0d0d0"/>
        <circle id="Ellipse_259" data-name="Ellipse 259" cx="1.957" cy="1.957" r="1.957" transform="translate(1881.319 487.614)" fill="#d0d0d0"/>
      </g>
    </g>
    <g id="Group_22" data-name="Group 22">
      <g id="Group_21" data-name="Group 21">
        <circle id="Ellipse_260" data-name="Ellipse 260" cx="1.957" cy="1.957" r="1.957" transform="translate(34.766 187.77)" fill="#d0d0d0"/>
        <circle id="Ellipse_261" data-name="Ellipse 261" cx="1.957" cy="1.957" r="1.957" transform="translate(94.332 187.77)" fill="#d0d0d0"/>
        <circle id="Ellipse_262" data-name="Ellipse 262" cx="1.957" cy="1.957" r="1.957" transform="translate(153.898 187.77)" fill="#d0d0d0"/>
        <circle id="Ellipse_263" data-name="Ellipse 263" cx="1.957" cy="1.957" r="1.957" transform="translate(213.465 187.77)" fill="#d0d0d0"/>
        <circle id="Ellipse_264" data-name="Ellipse 264" cx="1.957" cy="1.957" r="1.957" transform="translate(273.031 187.77)" fill="#d0d0d0"/>
        <circle id="Ellipse_265" data-name="Ellipse 265" cx="1.957" cy="1.957" r="1.957" transform="translate(332.597 187.77)" fill="#d0d0d0"/>
        <circle id="Ellipse_266" data-name="Ellipse 266" cx="1.957" cy="1.957" r="1.957" transform="translate(392.163 187.77)" fill="#d0d0d0"/>
        <circle id="Ellipse_267" data-name="Ellipse 267" cx="1.957" cy="1.957" r="1.957" transform="translate(451.73 187.77)" fill="#d0d0d0"/>
        <circle id="Ellipse_268" data-name="Ellipse 268" cx="1.957" cy="1.957" r="1.957" transform="translate(511.296 187.77)" fill="#d0d0d0"/>
        <circle id="Ellipse_269" data-name="Ellipse 269" cx="1.957" cy="1.957" r="1.957" transform="translate(570.862 187.77)" fill="#d0d0d0"/>
        <circle id="Ellipse_270" data-name="Ellipse 270" cx="1.957" cy="1.957" r="1.957" transform="translate(630.428 187.77)" fill="#d0d0d0"/>
        <circle id="Ellipse_271" data-name="Ellipse 271" cx="1.957" cy="1.957" r="1.957" transform="translate(689.995 187.77)" fill="#d0d0d0"/>
        <circle id="Ellipse_272" data-name="Ellipse 272" cx="1.957" cy="1.957" r="1.957" transform="translate(749.561 187.77)" fill="#d0d0d0"/>
        <circle id="Ellipse_273" data-name="Ellipse 273" cx="1.957" cy="1.957" r="1.957" transform="translate(809.127 187.77)" fill="#d0d0d0"/>
        <circle id="Ellipse_274" data-name="Ellipse 274" cx="1.957" cy="1.957" r="1.957" transform="translate(868.693 187.77)" fill="#d0d0d0"/>
        <circle id="Ellipse_275" data-name="Ellipse 275" cx="1.957" cy="1.957" r="1.957" transform="translate(928.259 187.77)" fill="#d0d0d0"/>
        <circle id="Ellipse_276" data-name="Ellipse 276" cx="1.957" cy="1.957" r="1.957" transform="translate(987.826 187.77)" fill="#d0d0d0"/>
        <circle id="Ellipse_277" data-name="Ellipse 277" cx="1.957" cy="1.957" r="1.957" transform="translate(1047.392 187.77)" fill="#d0d0d0"/>
        <circle id="Ellipse_278" data-name="Ellipse 278" cx="1.957" cy="1.957" r="1.957" transform="translate(1106.958 187.77)" fill="#d0d0d0"/>
        <circle id="Ellipse_279" data-name="Ellipse 279" cx="1.957" cy="1.957" r="1.957" transform="translate(1166.524 187.77)" fill="#d0d0d0"/>
        <circle id="Ellipse_280" data-name="Ellipse 280" cx="1.957" cy="1.957" r="1.957" transform="translate(1226.091 187.77)" fill="#d0d0d0"/>
        <circle id="Ellipse_281" data-name="Ellipse 281" cx="1.957" cy="1.957" r="1.957" transform="translate(1285.657 187.77)" fill="#d0d0d0"/>
        <circle id="Ellipse_282" data-name="Ellipse 282" cx="1.957" cy="1.957" r="1.957" transform="translate(1345.223 187.77)" fill="#d0d0d0"/>
        <circle id="Ellipse_283" data-name="Ellipse 283" cx="1.957" cy="1.957" r="1.957" transform="translate(1404.789 187.77)" fill="#d0d0d0"/>
        <circle id="Ellipse_284" data-name="Ellipse 284" cx="1.957" cy="1.957" r="1.957" transform="translate(1464.355 187.77)" fill="#d0d0d0"/>
        <circle id="Ellipse_285" data-name="Ellipse 285" cx="1.957" cy="1.957" r="1.957" transform="translate(1523.922 187.77)" fill="#d0d0d0"/>
        <circle id="Ellipse_286" data-name="Ellipse 286" cx="1.957" cy="1.957" r="1.957" transform="translate(1583.488 187.77)" fill="#d0d0d0"/>
        <circle id="Ellipse_287" data-name="Ellipse 287" cx="1.957" cy="1.957" r="1.957" transform="translate(1643.054 187.77)" fill="#d0d0d0"/>
        <circle id="Ellipse_288" data-name="Ellipse 288" cx="1.957" cy="1.957" r="1.957" transform="translate(1702.62 187.77)" fill="#d0d0d0"/>
        <circle id="Ellipse_289" data-name="Ellipse 289" cx="1.957" cy="1.957" r="1.957" transform="translate(1762.187 187.77)" fill="#d0d0d0"/>
        <circle id="Ellipse_290" data-name="Ellipse 290" cx="1.957" cy="1.957" r="1.957" transform="translate(1821.753 187.77)" fill="#d0d0d0"/>
        <circle id="Ellipse_291" data-name="Ellipse 291" cx="1.957" cy="1.957" r="1.957" transform="translate(1881.319 187.77)" fill="#d0d0d0"/>
      </g>
    </g>
  </g>
</svg>
