<svg xmlns="http://www.w3.org/2000/svg" width="127.507" height="107.411" viewBox="0 0 127.507 107.411">
  <g id="Group_142" data-name="Group 142" transform="translate(-798.432 -615.055)">
    <ellipse id="Ellipse_327" data-name="Ellipse 327" cx="59.519" cy="2.722" rx="59.519" ry="2.722" transform="translate(802.683 717.022)" fill="#e6e7e8"/>
    <path id="Path_335" data-name="Path 335" d="M186.039,132.966s-10.24-.888-12.406,2.968-.253,6.232,1.813,6.824,8.146-1.033,8.146-1.033Z" transform="translate(627.382 507.371)" fill="#231f20"/>
    <path id="Path_336" data-name="Path 336" d="M176.491,143.108a4.817,4.817,0,0,1-1.3-.144,4.16,4.16,0,0,1-2.737-2.4c-.4-.982-.6-2.636.722-4.954,2.282-4.008,12.327-3.185,12.753-3.149a.4.4,0,0,1,.267.159.368.368,0,0,1,.051.3l-2.455,8.752a.368.368,0,0,1-.253.253A35.386,35.386,0,0,1,176.491,143.108Zm6.918-10.009c-3.1,0-8.2.4-9.612,2.889a5.01,5.01,0,0,0-.679,4.333,3.473,3.473,0,0,0,2.275,1.979c1.748.5,6.694-.722,7.749-.989l2.282-8.124A18.411,18.411,0,0,0,183.409,133.1Z" transform="translate(627.528 507.512)" fill="#231f20"/>
    <path id="Path_337" data-name="Path 337" d="M186.369,135.152s-9.547-.722-11.6,2.419-.246,5.055,1.69,5.553,7.611-.845,7.611-.845Z" transform="translate(627.052 506.759)" fill="#fff"/>
    <path id="Path_338" data-name="Path 338" d="M177.443,143.418a5.142,5.142,0,0,1-1.2-.116,3.726,3.726,0,0,1-2.636-2.166,4.221,4.221,0,0,1,.722-3.914c2.166-3.271,11.5-2.6,11.9-2.571a.361.361,0,0,1,.253.152.347.347,0,0,1,.036.282l-2.3,7.128a.318.318,0,0,1-.238.217,36.741,36.741,0,0,1-6.543.989Zm6.5-8.146c-2.889,0-7.676.318-9,2.34a3.686,3.686,0,0,0-.686,3.315,3.069,3.069,0,0,0,2.166,1.74c1.646.412,6.3-.585,7.272-.809l2.109-6.543C185.386,135.294,184.722,135.272,183.942,135.272Z" transform="translate(627.182 506.9)" fill="#231f20"/>
    <path id="Path_339" data-name="Path 339" d="M326.29,132.966s10.211-.888,12.406,2.968.26,6.232-1.805,6.824-8.146-1.033-8.146-1.033Z" transform="translate(584.7 507.371)" fill="#231f20"/>
    <path id="Path_340" data-name="Path 340" d="M335.553,143.108a35.14,35.14,0,0,1-7.041-1.177.368.368,0,0,1-.253-.253l-2.455-8.752a.347.347,0,0,1,.051-.3.383.383,0,0,1,.267-.159c.419-.036,10.464-.859,12.753,3.149,1.314,2.318,1.112,3.972.722,4.954a4.189,4.189,0,0,1-2.744,2.4A4.765,4.765,0,0,1,335.553,143.108Zm-6.658-1.827c1.054.274,6.008,1.488,7.756.989a3.466,3.466,0,0,0,2.268-1.979,5.015,5.015,0,0,0-.672-4.333c-1.813-3.177-9.684-2.925-11.626-2.816Z" transform="translate(584.839 507.512)" fill="#231f20"/>
    <path id="Path_341" data-name="Path 341" d="M326.29,135.152s9.54-.722,11.6,2.419.238,5.055-1.69,5.553-7.611-.845-7.611-.845Z" transform="translate(584.7 506.759)" fill="#fff"/>
    <path id="Path_342" data-name="Path 342" d="M334.943,143.432a36.967,36.967,0,0,1-6.564-.96.325.325,0,0,1-.238-.217l-2.3-7.128a.325.325,0,0,1,.043-.282.347.347,0,0,1,.246-.152c.4,0,9.763-.722,11.9,2.571,1.177,1.8,1.062,3.12.722,3.914a3.741,3.741,0,0,1-2.636,2.166,5.253,5.253,0,0,1-1.177.087Zm-6.232-1.56c.982.217,5.625,1.22,7.279.809a3.069,3.069,0,0,0,2.166-1.74,3.611,3.611,0,0,0-.722-3.315c-1.683-2.585-9.027-2.39-10.875-2.3Z" transform="translate(584.827 506.885)" fill="#231f20"/>
    <path id="Path_343" data-name="Path 343" d="M177.292,141.251a.339.339,0,0,1-.253-.108.361.361,0,0,1,0-.513l3.676-3.611a.354.354,0,0,1,.505,0,.347.347,0,0,1,0,.506l-3.676,3.611A.339.339,0,0,1,177.292,141.251Z" transform="translate(626.2 506.25)" fill="#d1d3d4"/>
    <path id="Path_344" data-name="Path 344" d="M333.119,140.5a.361.361,0,0,1-.231-.643l3.17-2.614a.354.354,0,0,1,.506.043.368.368,0,0,1-.043.513l-3.17,2.614A.368.368,0,0,1,333.119,140.5Z" transform="translate(582.904 506.181)" fill="#d1d3d4"/>
    <path id="Path_345" data-name="Path 345" d="M338.553,141.5a.354.354,0,0,1-.289-.144.368.368,0,0,1,.079-.506l1.509-1.09a.362.362,0,0,1,.426.585l-1.5,1.09A.4.4,0,0,1,338.553,141.5Z" transform="translate(581.391 505.476)" fill="#d1d3d4"/>
    <path id="Path_346" data-name="Path 346" d="M297.03,153.646c-1.083-4.708-2.535-6.34-2.535-6.34s-1.632-8.666-2.888-11.6A8.124,8.124,0,0,0,288,131.721s-11.959-26.459-13.41-28.813-4.716-2.715-4.716-2.715c-7.944-1.813-35.515-1.813-35.515-1.813s-27.542,0-35.515,1.813c0,0-3.264.361-4.708,2.715s-13.41,28.813-13.41,28.813a8.153,8.153,0,0,0-3.611,3.986c-1.271,2.889-2.889,11.6-2.889,11.6s-1.444,1.632-2.542,6.34a44.634,44.634,0,0,0,0,16.306H297.03A44.63,44.63,0,0,0,297.03,153.646Z" transform="translate(627.868 516.957)" fill="#2ccd70"/>
    <path id="Path_347" data-name="Path 347" d="M296.89,170.212H171.5a.325.325,0,0,1-.318-.26,45.236,45.236,0,0,1,0-16.45c.982-4.253,2.253-6.037,2.549-6.413.181-.953,1.69-8.8,2.889-11.554a8.558,8.558,0,0,1,3.676-4.1c.946-2.087,11.966-26.445,13.381-28.741,1.516-2.463,4.817-2.889,4.954-2.889,7.879-1.791,35.277-1.813,35.551-1.813s27.673,0,35.594,1.82c.1,0,3.4.4,4.918,2.889,1.408,2.3,12.435,26.654,13.381,28.741a8.593,8.593,0,0,1,3.668,4.1c1.22,2.78,2.73,10.63,2.889,11.554.3.376,1.567,2.166,2.549,6.413h0a45.4,45.4,0,0,1,0,16.45A.332.332,0,0,1,296.89,170.212Zm-125.126-.722H296.63a45,45,0,0,0-.058-15.887c-1.061-4.6-2.448-6.182-2.462-6.2a.332.332,0,0,1-.079-.159c0-.087-1.639-8.666-2.889-11.554a7.944,7.944,0,0,0-3.466-3.82.289.289,0,0,1-.159-.159c-.123-.267-11.966-26.467-13.389-28.777-1.35-2.166-4.434-2.556-4.47-2.564-7.879-1.791-35.2-1.813-35.479-1.813s-27.593,0-35.443,1.805c-.065,0-3.156.383-4.5,2.571-1.444,2.311-13.273,28.51-13.389,28.777a.325.325,0,0,1-.166.159,7.943,7.943,0,0,0-3.459,3.82c-1.242,2.831-2.889,11.439-2.889,11.554a.317.317,0,0,1-.072.159s-1.444,1.654-2.463,6.2A45.852,45.852,0,0,0,171.764,169.489Z" transform="translate(628.008 517.065)" fill="#231f20"/>
    <path id="Path_348" data-name="Path 348" d="M172.28,200.81h16.407v25.362a5.221,5.221,0,0,1-5.221,5.221h-5.958a5.221,5.221,0,0,1-5.221-5.221V200.81Z" transform="translate(627.492 488.496)" fill="#231f20"/>
    <path id="Path_349" data-name="Path 349" d="M183.32,231.615h-5.95a5.589,5.589,0,0,1-5.589-5.582V200.671a.361.361,0,0,1,.361-.361h16.407a.361.361,0,0,1,.361.361v25.362A5.589,5.589,0,0,1,183.32,231.615Zm-10.832-30.583v25a4.867,4.867,0,0,0,4.867,4.86h5.95a4.867,4.867,0,0,0,4.867-4.86v-25Z" transform="translate(627.631 488.635)" fill="#231f20"/>
    <path id="Path_350" data-name="Path 350" d="M178,160.757s1.444-11.114,6.766-15.707c0,0,14.732.484,18.48,4.593s1.69,8.94-.968,10.269S178,160.757,178,160.757Z" transform="translate(625.903 503.989)" fill="#fff"/>
    <path id="Path_351" data-name="Path 351" d="M186.335,161.052c-4.412,0-8.088-.079-8.449-.087a.332.332,0,0,1-.246-.116.31.31,0,0,1-.072-.253c.058-.462,1.524-11.294,6.875-15.887a.383.383,0,0,1,.224-.079c.607,0,14.919.542,18.718,4.7A7.38,7.38,0,0,1,205.4,155.7a6.261,6.261,0,0,1-3.076,4.412C200.72,160.885,192.748,161.052,186.335,161.052Zm-8.059-.722c7.554.159,21.737.188,23.751-.816a5.626,5.626,0,0,0,2.722-3.943,6.73,6.73,0,0,0-1.856-5.777c-3.423-3.755-16.66-4.412-18.119-4.477-4.549,3.986-6.174,13.071-6.5,15Z" transform="translate(626.024 504.106)" fill="#231f20"/>
    <path id="Path_352" data-name="Path 352" d="M184.748,190.575a.325.325,0,0,1-.231-.094c-4.643-4.643-3.993-14.226-3.965-14.638a.325.325,0,0,1,.354-.3.339.339,0,0,1,.311.354c0,.094-.664,9.691,3.77,14.118a.347.347,0,0,1,0,.469A.332.332,0,0,1,184.748,190.575Z" transform="translate(625.207 495.518)" fill="#231f20"/>
    <line id="Line_22" data-name="Line 22" x2="0.455" y2="2.174" transform="translate(826.686 617.149)" fill="#fff"/>
    <path id="Path_353" data-name="Path 353" d="M209.877,103.269a.339.339,0,0,1-.325-.267l-.455-2.166a.332.332,0,1,1,.65-.137l.455,2.166a.339.339,0,0,1-.26.39Z" transform="translate(617.264 516.386)" fill="#231f20"/>
    <path id="Path_354" data-name="Path 354" d="M5.221,0h5.958A5.221,5.221,0,0,1,16.4,5.221V30.583H0V5.192A5.221,5.221,0,0,1,5.221,0Z" transform="translate(924.631 719.889) rotate(180)" fill="#231f20"/>
    <path id="Path_355" data-name="Path 355" d="M333.546,231.615h-5.994a5.589,5.589,0,0,1-5.582-5.582V200.671a.361.361,0,0,1,.361-.361h16.4a.361.361,0,0,1,.361.361v25.362A5.589,5.589,0,0,1,333.546,231.615Zm-10.832-30.583v25a4.867,4.867,0,0,0,4.86,4.86h5.972a4.867,4.867,0,0,0,4.86-4.86v-25Z" transform="translate(585.9 488.635)" fill="#231f20"/>
    <path id="Path_356" data-name="Path 356" d="M328.947,160.757s-1.444-11.114-6.766-15.707c0,0-14.739.484-18.487,4.593s-1.69,8.94.968,10.269S328.947,160.757,328.947,160.757Z" transform="translate(591.546 503.989)" fill="#fff"/>
    <path id="Path_357" data-name="Path 357" d="M320.386,161.04c-6.413,0-14.392-.166-15.988-.968a6.247,6.247,0,0,1-3.076-4.412,7.337,7.337,0,0,1,2.015-6.369c3.791-4.16,18.1-4.679,18.711-4.7a.448.448,0,0,1,.231.079c5.351,4.622,6.817,15.454,6.875,15.887a.3.3,0,0,1-.079.253.3.3,0,0,1-.238.116C328.5,160.961,324.8,161.04,320.386,161.04Zm1.56-15.786c-1.444.065-14.7.722-18.126,4.477a6.752,6.752,0,0,0-1.856,5.777,5.611,5.611,0,0,0,2.73,3.943c2.008,1,16.19.975,23.751.816C328.141,158.376,326.488,149.291,321.945,145.254Z" transform="translate(591.665 504.117)" fill="#231f20"/>
    <path id="Path_358" data-name="Path 358" d="M330.954,190.575a.318.318,0,0,1-.231-.094.332.332,0,0,1,0-.469c4.427-4.427,3.777-14.024,3.77-14.118a.33.33,0,1,1,.657-.051c0,.412.686,9.994-3.957,14.638A.332.332,0,0,1,330.954,190.575Z" transform="translate(583.495 495.518)" fill="#231f20"/>
    <path id="Path_359" data-name="Path 359" d="M234.606,197.49h-62.7s.664,9.785,4.412,14.14,5.922,6.16,16.068,6.16h84.44c10.146,0,12.32-1.813,16.068-6.16s4.405-14.14,4.405-14.14Z" transform="translate(627.595 489.418)" fill="#231f20"/>
    <path id="Path_360" data-name="Path 360" d="M276.691,218.012h-84.44c-9.987,0-12.414-1.726-16.342-6.29-3.784-4.391-4.47-13.937-4.5-14.342a.354.354,0,0,1,.1-.274.346.346,0,0,1,.26-.116H297.164a.361.361,0,0,1,.361.39c0,.4-.722,9.951-4.492,14.342C289.1,216.286,286.656,218.012,276.691,218.012ZM172.168,197.719c.166,1.849,1.083,9.814,4.29,13.54,3.611,4.181,5.626,6.037,15.793,6.037h84.44c10.168,0,12.19-1.856,15.793-6.037,3.206-3.726,4.116-11.692,4.29-13.54Z" transform="translate(627.734 489.557)" fill="#231f20"/>
    <path id="Path_361" data-name="Path 361" d="M289.239,131.434c-1.661-5.51-7.344-23.282-12.334-26.719-3.257-2.253-27.109-2.795-37.255-2.795s-34,.542-37.248,2.795c-5,3.459-10.673,21.231-12.341,26.719,0,0,32.106.542,49.59.542S289.239,131.434,289.239,131.434Z" transform="translate(622.552 515.973)" fill="#231f20"/>
    <path id="Path_362" data-name="Path 362" d="M239.511,132.138c-17.288,0-49.272-.534-49.6-.542a.361.361,0,0,1-.339-.462c1.639-5.431,7.388-23.4,12.479-26.936,4.08-2.824,37.125-2.889,37.458-2.889s33.385,0,37.458,2.889c5.1,3.531,10.832,21.505,12.479,26.936a.354.354,0,0,1-.051.318.368.368,0,0,1-.289.144C288.811,131.633,256.8,132.138,239.511,132.138ZM190.4,130.882c4.073.072,32.987.534,49.106.534s45.04-.462,49.106-.534c-1.784-5.849-7.286-22.784-12.06-26.091-2.889-2-23.737-2.73-37.046-2.73s-34.157.722-37.046,2.73c-4.766,3.336-10.269,20.271-12.06,26.12Z" transform="translate(622.691 516.143)" fill="#231f20"/>
    <line id="Line_23" data-name="Line 23" x1="0.448" y2="2.174" transform="translate(897.269 617.149)" fill="#fff"/>
    <path id="Path_363" data-name="Path 363" d="M307.163,103.257h-.072a.339.339,0,0,1-.253-.39l.455-2.166a.332.332,0,1,1,.643.137L307.481,103A.325.325,0,0,1,307.163,103.257Z" transform="translate(590.106 516.398)" fill="#231f20"/>
    <path id="Path_364" data-name="Path 364" d="M204.013,107.97a.325.325,0,0,1-.325-.274.332.332,0,0,1,.274-.383,289.281,289.281,0,0,1,39.472-3.033,289.455,289.455,0,0,1,39.48,3.033.332.332,0,0,1,.274.383.325.325,0,0,1-.376.274,286.691,286.691,0,0,0-39.378-3.033,286.491,286.491,0,0,0-39.371,3.033Z" transform="translate(618.766 515.317)" fill="#231f20"/>
    <path id="Path_365" data-name="Path 365" d="M282.173,114.992c-1-2.715-1.271-3.892-6.976-4.889s-33.219-1.163-33.219-1.163-27.543.166-33.219,1.163-5.979,2.166-6.976,4.889-4.333,9.6-3.264,12.414,3.351,3.084,9.511,3.264,61.794.181,67.954,0,8.427-.455,9.511-3.264S283.169,117.714,282.173,114.992Z" transform="translate(620.259 514.023)" fill="#fff"/>
    <path id="Path_366" data-name="Path 366" d="M241.789,131c-15.483,0-30.966-.043-33.984-.137-5.936-.173-8.615-.376-9.814-3.466-.924-2.4,1.134-7.416,2.5-10.731.31-.722.578-1.408.765-1.914l.079-.231c.946-2.578,1.444-3.878,7.149-4.874s32.179-1.163,33.305-1.17,27.636.181,33.312,1.17,6.2,2.3,7.142,4.874l.087.231c.181.505.455,1.163.765,1.914,1.358,3.315,3.423,8.326,2.491,10.731-1.2,3.091-3.871,3.293-9.814,3.466C272.762,130.96,257.272,131,241.789,131Zm0-21.866c-.274,0-27.579.181-33.219,1.163-5.358.932-5.734,1.964-6.644,4.448l-.079.231c-.195.513-.462,1.177-.78,1.943-1.242,3.019-3.322,8.081-2.484,10.24,1,2.592,3.069,2.889,9.215,3.047,6.03.181,61.9.181,67.932,0,6.138-.181,8.211-.455,9.215-3.047.83-2.166-1.249-7.221-2.491-10.24-.311-.765-.585-1.444-.773-1.943h0l-.087-.231c-.9-2.484-1.278-3.517-6.636-4.448C269.368,109.318,242.064,109.137,241.789,109.137Z" transform="translate(620.412 514.15)" fill="#231f20"/>
    <path id="Path_367" data-name="Path 367" d="M241.612,173.206c-.108,0-9.915-.094-19.794-.542-20.162-.917-20.942-2.347-21.267-2.889-1.654-2.932-3.358-23.058-3.43-23.91a.332.332,0,1,1,.628-.029c0,.209,1.769,20.841,3.344,23.643,1.119,1.993,25.427,2.954,40.491,3.091,15.049-.137,39.357-1.1,40.476-3.091,1.582-2.8,3.329-23.434,3.344-23.643a.339.339,0,0,1,.354-.3.332.332,0,0,1,.3.361c-.072.852-1.776,20.978-3.423,23.91-.3.542-1.112,1.971-21.267,2.889C251.513,173.112,241.706,173.206,241.612,173.206Z" transform="translate(620.596 503.889)" fill="#231f20"/>
    <rect id="Rectangle_155" data-name="Rectangle 155" width="42.556" height="11.598" rx="2.63" transform="translate(844.545 680.929)" fill="#fff"/>
    <path id="Path_368" data-name="Path 368" d="M274.819,201.015H236.054a2.224,2.224,0,0,1-2.224-2.224v-7.806a2.224,2.224,0,0,1,2.224-2.224h38.765a2.224,2.224,0,0,1,2.224,2.224v7.806A2.224,2.224,0,0,1,274.819,201.015Zm-38.765-11.6a1.567,1.567,0,0,0-1.567,1.567v7.806a1.567,1.567,0,0,0,1.567,1.56h38.765a1.567,1.567,0,0,0,1.567-1.56v-7.806a1.567,1.567,0,0,0-1.567-1.567Z" transform="translate(610.39 491.844)" fill="#231f20"/>
    <circle id="Ellipse_328" data-name="Ellipse 328" cx="0.592" cy="0.592" r="0.592" transform="translate(846.574 682.922)" fill="#d1d3d4"/>
    <circle id="Ellipse_329" data-name="Ellipse 329" cx="0.592" cy="0.592" r="0.592" transform="translate(883.902 682.922)" fill="#d1d3d4"/>
    <circle id="Ellipse_330" data-name="Ellipse 330" cx="0.592" cy="0.592" r="0.592" transform="translate(846.574 689.349)" fill="#d1d3d4"/>
    <circle id="Ellipse_331" data-name="Ellipse 331" cx="0.592" cy="0.592" r="0.592" transform="translate(883.902 689.349)" fill="#d1d3d4"/>
    <path id="Path_372" data-name="Path 372" d="M188.289,160.383a5.4,5.4,0,1,1,5.394-5.4A5.4,5.4,0,0,1,188.289,160.383Zm0-10.074a4.679,4.679,0,1,0,4.672,4.672,4.679,4.679,0,0,0-4.672-4.672Z" transform="translate(624.547 502.73)" fill="#d1d3d4"/>
    <path id="Path_373" data-name="Path 373" d="M204.753,159.756a4.333,4.333,0,1,1,4.333-4.333A4.333,4.333,0,0,1,204.753,159.756Zm0-7.98a1.5,1.5,0,1,0,0-.029Z" transform="translate(619.673 502.311)" fill="#d1d3d4"/>
    <path id="Path_374" data-name="Path 374" d="M325.919,160.383a5.4,5.4,0,1,1,5.395-5.4A5.4,5.4,0,0,1,325.919,160.383Zm0-10.074a4.68,4.68,0,1,0,4.672,4.672A4.679,4.679,0,0,0,325.919,150.309Z" transform="translate(586.305 502.73)" fill="#d1d3d4"/>
    <path id="Path_375" data-name="Path 375" d="M310.243,159.756a4.333,4.333,0,1,1,4.333-4.333A4.333,4.333,0,0,1,310.243,159.756Zm0-7.98a1.5,1.5,0,1,0,0-.029Z" transform="translate(590.362 502.311)" fill="#d1d3d4"/>
    <path id="Path_376" data-name="Path 376" d="M186.236,157.906a.374.374,0,0,1-.267-.635l4.651-4.1a.361.361,0,0,1,.513,0,.368.368,0,0,1,0,.513l-4.651,4.1A.332.332,0,0,1,186.236,157.906Z" transform="translate(623.718 501.763)" fill="#d1d3d4"/>
    <path id="Path_377" data-name="Path 377" d="M188,160.408a.376.376,0,0,1-.274-.123.361.361,0,0,1,.043-.513l2.658-2.246a.361.361,0,0,1,.462.549l-2.657,2.253a.347.347,0,0,1-.231.079Z" transform="translate(623.224 500.539)" fill="#d1d3d4"/>
    <rect id="Rectangle_156" data-name="Rectangle 156" width="12.926" height="1.517" transform="translate(855.919 619.922)" fill="#231f20"/>
    <path id="Path_378" data-name="Path 378" d="M262.809,106.469H249.861a.361.361,0,0,1-.361-.361v-1.517a.368.368,0,0,1,.361-.361h12.926a.361.361,0,0,1,.361.361v1.517A.361.361,0,0,1,262.809,106.469Zm-12.565-.722h12.2v-.794h-12.2Z" transform="translate(606.036 515.331)" fill="#231f20"/>
    <path id="Path_379" data-name="Path 379" d="M324.183,220.683a.318.318,0,0,1-.325-.282.325.325,0,0,1,.274-.376,20.01,20.01,0,0,0,7.944-3.134,16.9,16.9,0,0,0,5.987-9.922.332.332,0,0,1,.65.1,17.245,17.245,0,0,1-6.239,10.348,20.217,20.217,0,0,1-8.225,3.264Z" transform="translate(585.376 486.85)" fill="#d1d3d4"/>
    <path id="Path_380" data-name="Path 380" d="M187.914,220.665h-.051a19.438,19.438,0,0,1-8.225-3.264,17.288,17.288,0,0,1-6.239-10.348.332.332,0,1,1,.657-.1,16.855,16.855,0,0,0,5.987,9.922,19.662,19.662,0,0,0,7.944,3.134.332.332,0,0,1,.282.376.325.325,0,0,1-.354.282Z" transform="translate(627.182 486.868)" fill="#d1d3d4"/>
    <path id="Path_381" data-name="Path 381" d="M204,157.53a.361.361,0,0,1-.246-.094.354.354,0,0,1,0-.506c1.17-1.293,2.455-2.759,2.578-2.982a.347.347,0,0,1,.448-.217.383.383,0,0,1,.224.477,27.994,27.994,0,0,1-2.715,3.206A.361.361,0,0,1,204,157.53Z" transform="translate(618.775 501.583)" fill="#d1d3d4"/>
    <path id="Path_382" data-name="Path 382" d="M325.213,159.26a.361.361,0,0,1-.224-.072.376.376,0,0,1-.058-.513l4.138-5.207a.361.361,0,0,1,.506-.058.354.354,0,0,1,.058.505l-4.138,5.214a.346.346,0,0,1-.282.13Z" transform="translate(585.098 501.688)" fill="#d1d3d4"/>
    <path id="Path_383" data-name="Path 383" d="M308.862,157.31a.382.382,0,0,1-.224-.079.361.361,0,0,1-.058-.505l2.072-2.629a.354.354,0,0,1,.506-.058.361.361,0,0,1,.058.506l-2.065,2.629a.383.383,0,0,1-.289.137Z" transform="translate(589.642 501.514)" fill="#d1d3d4"/>
    <path id="Path_384" data-name="Path 384" d="M218.95,127.369a.383.383,0,0,1-.289-.137.361.361,0,0,1,.065-.506l19.086-14.891a.361.361,0,1,1,.44.57l-19.086,14.883A.325.325,0,0,1,218.95,127.369Z" transform="translate(614.626 513.243)" fill="#d1d3d4"/>
    <path id="Path_385" data-name="Path 385" d="M287.2,127.548a.361.361,0,0,1-.231-.635l10.334-8.666a.361.361,0,0,1,.469.549l-10.341,8.7A.39.39,0,0,1,287.2,127.548Z" transform="translate(595.66 511.461)" fill="#d1d3d4"/>
    <path id="Path_386" data-name="Path 386" d="M257.553,133.84h.361a2.484,2.484,0,0,1,2.484,2.484v2.491H255.09v-2.491a2.484,2.484,0,0,1,2.463-2.484Z" transform="translate(604.483 507.104)" fill="#231f20"/>
    <path id="Path_387" data-name="Path 387" d="M260.229,139.028h-5.308a.361.361,0,0,1-.361-.361v-2.484a2.889,2.889,0,0,1,2.845-2.852h.361a2.889,2.889,0,0,1,2.889,2.853v2.484a.361.361,0,0,1-.426.361Zm-4.947-.722h4.586v-2.123a2.166,2.166,0,0,0-2.167-2.13h-.332a2.166,2.166,0,0,0-2.123,2.13Z" transform="translate(604.63 507.246)" fill="#231f20"/>
    <line id="Line_24" data-name="Line 24" x2="20.567" y2="1.242" transform="translate(861.754 642.46)" fill="#68e1fd"/>
    <path id="Path_388" data-name="Path 388" d="M278.387,137.626h-.051l-20.6-1.242a.724.724,0,0,1,.094-1.444l20.567,1.242a.722.722,0,1,1-.043,1.444Z" transform="translate(603.933 506.799)" fill="#231f20"/>
    <line id="Line_25" data-name="Line 25" x2="6.521" y2="0.621" transform="translate(881.23 642.46)" fill="#68e1fd"/>
    <path id="Path_389" data-name="Path 389" d="M291.327,137.007h-.079l-6.5-.621a.722.722,0,1,1,.137-1.437l6.5.621a.723.723,0,0,1-.072,1.444Z" transform="translate(596.424 506.797)" fill="#231f20"/>
    <path id="Path_390" data-name="Path 390" d="M257.97,122.156a.358.358,0,0,1-.217-.65c3.242-2.383,8.521-6.362,8.868-6.882a.332.332,0,0,1,.448-.195.376.376,0,0,1,.217.477c-.188.542-5.055,4.2-9.106,7.178a.332.332,0,0,1-.209.072Z" transform="translate(603.783 512.505)" fill="#d1d3d4"/>
    <path id="Path_391" data-name="Path 391" d="M206.271,128.671a.375.375,0,0,1-.3-.116.368.368,0,0,1,.043-.513l6.781-5.734a.354.354,0,0,1,.506,0,.368.368,0,0,1-.043.513L206.48,128.6A.412.412,0,0,1,206.271,128.671Z" transform="translate(618.155 510.337)" fill="#d1d3d4"/>
  </g>
</svg>
