<svg xmlns="http://www.w3.org/2000/svg" width="132.378" height="113.778" viewBox="0 0 132.378 113.778">
  <g id="Group_143" data-name="Group 143" transform="translate(-1007.681 -392)">
    <g id="_545_swimming_suit_flatline" data-name="#545_swimming_suit_flatline" transform="translate(1007.681 392)">
      <path id="Path_433" data-name="Path 433" d="M202.384,88.905c-.7.513-1.224,1.756-.5,2.468.9.883,2.657.18,3.626-.256a2.268,2.268,0,0,0,.788-.531.949.949,0,0,0,.228-.892,1.31,1.31,0,0,0-.664-.655,4.527,4.527,0,0,0-1.737-.579A2.61,2.61,0,0,0,202.384,88.905Z" transform="translate(-130.268 -17.404)" fill="#231f20"/>
      <path id="Path_434" data-name="Path 434" d="M203.052,92.241a2.088,2.088,0,0,1-1.528-.56,1.642,1.642,0,0,1-.484-1.329,2.648,2.648,0,0,1,1.035-1.9h0a3.037,3.037,0,0,1,2.06-.456,4.869,4.869,0,0,1,1.9.626,1.746,1.746,0,0,1,.883.949,1.386,1.386,0,0,1-.313,1.348,2.638,2.638,0,0,1-.949.655,6.758,6.758,0,0,1-2.6.664Zm-.418-2.98a1.708,1.708,0,0,0-.655,1.158.7.7,0,0,0,.2.588c.5.484,1.547.37,3.113-.342a2.012,2.012,0,0,0,.626-.418.5.5,0,0,0,.133-.427c-.057-.161-.285-.3-.456-.4a3.967,3.967,0,0,0-1.538-.513,2.154,2.154,0,0,0-1.424.351Z" transform="translate(-130.242 -17.379)" fill="#231f20"/>
      <ellipse id="Ellipse_334" data-name="Ellipse 334" cx="60.316" cy="27.439" rx="60.316" ry="27.439" transform="translate(0 55.103) rotate(-27.18)" fill="#fff"/>
      <path id="Path_437" data-name="Path 437" d="M161.386,103.577c-10.81,0-18.982-3.123-22.256-9.491-3.436-6.7-.949-15.879,6.9-25.844s20.036-19.3,34.424-26.727,29.232-11.788,41.761-12.338,21.583,2.752,25.028,9.491.949,15.869-6.91,25.835-20.026,19.371-34.415,26.755C189.954,99.392,173.9,103.577,161.386,103.577Zm63.732-73.565c-.949,0-1.851,0-2.847.066-12.433.588-27.135,4.954-41.409,12.281S154.5,59.1,146.779,68.868s-10.061,18.479-6.805,24.819c6.786,13.221,36.189,11.721,65.545-3.35C219.794,83,231.942,73.614,239.63,63.829s10.061-18.47,6.805-24.819h0C243.426,33.163,235.909,30.012,225.118,30.012Z" transform="translate(-127.015 -14.384)" fill="#231f20"/>
      <path id="Path_438" data-name="Path 438" d="M215.98,50.592s.949,10.07-17.644,20.235c-17.872,9.747-26.157,4.888-26.157,4.888a52.638,52.638,0,0,1-2.572-6.909c-2.952-9.8-5.429-27.372,11.826-33.712,15.632-5.761,25.379,2.154,30.371,8.637A32.744,32.744,0,0,1,215.98,50.592Z" transform="translate(-128.536 -14.587)" fill="#fff"/>
      <path id="Path_439" data-name="Path 439" d="M178.466,77.418c-4.252,0-6.378-1.177-6.549-1.281a.484.484,0,0,1-.19-.2,53.43,53.43,0,0,1-2.6-6.985c-3.009-10.042-5.438-27.866,12.12-34.329,16.344-6.017,26.385,2.923,30.922,8.789a33.419,33.419,0,0,1,4.186,6.976.792.792,0,0,1,0,.142c0,.418.8,10.44-17.891,20.69C189.466,76.165,182.841,77.418,178.466,77.418Zm-5.951-2.041c1.091.522,9.349,3.853,25.569-4.992,17.3-9.444,17.426-18.83,17.4-19.7a32.932,32.932,0,0,0-4.062-6.644c-5.343-6.919-14.863-14-29.84-8.476-16.837,6.2-14.455,23.443-11.541,33.219A53.278,53.278,0,0,0,172.515,75.377Z" transform="translate(-128.511 -14.563)" fill="#231f20"/>
      <path id="Path_440" data-name="Path 440" d="M216.093,51.16s.949,10.07-17.644,20.235c-17.872,9.747-26.157,4.888-26.157,4.888a52.639,52.639,0,0,1-2.572-6.909s8.381,2.79,28.008-9.671c10.44-6.644,14.237-15.442,14.237-15.442A32.742,32.742,0,0,1,216.093,51.16Z" transform="translate(-128.649 -15.155)" fill="#231f20"/>
      <path id="Path_441" data-name="Path 441" d="M178.578,77.989c-4.252,0-6.378-1.186-6.549-1.281a.579.579,0,0,1-.19-.209,54.594,54.594,0,0,1-2.6-6.976.494.494,0,0,1,.123-.475.475.475,0,0,1,.484-.1c.076,0,8.485,2.515,27.6-9.624a38.154,38.154,0,0,0,14.018-15.186.475.475,0,0,1,.807-.1,33.219,33.219,0,0,1,4.195,6.928.379.379,0,0,1,0,.142c.047.418.807,10.44-17.881,20.69C189.578,76.737,182.954,77.989,178.578,77.989Zm-5.951-2.041c1.082.522,9.349,3.863,25.569-4.992,17.312-9.444,17.435-18.84,17.4-19.7a32.552,32.552,0,0,0-3.6-6.084,40.251,40.251,0,0,1-14.037,14.958c-16.391,10.44-24.99,10.288-27.581,9.9a53.736,53.736,0,0,0,2.249,5.922Z" transform="translate(-128.623 -15.134)" fill="#231f20"/>
    </g>
    <ellipse id="Ellipse_335" data-name="Ellipse 335" cx="51.199" cy="4.929" rx="51.199" ry="4.929" transform="translate(1033.521 495.921)" fill="#e6e7e8"/>
  </g>
</svg>
