<svg xmlns="http://www.w3.org/2000/svg" width="98.941" height="116.82" viewBox="0 0 98.941 116.82">
  <g id="_218_iwatch_flatline" data-name="#218_iwatch_flatline" transform="translate(-93.09 -23.771)">
    <circle id="Ellipse_332" data-name="Ellipse 332" cx="49.239" cy="49.239" r="49.239" transform="translate(93.321 33.918)" fill="#fff"/>
    <path id="Path_392" data-name="Path 392" d="M142.561,144.121a49.471,49.471,0,1,1,49.471-49.468,49.471,49.471,0,0,1-49.471,49.468Zm0-98.469A49.008,49.008,0,1,0,191.569,94.66,49.008,49.008,0,0,0,142.561,45.652Z" transform="translate(0 -11.502)" fill="#d1d3d4"/>
    <path id="Path_393" data-name="Path 393" d="M146.06,50.151s8.6-6.016,9.986-24.062c0,0,11.032-5.215,27.014,0,0,0,.523,16.242,11.291,24.71Z" transform="translate(-28.459 0)" fill="#d0d0d0"/>
    <path id="Path_394" data-name="Path 394" d="M146.06,218.468s8.6,5.992,9.986,24.062c0,0,11.032,5.215,27.014,0,0,0,.523-16.242,11.291-24.71Z" transform="translate(-28.459 -104.256)" fill="#d0d0d0"/>
    <path id="Path_395" data-name="Path 395" d="M261.87,107.41h1.388a1.286,1.286,0,0,1,1.286,1.286v9.782a1.286,1.286,0,0,1-1.286,1.286H261.87Z" transform="translate(-90.68 -44.937)" fill="#fff"/>
    <path id="Path_396" data-name="Path 396" d="M262.759,106.921a1.286,1.286,0,0,1,1.286,1.286v9.782a1.282,1.282,0,0,1-1.286,1.286h-1.388V106.921h1.388m0-.421h-1.388a.421.421,0,0,0-.421.421v12.355a.426.426,0,0,0,.421.426h1.388a1.712,1.712,0,0,0,1.712-1.712v-9.782A1.712,1.712,0,0,0,262.759,106.5Z" transform="translate(-90.186 -44.448)" fill="#231f20"/>
    <path id="Path_397" data-name="Path 397" d="M264.323,110.23h1.217v1.388h-1.217a.583.583,0,0,1-.583-.583v-.222A.583.583,0,0,1,264.323,110.23Z" transform="translate(-91.685 -46.452)" fill="#d1d3d4"/>
    <path id="Path_398" data-name="Path 398" d="M264.323,116.25h1.217v1.388h-1.217a.583.583,0,0,1-.583-.583v-.222A.583.583,0,0,1,264.323,116.25Z" transform="translate(-91.685 -49.686)" fill="#d1d3d4"/>
    <path id="Path_399" data-name="Path 399" d="M264.323,122.27h1.217v1.388h-1.217a.583.583,0,0,1-.583-.583v-.222A.583.583,0,0,1,264.323,122.27Z" transform="translate(-91.685 -52.92)" fill="#d1d3d4"/>
    <path id="Path_400" data-name="Path 400" d="M264.323,128.29h1.217v1.388h-1.217a.583.583,0,0,1-.583-.583v-.222a.583.583,0,0,1,.583-.583Z" transform="translate(-91.685 -56.155)" fill="#d1d3d4"/>
    <rect id="Rectangle_157" data-name="Rectangle 157" width="59.933" height="68.79" rx="19.81" transform="translate(111.261 48.763)" fill="#fff"/>
    <path id="Path_401" data-name="Path 401" d="M182.875,146.557h-41.6a9.389,9.389,0,0,1-9.375-9.38V86.74a9.389,9.389,0,0,1,9.375-9.38h41.6a9.389,9.389,0,0,1,9.38,9.38v50.438A9.389,9.389,0,0,1,182.875,146.557Zm-41.6-68.794a8.968,8.968,0,0,0-8.954,8.958v50.438a8.963,8.963,0,0,0,8.954,8.982h41.6a8.968,8.968,0,0,0,8.958-8.954V86.749a8.972,8.972,0,0,0-8.958-8.958Z" transform="translate(-20.851 -28.792)" fill="#231f20"/>
    <rect id="Rectangle_158" data-name="Rectangle 158" width="52.067" height="59.762" rx="12.04" transform="translate(115.19 53.274)" fill="#231f20"/>
    <path id="Path_402" data-name="Path 402" d="M187.077,147.238H146.157a5.812,5.812,0,0,1-5.807-5.8V92.821A5.812,5.812,0,0,1,146.157,87h40.919a5.812,5.812,0,0,1,5.8,5.807v48.628A5.807,5.807,0,0,1,187.077,147.238ZM146.157,87.463a5.349,5.349,0,0,0-5.345,5.345v48.628a5.345,5.345,0,0,0,5.345,5.34h40.919a5.34,5.34,0,0,0,5.34-5.34V92.821a5.345,5.345,0,0,0-5.34-5.358Z" transform="translate(-25.391 -33.971)" fill="#231f20"/>
    <circle id="Ellipse_333" data-name="Ellipse 333" cx="2.17" cy="2.17" r="2.17" transform="translate(124.995 102.597)" fill="#d0d0d0"/>
    <path id="Path_403" data-name="Path 403" d="M184.233,198.466a2.383,2.383,0,1,1,2.383-2.383A2.383,2.383,0,0,1,184.233,198.466Zm0-4.34a.812.812,0,1,0,0-.019Z" transform="translate(-47.688 -91.297)" fill="#fff"/>
    <path id="Path_404" data-name="Path 404" d="M204.473,198.466a2.383,2.383,0,1,1,2.383-2.383A2.383,2.383,0,0,1,204.473,198.466Zm0-4.34a.813.813,0,1,0,0-.019Z" transform="translate(-58.562 -91.297)" fill="#fff"/>
    <path id="Path_405" data-name="Path 405" d="M224.733,198.466a2.383,2.383,0,1,1,2.383-2.383A2.383,2.383,0,0,1,224.733,198.466Zm0-4.34a.812.812,0,1,0,0-.019Z" transform="translate(-69.447 -91.297)" fill="#fff"/>
    <path id="Path_406" data-name="Path 406" d="M187.8,96.226H163.339a4.854,4.854,0,0,1-4.507-3.1l-1.569-4.077a.213.213,0,0,1,.393-.153l1.569,4.077a4.428,4.428,0,0,0,4.114,2.823H187.8a4.438,4.438,0,0,0,4.114-2.823l1.564-4.077a.213.213,0,1,1,.4.153l-1.573,4.077A4.859,4.859,0,0,1,187.8,96.226Z" transform="translate(-34.475 -34.919)" fill="#fff"/>
    <path id="Path_407" data-name="Path 407" d="M262.976,175.13l-1.106.643v-18.4l1.106.639a1.263,1.263,0,0,1,.634,1.1v14.932a1.263,1.263,0,0,1-.634,1.092Z" transform="translate(-90.68 -71.778)" fill="#fff"/>
    <path id="Path_408" data-name="Path 408" d="M261.628,175.734a.226.226,0,0,1-.106-.028.2.2,0,0,1-.1-.18v-18.4a.208.208,0,0,1,.1-.185.218.218,0,0,1,.213,0l1.106.639a1.485,1.485,0,0,1,.736,1.282v14.928a1.485,1.485,0,0,1-.736,1.282l-1.106.639A.213.213,0,0,1,261.628,175.734Zm.213-18.246v17.667l.787-.463h0a1.064,1.064,0,0,0,.528-.925V158.858a1.069,1.069,0,0,0-.528-.925Z" transform="translate(-90.438 -71.531)" fill="#231f20"/>
    <path id="Path_409" data-name="Path 409" d="M194.77,179.818H154.119a.213.213,0,0,1,0-.421H194.77a.213.213,0,1,1,0,.421Z" transform="translate(-32.692 -83.612)" fill="#fff"/>
  </g>
</svg>
