<svg xmlns="http://www.w3.org/2000/svg" width="203.945" height="48.45" viewBox="0 0 203.945 48.45">
  <g id="Group_3" data-name="Group 3" transform="translate(-1574.778 -161.5)">
    <g id="Group_2" data-name="Group 2" transform="translate(1574.778 161.5)">
      <g id="Group_1" data-name="Group 1" transform="translate(0)">
        <path id="Path_1" data-name="Path 1" d="M482.059,103.291a5.514,5.514,0,0,1-5.508,5.508H465.364v-9.5a8.834,8.834,0,0,0-8.823-8.823h-5.009a12.813,12.813,0,0,0,0,25.627h6.409a5.515,5.515,0,0,1-5.383,4.348h-5.245v7.3h5.245A12.826,12.826,0,0,0,465.312,116.1h11.24a12.822,12.822,0,0,0,12.807-12.807V94.119h-7.3Zm-24,5.508h-6.531a5.514,5.514,0,0,1,0-11.029h5.009a1.525,1.525,0,0,1,1.522,1.524Z" transform="translate(-397.621 -79.347)" fill="#2ccd70"/>
        <path id="Path_2" data-name="Path 2" d="M445.037,90.471a12.827,12.827,0,0,0-12.813,12.813v2.353h7.3v-2.353a5.512,5.512,0,1,1,11.024,0v3.99a1.526,1.526,0,0,1-1.522,1.524H433.38a12.818,12.818,0,0,0-12.8,12.8V127.8h7.3V121.6a5.513,5.513,0,0,1,5.505-5.505h15.647a8.834,8.834,0,0,0,8.823-8.823v-3.99A12.827,12.827,0,0,0,445.037,90.471Z" transform="translate(-420.576 -79.347)" fill="#2ccd70"/>
        <path id="Path_3" data-name="Path 3" d="M500.689,106.562v-5h0V87.9h-7.3v30.292a5.512,5.512,0,0,1-5.5,5.508H477.1a5.512,5.512,0,0,1-5.505-5.508V107.624h-7.3v10.567A12.823,12.823,0,0,0,477.1,131h10.78a12.821,12.821,0,0,0,12.8-12.807v-.1a12.709,12.709,0,0,0,5.505,1.261h17.664v-7.3H506.194A5.511,5.511,0,0,1,500.689,106.562Z" transform="translate(-365.283 -82.599)" fill="#2ccd70"/>
        <path id="Path_4" data-name="Path 4" d="M519.935,93.724a12.826,12.826,0,0,0-12.811,12.813v3.99a8.832,8.832,0,0,0,8.821,8.823h9.376a5.511,5.511,0,0,1-5.379,4.348H505.951a5.514,5.514,0,0,1-5.508-5.508V87.9h-7.3v30.292A12.822,12.822,0,0,0,505.951,131h13.991a12.822,12.822,0,0,0,12.807-12.807V106.537A12.827,12.827,0,0,0,519.935,93.724Zm5.514,18.328h-9.5a1.526,1.526,0,0,1-1.522-1.524v-3.99a5.513,5.513,0,1,1,11.026,0v5.514Z" transform="translate(-328.803 -82.599)" fill="#2ccd70"/>
        <rect id="Rectangle_1" data-name="Rectangle 1" width="16.3" height="7.28" transform="translate(139.109 41.108)" fill="#2ccd70"/>
        <rect id="Rectangle_2" data-name="Rectangle 2" width="8.15" height="7.28" transform="translate(184.932)" fill="#2ccd70"/>
        <rect id="Rectangle_3" data-name="Rectangle 3" width="8.15" height="7.28" transform="translate(72.163 41.075)" fill="#2ccd70"/>
      </g>
    </g>
  </g>
</svg>
