<svg xmlns="http://www.w3.org/2000/svg" width="133.174" height="106.633" viewBox="0 0 133.174 106.633">
  <g id="Lollipop_Flatline" transform="translate(-55.428 -34.25)">
    <path id="Path_208" data-name="Path 208" d="M107.89,69.008c-4.284.488-8.554-.783-12.8-1.571s-9.033-1.023-12.7,1.345A30.959,30.959,0,0,1,79.542,70.7c-2.234,1.1-4.91.723-7.292,1.442-3.266.986-5.528,3.846-7.872,6.329a17.044,17.044,0,0,1-4.21,3.427c-1.032.553-2.957.774-3.51,1.953-1.092,2.34,2.819,5.657,4.021,7.421,2.078,3.017,4.183,6.021,6.343,8.983,3.584,4.924,7.324,11,12.3,14.662,4.279,3.146,12.06,4.657,12.05,11.014,0,2.787-1.773,5.786-2.907,8.333a2.858,2.858,0,0,0,3.059-.668,11.787,11.787,0,0,1,2.6-2.054c2.976-1.267,6.578,2.142,9.42.6a6.067,6.067,0,0,0,1.382-1.142l4.146-4.178c1.654-1.672-1.11-2.414-2.377-2.764-1.534-.461-3.892-1.188-5.067-2.3s-.461-2.663.06-4.118a28.19,28.19,0,0,1,4.943-8.024,17.6,17.6,0,0,0,4.27-8.812c1.488-8.692-.1-17.564,2.764-26.049.539-1.6,1.147-3.492.143-4.841-1.216-1.644-3.717-1.175-5.749-.921Z" transform="translate(-0.56 -17.604)" fill="#fff"/>
    <path id="Path_209" data-name="Path 209" d="M89.19,66.3a29.616,29.616,0,0,1,5.343.553c3.588.668,7.2,1.681,10.816,1.681a17.828,17.828,0,0,0,1.979-.11h.14a23.853,23.853,0,0,1,2.764-.258,3.43,3.43,0,0,1,2.976,1.184c1,1.35.4,3.224-.143,4.841-2.856,8.485-1.267,17.357-2.764,26.049a17.865,17.865,0,0,1-4.27,8.812,28.189,28.189,0,0,0-4.943,8.024c-.525,1.456-1.221,3.063-.06,4.118s3.556,1.843,5.067,2.3c1.267.369,4.031,1.11,2.377,2.764l-4.146,4.178a6.067,6.067,0,0,1-1.382,1.142,3.469,3.469,0,0,1-1.7.41c-1.99,0-4.192-1.3-6.223-1.3a3.755,3.755,0,0,0-1.5.29,11.894,11.894,0,0,0-2.6,2.054,3.6,3.6,0,0,1-2.151.9,1.87,1.87,0,0,1-.921-.23c1.133-2.547,2.9-5.528,2.907-8.333,0-6.357-7.771-7.868-12.05-11.014-4.92-3.681-8.66-9.766-12.244-14.681-2.16-2.962-4.266-5.988-6.343-8.983-1.211-1.76-5.113-5.067-4.021-7.421.553-1.179,2.478-1.382,3.51-1.953a17.044,17.044,0,0,0,4.21-3.446c2.34-2.483,4.606-5.343,7.872-6.329,2.382-.719,5.067-.341,7.292-1.442a28.653,28.653,0,0,0,2.856-1.921,13.568,13.568,0,0,1,7.37-1.9m0-.461h0a13.65,13.65,0,0,0-7.6,1.972c-.373.24-.728.507-1.073.76A11.665,11.665,0,0,1,78.8,69.689a11.5,11.5,0,0,1-3.989.875,17.3,17.3,0,0,0-3.225.539c-2.953.894-5.067,3.225-7.145,5.454-.309.336-.617.673-.921,1a16.966,16.966,0,0,1-4.141,3.358,7.632,7.632,0,0,1-1.078.424,4.1,4.1,0,0,0-2.63,1.741c-.958,2.041,1.147,4.45,2.838,6.389.461.553.921,1.078,1.221,1.483,2.271,3.312,4.348,6.251,6.348,9,.645.889,1.285,1.8,1.962,2.764,3.1,4.4,6.3,8.955,10.443,12a30.67,30.67,0,0,0,4.224,2.437c3.759,1.921,7.647,3.911,7.637,8.209,0,2.119-1.129,4.468-2.119,6.537-.267.557-.516,1.087-.751,1.608a.461.461,0,0,0,.2.59,2.3,2.3,0,0,0,1.133.29,4.068,4.068,0,0,0,2.446-1c.276-.23.539-.461.792-.714a5.988,5.988,0,0,1,1.7-1.276,3.257,3.257,0,0,1,1.313-.253,10.728,10.728,0,0,1,3.017.631,11.345,11.345,0,0,0,3.225.668,3.911,3.911,0,0,0,1.921-.461,6.448,6.448,0,0,0,1.488-1.225l2.073-2.087,2.068-2.091a1.682,1.682,0,0,0,.608-1.608c-.286-1.1-1.962-1.585-3.072-1.907l-.111-.032c-1.11-.327-3.685-1.087-4.91-2.183-.792-.723-.488-1.783.074-3.317l.111-.309a27.942,27.942,0,0,1,4.869-7.886,18.362,18.362,0,0,0,4.362-9.029,74.958,74.958,0,0,0,.806-10.779c.134-5.039.267-10.249,1.935-15.2.525-1.557,1.244-3.685.078-5.265a3.867,3.867,0,0,0-3.349-1.382,19.316,19.316,0,0,0-2.363.2l-.461.06h-.138a17.277,17.277,0,0,1-1.925.106,39.623,39.623,0,0,1-8.011-1.124c-.894-.189-1.815-.382-2.722-.548A29.66,29.66,0,0,0,89.2,65.81Z" transform="translate(0 -17.022)" fill="#231f20"/>
    <path id="Path_210" data-name="Path 210" d="M132.055,155.89l14.906,48.064s.322,1.036-1.492,1.6-2.133-.461-2.133-.461L128.43,157.014Z" transform="translate(-39.374 -65.607)" fill="#fff"/>
    <path id="Path_211" data-name="Path 211" d="M131.513,155.351l14.906,48.064s.322,1.036-1.492,1.6a3.289,3.289,0,0,1-.967.166c-.967,0-1.165-.64-1.165-.64l-14.906-48.064,3.625-1.124m0-.461a.461.461,0,0,0-.138.023l-3.625,1.124a.461.461,0,0,0-.3.576l14.911,48.077a1.566,1.566,0,0,0,1.6.963,3.638,3.638,0,0,0,1.106-.189c1.548-.461,2.013-1.46,1.8-2.17l-14.911-48.077a.459.459,0,0,0-.438-.327Z" transform="translate(-38.832 -65.068)" fill="#231f20"/>
    <path id="Path_212" data-name="Path 212" d="M146.5,210.089a.226.226,0,0,1-.216-.166l-14.045-45.286a.24.24,0,1,1,.461-.138l14.022,45.281a.23.23,0,0,1-.152.286A.184.184,0,0,1,146.5,210.089Z" transform="translate(-41.422 -70.158)" fill="#d1d3d4"/>
    <path id="Path_213" data-name="Path 213" d="M149.727,209.1a.23.23,0,0,1-.221-.166l-14.04-45.286a.226.226,0,0,1,.152-.29.23.23,0,0,1,.286.152l14.04,45.281a.221.221,0,0,1-.152.286.148.148,0,0,1-.064.023Z" transform="translate(-43.162 -69.63)" fill="#d1d3d4"/>
    <path id="Path_214" data-name="Path 214" d="M120.944,90.4a19.9,19.9,0,0,1-.433,13.092h0a19.987,19.987,0,1,1-6.942-23.364h0A19.914,19.914,0,0,1,120.944,90.4Z" transform="translate(-14.259 -22.699)" fill="#2ccd70"/>
    <path id="Path_215" data-name="Path 215" d="M101.313,75.791a20.01,20.01,0,0,1,11.71,3.8h0a19.992,19.992,0,0,1,6.937,23.364h0A20.02,20.02,0,0,1,101.3,115.77a19.683,19.683,0,0,1-3.971-.4,19.987,19.987,0,0,1,3.98-39.579m0-.461h0a20.448,20.448,0,1,0,19.075,27.8h0a20.448,20.448,0,0,0-7.1-23.9h0A20.637,20.637,0,0,0,101.3,75.353Z" transform="translate(-13.712 -22.157)" fill="#231f20"/>
    <path id="Path_216" data-name="Path 216" d="M110.519,123.859a17.773,17.773,0,0,1-12.635,5.113A19.987,19.987,0,0,1,83.93,100.55c-1.995,9.213,1.23,17.2,6.127,20.674,5.657,4.017,10.3,3.225,14.976.967a9.735,9.735,0,0,0,5.1-10.963c-.866-3.593-4.4-4.887-6.532-3.989a3.225,3.225,0,0,0-2.073,2.888c-6.168-1.534-3.3-7.8,2.225-8.867s8.6,3.427,10.042,6.265S118.041,116.313,110.519,123.859Z" transform="translate(-14.262 -35.759)" fill="#fff"/>
    <path id="Path_217" data-name="Path 217" d="M126.342,101a19.34,19.34,0,0,0-6.956-12.6A13.667,13.667,0,0,0,106.71,86.56c-3.837,1.589-7.177,4.791-8.006,8.577s.18,7.564,2.478,8.775,5.528,1.013,6.256-1.3c.7-2.243-.041-2.828-.083-2.861.1,0,4.606.184,4.524,3.727-.074,2.616-2.819,6.168-6.186,6.173-5.528,0-10.019-1.787-12.207-8.324S93.448,89,100.68,84.183c6.228-4.146,13.875-3.036,18.716-1.382h0a19.992,19.992,0,0,1,6.937,23.364,31.184,31.184,0,0,0,.009-5.164Z" transform="translate(-20.086 -25.385)" fill="#fff"/>
    <rect id="Rectangle_137" data-name="Rectangle 137" width="6.52" height="3.011" rx="1.505" transform="matrix(0.948, -0.319, 0.319, 0.948, 92.189, 105.579)" fill="#231f20"/>
    <path id="Path_218" data-name="Path 218" d="M127.4,189.44s-8.619,13.534-8.181,18.163l4.542.843s3.04-15.436,4.56-17.61Z" transform="translate(-34.398 -83.703)" fill="#231f20"/>
    <path id="Path_219" data-name="Path 219" d="M104.963,182.172c-.765,2.147-2.58,6.661-1.29,7.859.613.567,16.053-3.395,16.053-3.395l-.921-1.382S105.714,180.021,104.963,182.172Zm.152,4.671c.138-1.175,11.106.069,11.106.069-2.474-.088-11.373,2.1-11.12-.069Z" transform="translate(-25.778 -79.503)" fill="#231f20"/>
    <path id="Path_220" data-name="Path 220" d="M146.376,185.75s9.333,10.885,11.129,15.174l-3.464,1.921s-5.454-14.234-7.831-15.432Z" transform="translate(-48.964 -81.712)" fill="#231f20"/>
    <path id="Path_221" data-name="Path 221" d="M146.392,174.761l-.152,1.663s14.478-4.482,14.741-5.274c.571-1.668-2.156-4.091-3.842-5.624S146.392,174.761,146.392,174.761Zm3.068.253s9.084-6.269,9.761-5.3C160.465,171.509,151.588,173.775,149.46,175.014Z" transform="translate(-48.98 -70.723)" fill="#231f20"/>
    <path id="Path_222" data-name="Path 222" d="M258.5,54.118s-25.091-5.367-27.224-11.055c-.921-2.469-4.072-3.34-6.449-3.091-1.843.193-3.722.742-5.555.4-2.349-.461-4.233-2.3-6.569-2.8-3.717-.82-7.6,1.879-11.267.852-2.34-.654-4.146-2.732-6.541-3.109-1.106,2.971-.875,7.232-1.2,10.424q-.654,6.449-1.152,12.953c-.534,7.186-1.806,15.524-.115,22.636,1.456,6.113,7.315,13.428,2.446,19.154-2.137,2.511-6.025,3.86-9,5.293.461,1.23,1.958,1.718,3.271,1.741a14.1,14.1,0,0,1,3.92.134c3.653,1.133,4.293,6.965,8.034,7.753a7.1,7.1,0,0,0,2.119.023l6.933-.6c2.764-.244.848-3.026,0-4.33-1.041-1.58-2.6-4.049-2.847-5.956s1.617-2.764,3.225-3.685a33.2,33.2,0,0,1,10.595-3.45,21.07,21.07,0,0,0,10.595-4.689,53.6,53.6,0,0,0,6.643-6.956A170.928,170.928,0,0,0,258.5,54.118Z" transform="translate(-70.36 -0.572)" fill="#fff"/>
    <path id="Path_223" data-name="Path 223" d="M194.356,34.72c2.4.378,4.2,2.455,6.541,3.109a6.569,6.569,0,0,0,1.815.235c2.612,0,5.3-1.244,7.932-1.244a7.07,7.07,0,0,1,1.52.157c2.335.516,4.22,2.354,6.569,2.8a7.024,7.024,0,0,0,1.276.111,41.326,41.326,0,0,0,4.279-.507,7.5,7.5,0,0,1,.8-.041c2.239,0,4.828.921,5.652,3.132,2.133,5.707,27.224,11.055,27.224,11.055a168.777,168.777,0,0,1-20.167,31.651,53.6,53.6,0,0,1-6.642,6.956c-3.284,2.764-6.394,3.9-10.595,4.689a33.2,33.2,0,0,0-10.595,3.45c-1.589.921-3.446,1.843-3.225,3.685s1.806,4.376,2.847,5.956c.861,1.3,2.764,4.086,0,4.33l-6.933.6c-.382.032-.769.069-1.152.069a4.532,4.532,0,0,1-.967-.092c-3.74-.788-4.381-6.619-8.034-7.753a5.527,5.527,0,0,0-1.631-.207c-.7,0-1.423.074-2.137.074h-.111c-1.313,0-2.815-.511-3.271-1.741,2.971-1.433,6.859-2.764,9-5.293,4.869-5.726-.99-13.041-2.446-19.154-1.691-7.112-.419-15.45.115-22.636q.474-6.472,1.142-12.967c.322-3.192.092-7.453,1.2-10.424m0-.461a.461.461,0,0,0-.428.3,25.457,25.457,0,0,0-1.036,7.453c-.051,1.1-.1,2.137-.193,3.086-.461,4.722-.852,8.964-1.152,12.967-.1,1.294-.217,2.607-.341,3.994-.571,6.334-1.161,12.9.24,18.78a36.459,36.459,0,0,0,1.944,5.417c1.93,4.634,3.925,9.42.6,13.331-1.64,1.925-4.454,3.188-6.942,4.3-.668.3-1.3.58-1.9.875a.461.461,0,0,0-.235.571c.548,1.469,2.266,2.022,3.685,2.045h.161a10.8,10.8,0,0,0,1.1-.037,10,10,0,0,1,1.041-.037,4.966,4.966,0,0,1,1.493.189c1.621.5,2.607,2.045,3.653,3.685,1.138,1.787,2.3,3.634,4.422,4.077a5.03,5.03,0,0,0,1.064.1c.41,0,.825-.037,1.193-.069l3.2-.276,3.736-.327a1.927,1.927,0,0,0,1.709-.921c.562-1.161-.562-2.865-1.308-3.989l-.074-.111c-.755-1.147-2.524-3.833-2.764-5.758-.17-1.313.921-2.05,2.644-3.022l.336-.193a33.241,33.241,0,0,1,10.452-3.4,21.669,21.669,0,0,0,10.8-4.786,54.089,54.089,0,0,0,6.7-7.016c7.2-8.669,13.819-19.043,20.227-31.72a.461.461,0,0,0-.322-.654c-6.905-1.479-25.211-6.32-26.888-10.807-.949-2.534-3.865-3.432-6.081-3.432a7.37,7.37,0,0,0-.848.046c-.534.055-1.073.138-1.6.221a16.487,16.487,0,0,1-2.63.281,6.068,6.068,0,0,1-1.188-.106A11.226,11.226,0,0,1,215.6,37.94a12.718,12.718,0,0,0-3.326-1.433,7.573,7.573,0,0,0-1.617-.166,18.145,18.145,0,0,0-4.086.636,17.136,17.136,0,0,1-3.846.608,6.177,6.177,0,0,1-1.691-.216,11.277,11.277,0,0,1-2.87-1.446,10.124,10.124,0,0,0-3.722-1.672h-.074Z" transform="translate(-69.821 0)" fill="#231f20"/>
    <path id="Path_224" data-name="Path 224" d="M206.818,142.44l-23.3,54.757s-.5,1.179-2.566.3-1.562-2.059-1.562-2.059L202.7,140.68Z" transform="translate(-66.829 -57.404)" fill="#fff"/>
    <path id="Path_225" data-name="Path 225" d="M202.162,140.141l4.146,1.76-23.332,54.757a1.244,1.244,0,0,1-1.207.626,3.5,3.5,0,0,1-1.359-.327c-2.064-.88-1.562-2.059-1.562-2.059l23.313-54.757m0-.461a.534.534,0,0,0-.17.032.461.461,0,0,0-.253.249l-23.313,54.757a1.5,1.5,0,0,0,0,1.023,2.952,2.952,0,0,0,1.815,1.64,4.008,4.008,0,0,0,1.539.364,1.714,1.714,0,0,0,1.631-.921l23.332-54.743a.461.461,0,0,0-.244-.6l-4.146-1.76a.46.46,0,0,0-.18-.037Z" transform="translate(-66.29 -56.864)" fill="#231f20"/>
    <path id="Path_226" data-name="Path 226" d="M180.982,201.419a.3.3,0,0,1-.088,0,.235.235,0,0,1-.124-.3l21.964-51.592a.226.226,0,0,1,.3-.124.23.23,0,0,1,.124.3l-21.964,51.555a.23.23,0,0,1-.212.161Z" transform="translate(-67.594 -62.096)" fill="#d1d3d4"/>
    <path id="Path_227" data-name="Path 227" d="M184.659,202.983a.207.207,0,0,1-.092,0,.23.23,0,0,1-.12-.3l21.959-51.592a.23.23,0,0,1,.3-.12.226.226,0,0,1,.12.3l-21.959,51.592a.235.235,0,0,1-.212.124Z" transform="translate(-69.577 -62.942)" fill="#d1d3d4"/>
    <path id="Path_228" data-name="Path 228" d="M250.8,85.008a23.558,23.558,0,0,1-10.4,11.479h0A23.64,23.64,0,1,1,252.011,70.1h0A23.493,23.493,0,0,1,250.8,85.008Z" transform="translate(-80.895 -9.632)" fill="#2ccd70"/>
    <path id="Path_229" data-name="Path 229" d="M228.511,51.555a23.663,23.663,0,0,1,22.94,18h0a23.649,23.649,0,0,1-11.6,26.381h0a23.636,23.636,0,1,1-11.332-44.383m0-.461h0a24.106,24.106,0,1,0,11.544,45.254h0a24.092,24.092,0,0,0,11.834-26.892h0a24.124,24.124,0,0,0-23.382-18.334Z" transform="translate(-80.34 -9.083)" fill="#231f20"/>
    <path id="Path_230" data-name="Path 230" d="M225.8,97.715a21,21,0,0,1-15.312-5.067,23.636,23.636,0,0,1,9.153-36.308C210.778,63.153,207.6,72.8,209.369,79.676,211.4,87.627,216.2,90.46,222.138,92a11.516,11.516,0,0,0,12.986-5.988c1.953-3.892-.235-7.78-2.842-8.591a3.782,3.782,0,0,0-4.077,1.018c-4.39-6.1,2.99-9.558,8.789-6.3s5.136,9.674,4.266,13.359S238.352,96.66,225.8,97.715Z" transform="translate(-80.895 -11.914)" fill="#fff"/>
    <path id="Path_231" data-name="Path 231" d="M253.5,97.3c3.367-4.666,4.395-11.714,3.363-16.68A16.184,16.184,0,0,0,246.817,69.26c-4.676-1.5-10.134-1.165-13.782,1.612s-5.624,6.96-4.473,9.812,4.21,5.141,6.633,3.611c2.349-1.483,2.128-2.58,2.11-2.644.088.078,4.031,3.685,1.23,6.822-2.064,2.3-7.26,3.409-10.3.834-4.975-4.215-7.67-9.273-4.639-16.841S233,61.3,243.2,62.5c8.78,1.036,14.837,7.877,17.928,13.082h0a23.649,23.649,0,0,1-11.6,26.381A36.9,36.9,0,0,0,253.5,97.3Z" transform="translate(-90.013 -15.114)" fill="#fff"/>
    <rect id="Rectangle_138" data-name="Rectangle 138" width="7.688" height="3.552" rx="1.776" transform="translate(127.929 98.126) rotate(21.61)" fill="#231f20"/>
    <path id="Path_232" data-name="Path 232" d="M191.622,175.3s-15.966,8.117-19.112,12.622l4.017,3.054s11.825-12.9,14.856-13.709Z" transform="translate(-63.149 -76.076)" fill="#231f20"/>
    <path id="Path_233" data-name="Path 233" d="M185.147,146.208c-2.331,1.354-6.09,3.482-5.841,5.551.12.981,15.74,9.77,15.74,9.77l.24-1.967S187.483,144.858,185.147,146.208Zm-3.436,4.335c1.023-.958,9.959,8.554,9.959,8.554-2.142-1.976-11.848-6.79-9.955-8.554Z" transform="translate(-66.808 -60.338)" fill="#231f20"/>
    <path id="Path_234" data-name="Path 234" d="M221.679,179.28s3.3,17.6,1.64,22.843L218.45,200.8s3.031-17.242,1.815-20.13Z" transform="translate(-87.927 -78.223)" fill="#231f20"/>
    <path id="Path_235" data-name="Path 235" d="M223.8,177.8l-1.414,1.382s16.491,7.029,17.339,6.523c1.792-1.064,1.188-5.339.838-8.011S223.8,177.8,223.8,177.8Zm2.57,2.58s12.99,1.29,12.857,2.686c-.249,2.57-9.991-2.17-12.875-2.686Z" transform="translate(-90.052 -76.74)" fill="#231f20"/>
    <path id="Path_236" data-name="Path 236" d="M70.122,110.889a.23.23,0,0,1-.193-.1c-1.691-2.5-2.713-7.37-2.764-7.587a.235.235,0,0,1,.461-.092c0,.051,1.05,5,2.69,7.421a.226.226,0,0,1-.189.359Z" transform="translate(-6.327 -37.038)" fill="#d1d3d4"/>
    <path id="Path_237" data-name="Path 237" d="M148.316,167.728h0a.23.23,0,0,1-.217-.24c0-.074.4-7.292,4.031-11.977a.23.23,0,1,1,.364.281c-3.547,4.606-3.929,11.664-3.934,11.733A.23.23,0,0,1,148.316,167.728Z" transform="translate(-49.983 -65.349)" fill="#d1d3d4"/>
    <path id="Path_238" data-name="Path 238" d="M230.732,168.691a.217.217,0,0,1-.161-.064.226.226,0,0,1,0-.322c.143-.147,3.588-3.625,12.972-5.68a.235.235,0,0,1,.276.18.226.226,0,0,1-.175.272c-9.213,2.022-12.709,5.528-12.741,5.528A.235.235,0,0,1,230.732,168.691Z" transform="translate(-94.427 -69.237)" fill="#d1d3d4"/>
    <path id="Path_239" data-name="Path 239" d="M210.893,148.12a.248.248,0,0,1-.115-.028.23.23,0,0,1-.088-.313c.249-.548-.157-6.532-2.418-10.406a.23.23,0,1,1,.4-.235c2.34,4.012,2.791,10.217,2.423,10.867A.23.23,0,0,1,210.893,148.12Z" transform="translate(-82.42 -55.432)" fill="#d1d3d4"/>
    <path id="Path_240" data-name="Path 240" d="M316.76,86.592a.235.235,0,0,1-.23-.189L315,77.324a.23.23,0,0,1,.184-.267.235.235,0,0,1,.267.189L317,86.325a.235.235,0,0,1-.189.267Z" transform="translate(-139.997 -23.086)" fill="#d1d3d4"/>
    <path id="Path_241" data-name="Path 241" d="M211.21,55.471h-.078a.23.23,0,0,1-.138-.295l1.253-3.423a.231.231,0,0,1,.433.161l-1.23,3.423a.226.226,0,0,1-.24.134Z" transform="translate(-83.898 -9.36)" fill="#d1d3d4"/>
    <path id="Path_242" data-name="Path 242" d="M165.851,86.555a.23.23,0,0,1-.212-.143l-2.17-5.265a.231.231,0,1,1,.428-.175l2.165,5.265a.23.23,0,0,1-.124.3A.2.2,0,0,1,165.851,86.555Z" transform="translate(-58.263 -25.122)" fill="#d1d3d4"/>
  </g>
</svg>
