<svg xmlns="http://www.w3.org/2000/svg" xmlns:xlink="http://www.w3.org/1999/xlink" width="150" height="147" viewBox="0 0 150 147">
  <defs>
    <clipPath id="clip-path">
      <rect id="Rectangle_114" data-name="Rectangle 114" width="150" height="147" rx="12" transform="translate(1392 3048.705)" fill="#fafafa" stroke="#ededed" stroke-width="2" style="mix-blend-mode: multiply;isolation: isolate"/>
    </clipPath>
  </defs>
  <g id="Mask_Group_2" data-name="Mask Group 2" transform="translate(-1392 -3048.705)" clip-path="url(#clip-path)">
    <g id="_505_achievement_flatline" data-name="#505_achievement_flatline" transform="translate(1370.467 3058.662)">
      <path id="Path_102" data-name="Path 102" d="M267,107.877s2.384-4.673,2.01-6.572-.985-7.605-.985-7.605l15.663,1.454-5.038,18.174" transform="translate(-141.571 -47.943)" fill="#fff"/>
      <path id="Path_103" data-name="Path 103" d="M278.528,113.628h-.111a.413.413,0,0,1-.286-.5l4.9-17.713L268.38,94.055c.175,1.43.66,5.563.93,7.081.358,2.011-1.947,6.628-2.05,6.826a.413.413,0,0,1-.548.183.405.405,0,0,1-.183-.548c.636-1.271,2.233-4.871,1.979-6.357-.334-1.891-.97-7.4-.993-7.637a.413.413,0,0,1,.111-.334.421.421,0,0,1,.334-.119l15.623,1.47a.437.437,0,0,1,.3.175.405.405,0,0,1,.056.342l-5.03,18.182A.405.405,0,0,1,278.528,113.628Z" transform="translate(-141.465 -47.83)" fill="#231f20"/>
      <path id="Path_104" data-name="Path 104" d="M125.178,132.97s.143-9.25,0-11.332,2.98-13.668,2.233-15.488-2.829-2.527-3.576-.381-2.09,6.914-2.09,6.914-8.2-5.054-9.846-1.589-3.179,9.91-1.446,11.555a6.588,6.588,0,0,0,3.83,1.732l-.445,11.737Z" transform="translate(-109.271 -50.149)" fill="#fff"/>
      <path id="Path_105" data-name="Path 105" d="M113.73,136.44a.429.429,0,0,1-.254-.087.389.389,0,0,1-.151-.334l.429-11.356a7.065,7.065,0,0,1-3.687-1.8c-2.082-1.955-.111-8.908,1.351-12.031a2.384,2.384,0,0,1,1.589-1.311c2.535-.795,6.961,1.589,8.416,2.384.366-1.3,1.351-4.712,1.947-6.429a2.082,2.082,0,0,1,1.844-1.589,2.861,2.861,0,0,1,2.5,1.955c.445,1.1-.183,4.49-1.208,9.536a42.118,42.118,0,0,0-1,6.063c.151,2.082,0,10.99,0,11.372a.4.4,0,0,1-.294.389l-11.34,3.179A.27.27,0,0,1,113.73,136.44Zm.4-26.224a3.306,3.306,0,0,0-.914.119,1.589,1.589,0,0,0-1.049.882c-1.589,3.457-3.067,9.639-1.542,11.078a6.167,6.167,0,0,0,3.576,1.589.413.413,0,0,1,.389.429l-.429,11.173,10.506-2.94c0-1.589.127-9.163,0-11a39.5,39.5,0,0,1,1.017-6.286c.691-3.433,1.637-8.129,1.256-9.075a2.09,2.09,0,0,0-1.724-1.446c-.612,0-.93.58-1.089,1.049-.739,2.106-2.074,6.842-2.082,6.89a.421.421,0,0,1-.246.27.4.4,0,0,1-.366,0c-.056-.064-4.45-2.765-7.3-2.765Zm10.943,22.672Z" transform="translate(-109.163 -50.036)" fill="#231f20"/>
      <path id="Path_106" data-name="Path 106" d="M166.12,205.6l-11.07,42.253,27.7-1.828,6.135-20.86,9.671,20.081h24.818L208.229,187.6Z" transform="translate(-118.585 -67.224)" fill="#231f20"/>
      <path id="Path_107" data-name="Path 107" d="M207.869,188.583,166.8,196.243l10.212-60.657s20.908-4.2,25.962-4.2C207.233,131.358,207.869,188.583,207.869,188.583Z" transform="translate(-120.997 -55.682)" fill="#fff"/>
      <path id="Path_108" data-name="Path 108" d="M166.7,196.5a.4.4,0,0,1-.278-.111.413.413,0,0,1-.119-.35l10.212-60.665a.405.405,0,0,1,.318-.318c.85-.175,21-4.2,26.041-4.2h0c.906,0,3.036.048,4.434,28.99.683,14.145.85,28.481.858,28.608a.405.405,0,0,1-.326.4l-41.077,7.629Zm10.553-60.721-10.069,59.831,40.187-7.47c-.366-31.707-2.336-56.493-4.5-56.493C198.221,131.645,179.705,135.284,177.25,135.777Z" transform="translate(-120.894 -55.571)" fill="#231f20"/>
      <path id="Path_109" data-name="Path 109" d="M179.681,131.35c-.612.4,1.176,9.226,1.279,10.021a211.25,211.25,0,0,1,1.3,24.118,71.26,71.26,0,0,1-5.205,26.224c-1.518,3.854-3.282,7.621-5.134,11.324s-5.491,4.339-9.369,4.061a55.626,55.626,0,0,1-12.23-2.281,7.318,7.318,0,0,1-3.743-2.082c-1.589-2.026.143-4.768,1.049-6.707,1.287-2.758,2.519-5.563,3.671-8.36,1.836-4.522,6.787-15.361,8.05-20.073,1.645-6.127-.795-6.143-.509-12.476.119-2.559.151-5.118.254-7.677.056-1.534-.405-6.357.6-7.518C167.348,131.111,179.681,131.35,179.681,131.35Z" transform="translate(-116.714 -55.674)" fill="#d0d0d0"/>
      <path id="Path_110" data-name="Path 110" d="M222.06,129.484c.254.048-.993,20.6-.906,21.623.66,7.8,12.079,38.454,12.079,38.454,0,2.821-28.473,19.708-30.293,14.646,8.439-44.5,2.622-73.293,2.424-73.308C205.372,130.9,215.5,128.236,222.06,129.484Z" transform="translate(-128.418 -55.222)" fill="#d0d0d0"/>
      <path id="Path_111" data-name="Path 111" d="M192.786,145l-3.123,3.036,2.527,1.748s-2.662,19.8-12.023,22.616-13,1.844-13,1.844L162,180.959s8.026,2.3,8.6,2.487,17.578-3.775,20.256-14.3a109.448,109.448,0,0,0,3.131-18.945l1.693-2.13Z" transform="translate(-120.012 -58.477)" fill="#231f20"/>
      <path id="Path_112" data-name="Path 112" d="M183.469,162.828a.405.405,0,0,1-.318-.159l-7.931-10.736a.389.389,0,0,1,0-.509l4.935-5.1-6.19-1.589a.381.381,0,0,1-.278-.27.4.4,0,0,1,.1-.381l7.239-7.764a.4.4,0,1,1,.58.548l-6.786,7.271,6.206,1.589a.405.405,0,0,1,.278.278.389.389,0,0,1-.1.381l-5.181,5.348,7.716,10.5a.4.4,0,0,1-.087.548A.374.374,0,0,1,183.469,162.828Z" transform="translate(-122.408 -56.668)" fill="#231f20"/>
      <path id="Path_113" data-name="Path 113" d="M210.4,160.912a.565.565,0,0,1-.159,0,.405.405,0,0,1-.207-.524l5.825-13.589-5.976-3a.437.437,0,0,1-.2-.246.405.405,0,0,1,.04-.318l4.466-7.255-5.865-2.71a.413.413,0,0,1-.2-.532.4.4,0,0,1,.532-.191l6.27,2.9a.389.389,0,0,1,.215.246.421.421,0,0,1-.04.326l-4.5,7.208,5.92,2.972a.4.4,0,0,1,.191.509l-5.976,13.931A.405.405,0,0,1,210.4,160.912Z" transform="translate(-129.477 -55.912)" fill="#231f20"/>
      <path id="Path_114" data-name="Path 114" d="M264.984,36.58l9.48,19.207,21.194,3.083L280.321,73.818l3.624,21.114-18.961-9.965-18.961,9.965,3.624-21.114L234.31,58.871,255.5,55.787Z" transform="translate(-134.859 -36.215)" fill="#fff"/>
      <path id="Path_115" data-name="Path 115" d="M283.85,95.236a.366.366,0,0,1-.183-.048l-18.778-9.894-18.778,9.87a.373.373,0,0,1-.413,0,.389.389,0,0,1-.159-.389l3.584-20.9-15.154-14.8a.389.389,0,0,1-.1-.405.405.405,0,0,1,.318-.27l21-3.052,9.385-19.017a.413.413,0,0,1,.715,0l9.385,19.017,21,3.052a.405.405,0,0,1,.318.27.389.389,0,0,1-.1.405l-15.218,14.8,3.584,20.9a.389.389,0,0,1-.159.389A.358.358,0,0,1,283.85,95.236ZM264.889,84.5a.366.366,0,0,1,.183,0l18.277,9.6-3.489-20.32a.421.421,0,0,1,.111-.358L294.713,59.07l-20.4-2.964a.413.413,0,0,1-.3-.223l-9.123-18.5-9.123,18.508a.413.413,0,0,1-.3.223l-20.4,2.956,14.8,14.368a.421.421,0,0,1,.111.358l-3.489,20.32,18.277-9.6a.366.366,0,0,1,.127-.016Z" transform="translate(-134.764 -36.121)" fill="#231f20"/>
      <path id="Path_116" data-name="Path 116" d="M226.491,125.552s14.9,5.006,18.722,3.886S256.768,110,256.768,110l15.663,1.947S265.9,150.7,253.47,152.777s-28.95-3.457-28.95-3.457Z" transform="translate(-132.849 -51.29)" fill="#d0d0d0"/>
      <path id="Path_117" data-name="Path 117" d="M180.91,105.448a67.571,67.571,0,0,1-1.748-8.654,12.982,12.982,0,0,1,1.8-8.463c1.788-2.607,4.069-2.3,6.818-2.662,3.648-.477,6.906-2.3,10.291-3.624.644-.254,1.645-.31,1.764.373a1.145,1.145,0,0,1-.119.62,10.823,10.823,0,0,1-1.8,2.972,26.653,26.653,0,0,0,7.533-2.972,8.8,8.8,0,0,1-1.947,7.375l4.474-2.241a7.541,7.541,0,0,1-5.642,8.638" transform="translate(-123.521 -45.514)" fill="#fff"/>
      <path id="Path_118" data-name="Path 118" d="M180.8,105.751a.4.4,0,0,1-.4-.318c-.167-.747-.35-1.494-.532-2.249a43.433,43.433,0,0,1-1.224-6.453,13.492,13.492,0,0,1,1.875-8.741c1.589-2.3,3.592-2.5,5.73-2.686l1.375-.143a28.155,28.155,0,0,0,7.446-2.456c.9-.389,1.82-.795,2.742-1.144a2.281,2.281,0,0,1,1.812,0,.977.977,0,0,1,.509.707,1.462,1.462,0,0,1-.143.842,11.264,11.264,0,0,1-1.144,2.138,26.288,26.288,0,0,0,6.286-2.662.389.389,0,0,1,.373,0,.413.413,0,0,1,.23.294,9.194,9.194,0,0,1-1.065,6.357l3-1.5a.421.421,0,0,1,.366,0,.405.405,0,0,1,.223.286,7.947,7.947,0,0,1-5.96,9.123.405.405,0,0,1-.485-.318.421.421,0,0,1,.326-.485,6.842,6.842,0,0,0,4.267-3.02,6.969,6.969,0,0,0,1.1-4.641l-3.973,1.995a.413.413,0,0,1-.493-.636A8.415,8.415,0,0,0,205,83.588a26.962,26.962,0,0,1-7.152,2.718.413.413,0,0,1-.405-.668,10.331,10.331,0,0,0,1.748-2.853.907.907,0,0,0,.087-.4.167.167,0,0,0-.1-.135,1.589,1.589,0,0,0-1.113.072c-.906.35-1.828.795-2.71,1.136a29.092,29.092,0,0,1-7.677,2.511c-.485.064-.954.1-1.407.151-2.1.191-3.759.342-5.126,2.336a12.741,12.741,0,0,0-1.74,8.2,43.873,43.873,0,0,0,1.208,6.357c.183.795.366,1.51.54,2.265a.413.413,0,0,1-.318.485Z" transform="translate(-123.415 -45.412)" fill="#231f20"/>
      <path id="Path_119" data-name="Path 119" d="M201.569,120.795l.946,6.167s-.97,8.972-7.748,7.4a14.648,14.648,0,0,1-9.48-7.684l-.866-16.291s5-2.726,3.417-13.6a33.5,33.5,0,0,0,17.6,2.281s2.384,11.2,1.653,16.45a5.793,5.793,0,0,1-5.523,5.285Z" transform="translate(-124.615 -48.576)" fill="#fff"/>
      <path id="Path_120" data-name="Path 120" d="M196.157,134.888a7.375,7.375,0,0,1-1.589-.191,14.916,14.916,0,0,1-9.759-7.947.31.31,0,0,1,0-.143l-.93-16.235a.4.4,0,0,1,.215-.381c.048,0,4.712-2.765,3.179-13.184a.429.429,0,0,1,.167-.389.389.389,0,0,1,.421-.04,33.44,33.44,0,0,0,17.372,2.241.413.413,0,0,1,.453.326c.1.453,2.424,11.332,1.653,16.593a6.191,6.191,0,0,1-5.459,5.563l.882,5.73a.525.525,0,0,1,0,.111c0,.191-.564,4.879-3.512,6.969A5.261,5.261,0,0,1,196.157,134.888ZM185.564,126.5a14.312,14.312,0,0,0,9.163,7.39,4.864,4.864,0,0,0,4.085-.652c2.5-1.764,3.1-5.841,3.179-6.357l-.938-6.111a.4.4,0,0,1,.1-.326.366.366,0,0,1,.3-.143,5.364,5.364,0,0,0,5.126-4.935c.668-4.585-1.16-13.962-1.589-15.893A35.037,35.037,0,0,1,188.211,97.4c1.136,9.274-2.527,12.476-3.5,13.152Z" transform="translate(-124.504 -48.484)" fill="#231f20"/>
      <path id="Path_121" data-name="Path 121" d="M201.292,107.94s3.179,5.9,2.249,6.794-3.4,0-3.4,0" transform="translate(-127.843 -50.867)" fill="#fff"/>
      <path id="Path_122" data-name="Path 122" d="M202.084,115.43a7.073,7.073,0,0,1-2.162-.389.4.4,0,1,1,.262-.747c.572.207,2.384.652,3,.064.389-.358-.723-3.361-2.328-6.31a.4.4,0,1,1,.7-.381c1.017,1.86,3.25,6.286,2.161,7.279a2.384,2.384,0,0,1-1.629.485Z" transform="translate(-127.737 -50.768)" fill="#231f20"/>
      <ellipse id="Ellipse_300" data-name="Ellipse 300" cx="0.668" cy="1.526" rx="0.668" ry="1.526" transform="matrix(0.999, -0.042, 0.042, 0.999, 66.935, 54.524)" fill="#231f20"/>
      <ellipse id="Ellipse_301" data-name="Ellipse 301" cx="0.668" cy="1.526" rx="0.668" ry="1.526" transform="matrix(0.999, -0.042, 0.042, 0.999, 77.574, 54.521)" fill="#231f20"/>
      <path id="Path_123" data-name="Path 123" d="M187.735,109.511a9.424,9.424,0,0,0-2.336-2.646,3.179,3.179,0,0,0-1.732-.795,2.829,2.829,0,0,0-1.494.445,5.483,5.483,0,0,0-2.607,3.655,4.362,4.362,0,0,0,.079,2.122,4.84,4.84,0,0,0,2.114,2.543,14.591,14.591,0,0,0,3.083,1.335" transform="translate(-123.599 -50.483)" fill="#fff"/>
      <path id="Path_124" data-name="Path 124" d="M184.734,116.5H184.6a14.708,14.708,0,0,1-3.179-1.383,5.205,5.205,0,0,1-2.281-2.758,4.768,4.768,0,0,1-.1-2.328,5.96,5.96,0,0,1,2.813-3.973,3.179,3.179,0,0,1,1.709-.5,3.608,3.608,0,0,1,1.971.85,9.87,9.87,0,0,1,2.432,2.765.41.41,0,1,1-.707.413,8.8,8.8,0,0,0-2.225-2.527,2.821,2.821,0,0,0-1.5-.675,2.424,2.424,0,0,0-1.271.381,5.118,5.118,0,0,0-2.384,3.385,4.092,4.092,0,0,0,.072,1.923,4.419,4.419,0,0,0,1.939,2.313,14,14,0,0,0,3,1.3.405.405,0,0,1,.254.517A.4.4,0,0,1,184.734,116.5Z" transform="translate(-123.491 -50.378)" fill="#231f20"/>
      <path id="Path_125" data-name="Path 125" d="M203.06,126.515a18.532,18.532,0,0,1-11.38-1.875s5.8,8.916,12.27,7.661Z" transform="translate(-126.106 -54.296)" fill="#231f20"/>
      <path id="Path_126" data-name="Path 126" d="M202.538,132.787c-6.071,0-11.125-7.613-11.324-7.947a.405.405,0,0,1,.04-.485.389.389,0,0,1,.477-.087,18.278,18.278,0,0,0,11.125,1.836.429.429,0,0,1,.31.064.405.405,0,0,1,.167.27l.89,5.777a.389.389,0,0,1-.31.453A7.272,7.272,0,0,1,202.538,132.787Zm-9.767-7.152c1.788,2.281,6.047,6.93,10.593,6.357l-.795-5a18.881,18.881,0,0,1-9.8-1.415Z" transform="translate(-125.997 -54.21)" fill="#231f20"/>
      <path id="Path_127" data-name="Path 127" d="M193.748,110.586a5.388,5.388,0,1,1,5.388-5.388A5.388,5.388,0,0,1,193.748,110.586Zm0-9.957a4.569,4.569,0,1,0,4.569,4.569,4.569,4.569,0,0,0-4.569-4.569Z" transform="translate(-125.424 -49.198)" fill="#231f20"/>
      <path id="Path_128" data-name="Path 128" d="M207.268,110.586a5.388,5.388,0,1,1,5.388-5.388,5.388,5.388,0,0,1-5.388,5.388Zm0-9.957a4.569,4.569,0,1,0,4.569,4.569,4.569,4.569,0,0,0-4.569-4.569Z" transform="translate(-128.2 -49.198)" fill="#231f20"/>
      <path id="Path_129" data-name="Path 129" d="M199.736,120.3h0c-2.511,0-4.935-1.526-7.216-4.49a.4.4,0,1,1,.628-.477c2.122,2.75,4.339,4.156,6.588,4.172h0c3.107,0,5.261-2.686,5.285-2.71a.4.4,0,0,1,.628.485A8.313,8.313,0,0,1,199.736,120.3Z" transform="translate(-126.255 -52.343)" fill="#231f20"/>
      <path id="Path_130" data-name="Path 130" d="M155.271,138.27c-2.821,2.71-23.713,23.84-25.278,19.946s-2.678-21.766-2.678-21.766l-14.3,2.122s-8.249,40.242,6.1,44.676,36.165-16.688,36.165-16.688Z" transform="translate(-109.468 -56.721)" fill="#d0d0d0"/>
      <path id="Path_131" data-name="Path 131" d="M151.9,193.117a.374.374,0,0,1-.2-.056.389.389,0,0,1-.143-.54c.087-.159,9.242-16.5,12.214-42.451a.413.413,0,0,1,.445-.35.4.4,0,0,1,.35.437c-3,26.129-12.23,42.594-12.325,42.761A.4.4,0,0,1,151.9,193.117Z" transform="translate(-117.856 -59.445)" fill="#231f20"/>
      <path id="Path_132" data-name="Path 132" d="M249.069,162.979c-10.688,0-30.571-4.474-30.77-4.522a.4.4,0,0,1-.3-.477.381.381,0,0,1,.477-.294c.2.04,19.994,4.5,30.587,4.5h.795a.405.405,0,0,1,.405.389.4.4,0,0,1-.389.405Z" transform="translate(-131.507 -61.079)" fill="#231f20"/>
      <path id="Path_133" data-name="Path 133" d="M119.657,112.85s2.511,2.678,1.279,7.375-3.306,5.563-6.826,3.473" transform="translate(-110.178 -51.875)" fill="#fff"/>
      <path id="Path_134" data-name="Path 134" d="M117.095,125.084a6.636,6.636,0,0,1-3.306-1.144.408.408,0,1,1,.421-.7c1.589.962,2.813,1.24,3.735.866,1.065-.429,1.875-1.764,2.479-4.093,1.152-4.4-1.089-6.882-1.184-6.985a.413.413,0,0,1,0-.58.4.4,0,0,1,.572,0c.111.119,2.654,2.9,1.383,7.756-.691,2.63-1.589,4.108-2.964,4.649A3.107,3.107,0,0,1,117.095,125.084Z" transform="translate(-110.072 -51.768)" fill="#231f20"/>
      <path id="Path_135" data-name="Path 135" d="M268.589,101.04s-4.585-7.716-3.465-8.5,3.727,2.217,5.165,4.251a4.711,4.711,0,0,1,3.671,5.706" transform="translate(-141.15 -47.678)" fill="#fff"/>
      <path id="Path_136" data-name="Path 136" d="M273.865,102.8H273.8a.413.413,0,0,1-.342-.469c.675-4.466-3.179-5.213-3.338-5.237a.421.421,0,0,1-.262-.167c-1.891-2.678-3.973-4.577-4.593-4.156-.294.532,1.343,4.188,3.584,7.947a.413.413,0,0,1-.143.556.405.405,0,0,1-.564-.143c-2.177-3.671-4.53-8.217-3.345-9.043,1.589-1.128,4.617,2.781,5.642,4.22a5.108,5.108,0,0,1,3.83,6.135.413.413,0,0,1-.405.358Z" transform="translate(-141.054 -47.571)" fill="#231f20"/>
    </g>
  </g>
</svg>
