<svg xmlns="http://www.w3.org/2000/svg" xmlns:xlink="http://www.w3.org/1999/xlink" width="618" height="429" viewBox="0 0 618 429">
  <defs>
    <clipPath id="clip-path">
      <rect id="Rectangle_225" data-name="Rectangle 225" width="618" height="429" rx="25" transform="translate(1360 3042)" fill="#fafafa" stroke="#ededed" stroke-width="2" style="mix-blend-mode: multiply;isolation: isolate"/>
    </clipPath>
  </defs>
  <g id="Mask_Group_5" data-name="Mask Group 5" transform="translate(-1360 -3042)" clip-path="url(#clip-path)">
    <g id="_33" data-name="#33" transform="translate(1282.353 3028.917)">
      <rect id="Rectangle_229" data-name="Rectangle 229" width="131.689" height="221.442" transform="translate(509.199 249.471)" fill="#fff"/>
      <path id="Path_2247" data-name="Path 2247" d="M326.934,330.262H195.215a1.485,1.485,0,0,1-1.485-1.485V107.335a1.515,1.515,0,0,1,1.485-1.485H326.933a1.515,1.515,0,0,1,1.485,1.485V328.777A1.485,1.485,0,0,1,326.934,330.262ZM196.7,327.292H325.449V108.82H196.7Z" transform="translate(313.984 142.136)" fill="#231f20"/>
      <rect id="Rectangle_231" data-name="Rectangle 231" width="131.689" height="221.442" transform="translate(323.189 100.883)" fill="#fff"/>
      <path id="Path_2249" data-name="Path 2249" d="M264.452,280.232H132.585a1.485,1.485,0,0,1-1.485-1.485V57.3a1.485,1.485,0,0,1,1.485-1.485H264.452a1.485,1.485,0,0,1,1.485,1.485V278.747A1.485,1.485,0,0,1,264.452,280.232Zm-130.234-2.97H262.967V58.79H134.07Z" transform="translate(190.604 43.578)" fill="#231f20"/>
      <path id="Path_2250" data-name="Path 2250" d="M229.742,107.97H140.375a1.485,1.485,0,1,1,0-2.97h89.367a1.485,1.485,0,1,1,0,2.97Z" transform="translate(205.95 140.462)" fill="#231f20"/>
      <rect id="Rectangle_235" data-name="Rectangle 235" width="95.485" height="27.591" rx="3.34" transform="translate(528.652 410.444)" fill="#2ccd70"/>
      <rect id="Rectangle_236" data-name="Rectangle 236" width="95.485" height="27.591" rx="3.34" transform="translate(528.652 369.755)" fill="#fff"/>
      <path id="Path_2259" data-name="Path 2259" d="M287.33,176.911H211.714a11.434,11.434,0,0,1-11.434-11.4v-7.722a11.464,11.464,0,0,1,11.434-11.434H287.33a11.434,11.434,0,0,1,11.4,11.434v7.722a11.4,11.4,0,0,1-11.4,11.4ZM211.714,149.32a8.494,8.494,0,0,0-8.464,8.464v7.722a8.465,8.465,0,0,0,8.464,8.435H287.33a8.435,8.435,0,0,0,8.435-8.435v-7.722a8.464,8.464,0,0,0-8.435-8.464Z" transform="translate(326.887 221.92)" fill="#d1d3d4"/>
      <rect id="Rectangle_237" data-name="Rectangle 237" width="95.485" height="27.591" rx="3.34" transform="translate(528.652 329.067)" fill="#fff"/>
      <path id="Path_2260" data-name="Path 2260" d="M287.33,163.211H211.714a11.434,11.434,0,0,1-11.434-11.4v-7.752a11.434,11.434,0,0,1,11.434-11.4H287.33a11.4,11.4,0,0,1,11.4,11.4v7.752a11.4,11.4,0,0,1-11.4,11.4ZM211.714,135.62a8.464,8.464,0,0,0-8.464,8.435v7.752a8.465,8.465,0,0,0,8.464,8.435H287.33a8.435,8.435,0,0,0,8.435-8.435v-7.752a8.435,8.435,0,0,0-8.435-8.435Z" transform="translate(326.887 194.932)" fill="#d1d3d4"/>
      <rect id="Rectangle_238" data-name="Rectangle 238" width="95.485" height="27.591" rx="3.34" transform="translate(528.652 288.378)" fill="#fff"/>
      <path id="Path_2261" data-name="Path 2261" d="M287.33,149.511H211.714a11.464,11.464,0,0,1-11.435-11.434v-7.722a11.434,11.434,0,0,1,11.434-11.4H287.33a11.4,11.4,0,0,1,11.4,11.4v7.722A11.434,11.434,0,0,1,287.33,149.511Zm-75.616-27.443a8.464,8.464,0,0,0-8.464,8.435v7.722a8.494,8.494,0,0,0,8.464,8.464H287.33a8.464,8.464,0,0,0,8.435-8.464V130.5a8.435,8.435,0,0,0-8.435-8.435Z" transform="translate(326.887 167.943)" fill="#d1d3d4"/>
      <path id="Path_2262" data-name="Path 2262" d="M265.9,115.82H207.985a1.485,1.485,0,1,1,0-2.97H265.9a1.485,1.485,0,0,1,1.485,1.485A1.515,1.515,0,0,1,265.9,115.82Z" transform="translate(339.141 155.926)" fill="#d1d3d4"/>
      <rect id="Rectangle_239" data-name="Rectangle 239" width="93.673" height="77.784" transform="translate(340.772 121.97)" fill="#fff"/>
      <path id="Path_2263" data-name="Path 2263" d="M232.178,143.644H138.5a1.485,1.485,0,0,1-1.485-1.485V64.4A1.485,1.485,0,0,1,138.5,62.92h93.673a1.485,1.485,0,0,1,1.485,1.485v77.754A1.485,1.485,0,0,1,232.178,143.644Zm-92.069-2.97h90.7V65.89H139.931Z" transform="translate(202.267 57.565)" fill="#d1d3d4"/>
      <rect id="Rectangle_241" data-name="Rectangle 241" width="44.609" height="45.144" transform="translate(381.805 434.115)" fill="#fff"/>
      <path id="Path_2269" data-name="Path 2269" d="M362.065,141.114h-44.55a1.485,1.485,0,0,1-1.485-1.485V94.485A1.485,1.485,0,0,1,317.515,93h44.55a1.485,1.485,0,0,1,1.485,1.485v45.144A1.485,1.485,0,0,1,362.065,141.114Zm-43.124-2.97h41.58V95.97H318.911Z" transform="translate(64.35 339.63)" fill="#d1d3d4"/>
      <path id="Path_2270" data-name="Path 2270" d="M344.508,99.97H321.1a1.485,1.485,0,0,1,0-2.97h23.4a1.485,1.485,0,1,1,0,2.97Z" transform="translate(71.422 347.51)" fill="#d1d3d4"/>
      <path id="Path_2271" data-name="Path 2271" d="M344.508,103.24H321.1a1.485,1.485,0,0,1,0-2.97h23.4a1.485,1.485,0,1,1,0,2.97Z" transform="translate(71.422 353.952)" fill="#d1d3d4"/>
      <path id="Path_2272" data-name="Path 2272" d="M337.37,107.13H321.065a1.485,1.485,0,0,1,0-2.97H337.37a1.485,1.485,0,1,1,0,2.97Z" transform="translate(71.343 361.615)" fill="#d1d3d4"/>
      <path id="Path_2273" data-name="Path 2273" d="M325.075,103.26a1.485,1.485,0,0,1-1.485-1.485v-8.91a1.485,1.485,0,0,1,2.97,0v8.91A1.485,1.485,0,0,1,325.075,103.26Z" transform="translate(79.243 336.439)" fill="#d1d3d4"/>
      <rect id="Rectangle_242" data-name="Rectangle 242" width="44.609" height="45.144" transform="translate(531.206 111.783)" fill="#fff"/>
      <path id="Path_2274" data-name="Path 2274" d="M247.185,107.584h-44.55a1.485,1.485,0,0,1-1.485-1.485V60.985a1.485,1.485,0,0,1,1.485-1.485h44.55a1.485,1.485,0,0,1,1.485,1.485v45.144A1.485,1.485,0,0,1,247.185,107.584Zm-43.094-2.97h41.58V62.44H204.09Z" transform="translate(328.601 50.828)" fill="#d1d3d4"/>
      <path id="Path_2275" data-name="Path 2275" d="M229.618,66.5H206.185a1.485,1.485,0,1,1,0-2.97h23.433a1.485,1.485,0,1,1,0,2.97Z" transform="translate(335.595 58.767)" fill="#d1d3d4"/>
      <path id="Path_2276" data-name="Path 2276" d="M229.618,69.73H206.185a1.485,1.485,0,1,1,0-2.97h23.433a1.485,1.485,0,1,1,0,2.97Z" transform="translate(335.595 65.13)" fill="#d1d3d4"/>
      <path id="Path_2277" data-name="Path 2277" d="M222.49,73.63H206.185a1.515,1.515,0,0,1-1.485-1.485,1.485,1.485,0,0,1,1.485-1.485H222.49a1.485,1.485,0,1,1,0,2.97Z" transform="translate(335.595 72.813)" fill="#d1d3d4"/>
      <path id="Path_2278" data-name="Path 2278" d="M210.195,69.76a1.515,1.515,0,0,1-1.485-1.485v-8.91a1.485,1.485,0,1,1,2.97,0v8.91A1.485,1.485,0,0,1,210.195,69.76Z" transform="translate(343.494 47.636)" fill="#d1d3d4"/>
      <rect id="Rectangle_243" data-name="Rectangle 243" width="44.609" height="45.144" transform="translate(431.998 364.706)" fill="#fff"/>
      <path id="Path_2279" data-name="Path 2279" d="M378.955,117.744H334.4a1.485,1.485,0,0,1-1.485-1.485V71.115A1.485,1.485,0,0,1,334.4,69.63h44.55a1.485,1.485,0,0,1,1.485,1.485v45.144A1.485,1.485,0,0,1,378.955,117.744Zm-43.094-2.97h41.58V72.6H335.86Z" transform="translate(97.623 293.592)" fill="#d1d3d4"/>
      <path id="Path_2280" data-name="Path 2280" d="M361.329,76.64H337.985a1.515,1.515,0,0,1-1.485-1.485,1.485,1.485,0,0,1,1.485-1.485h23.433a1.485,1.485,0,0,1,1.485,1.485,1.515,1.515,0,0,1-1.574,1.485Z" transform="translate(104.675 301.55)" fill="#d1d3d4"/>
      <path id="Path_2281" data-name="Path 2281" d="M361.329,79.87H337.985a1.515,1.515,0,0,1-1.485-1.485,1.485,1.485,0,0,1,1.485-1.485h23.433a1.485,1.485,0,0,1,1.485,1.485,1.515,1.515,0,0,1-1.574,1.485Z" transform="translate(104.675 307.913)" fill="#d1d3d4"/>
      <path id="Path_2282" data-name="Path 2282" d="M341.985,79.88a1.485,1.485,0,0,1-1.485-1.485v-8.91A1.515,1.515,0,0,1,341.985,68a1.485,1.485,0,0,1,1.485,1.485v8.91A1.485,1.485,0,0,1,341.985,79.88Z" transform="translate(112.555 290.38)" fill="#d1d3d4"/>
      <path id="Path_2285" data-name="Path 2285" d="M264.281,90.52H217.445a1.485,1.485,0,0,1-1.485-1.485,1.515,1.515,0,0,1,1.485-1.485h46.837a1.485,1.485,0,1,1,0,2.97Z" transform="translate(357.777 106.086)" fill="#d1d3d4"/>
      <path id="Path_2286" data-name="Path 2286" d="M251.993,96.15h-36.8a1.485,1.485,0,0,1-1.485-1.485,1.515,1.515,0,0,1,1.485-1.485h36.8a1.485,1.485,0,0,1,0,2.97Z" transform="translate(353.344 117.177)" fill="#d1d3d4"/>
      <path id="Path_2288" data-name="Path 2288" d="M66.215,248.68s-9.474,25.928-5.287,28.452,87.793,0,82.773-5.019-27.324-21.74-27.324-21.74" transform="translate(50.264 423.508)" fill="#fff"/>
      <path id="Path_2289" data-name="Path 2289" d="M81,280.467c-10.662,0-18.711-.386-19.929-1.129-4.544-2.732.98-20.077,4.663-30.2a1.485,1.485,0,0,1,2.792,1.01c-4.663,12.771-7.425,25.245-5.94,26.73,5.791,2.554,71.012-.475,80.189-3.534-6.178-5.7-26.047-20.612-26.284-20.79a1.515,1.515,0,0,1-.3-2.079,1.485,1.485,0,0,1,2.079-.3c.921.683,22.453,16.84,27.5,21.859a2.02,2.02,0,0,1,.208,2.732C142.9,278.567,105.181,280.467,81,280.467Z" transform="translate(49.284 422.549)" fill="#231f20"/>
      <path id="Path_2290" data-name="Path 2290" d="M109.241,142.193c-3.95-.178-7.9-.861-12.5-1.247s-9.771-1.96-9.831-6.237c0-3.683,4.306-6.682,3.356-10.217a8.108,8.108,0,0,0-1.515-2.584,39.56,39.56,0,0,1,6.8-54.321c-1.188.416-2.465-.772-2.584-2.02A5.049,5.049,0,0,1,94.331,62a24.443,24.443,0,0,1,11.88-7.217,75.319,75.319,0,0,1,44.372,0c11.078,3.237,24.383,12.088,22.928,25.453a10.662,10.662,0,0,1-9.207,9.89c-2.465,14.315-9.979,24.116-19.424,34.481a57.766,57.766,0,0,1-23.285,15.83A32.076,32.076,0,0,1,109.241,142.193Z" transform="translate(91.764 34.959)" fill="#fff"/>
      <path id="Path_2291" data-name="Path 2291" d="M111.988,144.614h-1.812a60.044,60.044,0,0,1-7.158-.683c-1.723-.208-3.5-.416-5.405-.594-6.95-.564-11.137-3.445-11.2-7.663a10.543,10.543,0,0,1,1.99-5.554c.95-1.6,1.782-2.97,1.426-4.306a6.8,6.8,0,0,0-1.129-1.9,40.926,40.926,0,0,1,4.96-54.826,3.95,3.95,0,0,1-1.188-2.465,6.326,6.326,0,0,1,1.544-4.544,26.462,26.462,0,0,1,12.593-7.692,77.219,77.219,0,0,1,45.233,0c13.008,3.8,25.453,13.662,23.968,27.056a12.3,12.3,0,0,1-9.326,10.9c-2.97,14.85-11.256,24.948-19.6,34.155a58.983,58.983,0,0,1-23.76,16.216A32.165,32.165,0,0,1,111.988,144.614ZM96.337,66.949a1.634,1.634,0,0,1,1.4.8,1.515,1.515,0,0,1-.238,1.9,38.016,38.016,0,0,0-6.445,52.272,9.148,9.148,0,0,1,1.752,2.97,8.524,8.524,0,0,1-1.752,6.712,8.168,8.168,0,0,0-1.574,3.98c0,3.861,7.069,4.663,8.464,4.782a44.963,44.963,0,0,1,5.524.594c2.406.267,4.663.535,6.92.653h0a30.2,30.2,0,0,0,11.88-1.693,56.192,56.192,0,0,0,22.661-15.414c10.336-11.4,16.78-20.552,19.067-33.769A1.485,1.485,0,0,1,165.3,89.61a9.207,9.207,0,0,0,7.722-8.405c1.455-13.365-13.038-21.295-21.859-23.76a74.012,74.012,0,0,0-43.48,0,22.512,22.512,0,0,0-11.167,6.742,3.564,3.564,0,0,0-1.069,2.376,1.218,1.218,0,0,0,.445.713A1.337,1.337,0,0,1,96.337,66.949Z" transform="translate(90.768 34.083)" fill="#231f20"/>
      <path id="Path_2292" data-name="Path 2292" d="M160.471,91.7l39.946,31.749,1.069,1.871,5.316,9.237-10.187-3.089-2.079-.624L154.59,99.1Z" transform="translate(236.879 114.261)" fill="#231f20"/>
      <path id="Path_2293" data-name="Path 2293" d="M207.789,137.03h-.416l-12.266-3.712a1.366,1.366,0,0,1-.5-.267l-39.946-31.808a1.455,1.455,0,0,1-.564-.98,1.663,1.663,0,0,1,.327-1.1l5.94-7.4a1.455,1.455,0,0,1,2.079-.238l39.887,31.749a1.217,1.217,0,0,1,.356.416l6.385,11.108a1.485,1.485,0,0,1,0,1.663A1.515,1.515,0,0,1,207.789,137.03ZM196.206,130.5l8.464,2.554-4.4-7.633-38.61-30.65-4.039,5.079Z" transform="translate(235.892 113.273)" fill="#231f20"/>
      <path id="Path_2294" data-name="Path 2294" d="M2.376,0h6.95a2.346,2.346,0,0,1,2.346,2.346V26.581H0V2.376A2.346,2.346,0,0,1,2.376,0Z" transform="matrix(0.622, -0.783, 0.783, 0.622, 380.909, 206.376)" fill="#231f20"/>
      <path id="Path_2295" data-name="Path 2295" d="M172.222,116.365a1.515,1.515,0,0,1-.921-.327l-18.978-15.088A3.772,3.772,0,0,1,150.9,98.4a3.861,3.861,0,0,1,.8-2.97l1.158.921-1.158-.921,4.336-5.435a3.772,3.772,0,0,1,2.554-1.426,3.861,3.861,0,0,1,2.821.8l18.978,15.384a1.426,1.426,0,0,1,.535,1.01,1.4,1.4,0,0,1-.3,1.069l-7.247,9.118a1.455,1.455,0,0,1-.98.564Zm-13.187-24.71a.832.832,0,0,0-.683.327l-4.336,5.435h0a.862.862,0,0,0-.178.653.8.8,0,0,0,.327.564l17.82,14.167,5.405-6.8L159.57,91.833a.95.95,0,0,0-.535-.178Z" transform="translate(229.523 108.039)" fill="#231f20"/>
      <path id="Path_2296" data-name="Path 2296" d="M166.5,111.882a1.515,1.515,0,0,1-.921-.327c-1.04-.8-9.979-7.841-11.227-8.91a24.116,24.116,0,0,1-3.178-8.91,1.544,1.544,0,0,1,1.188-1.812,1.515,1.515,0,0,1,1.812,1.188,30.8,30.8,0,0,0,2.287,7.425c.98.891,8.257,6.653,10.989,8.91a1.485,1.485,0,0,1,.267,2.138,1.515,1.515,0,0,1-1.218.3Z" transform="translate(230.082 114.632)" fill="#231f20"/>
      <path id="Path_2297" data-name="Path 2297" d="M89.346,112.1s-30.888,62.726-28.423,81.942S127,205.747,127,205.747L123.8,110.44Z" transform="translate(52.081 151.179)" fill="#fff"/>
      <path id="Path_2298" data-name="Path 2298" d="M101.735,209.615H95.8c-22.334-.713-34.244-5.554-35.372-14.345-2.554-19.453,27.294-80.189,28.571-82.8a1.485,1.485,0,0,1,1.247-.832l34.274-1.663a1.485,1.485,0,0,1,1.1.386,1.544,1.544,0,0,1,.475,1.04l3.326,95.336a1.455,1.455,0,0,1-1.307,1.515,251.122,251.122,0,0,1-26.373,1.366ZM91.311,114.576c-3.534,7.306-30.175,62.9-27.888,80.338,1.841,14.2,44.876,12.563,63.053,10.573l-3.237-92.455Z" transform="translate(51.066 150.251)" fill="#231f20"/>
      <path id="Path_2299" data-name="Path 2299" d="M111.79,260.822l1.693,40.718s76.358.535,71.9-5.019-39.025-30.116-39.025-30.116l-5.584-30.116Z" transform="translate(152.564 399.1)" fill="#fff"/>
      <path id="Path_2300" data-name="Path 2300" d="M124.239,304.013h-9.8a1.515,1.515,0,0,1-1.455-1.426l-1.693-40.718a1.544,1.544,0,0,1,.535-1.188l28.987-24.532a1.545,1.545,0,0,1,1.455-.267,1.574,1.574,0,0,1,.98,1.129l5.465,29.522c4.4,3.148,34.541,24.68,38.818,30.026a2.049,2.049,0,0,1,.3,2.287C185.718,303.181,150.583,304.013,124.239,304.013Zm-8.346-2.97c30.561.178,63.171-.98,68.725-3.267-4.93-5.168-26.73-21.117-38.135-29.165a1.544,1.544,0,0,1-.594-.95l-5.108-27.591L114.29,262.492Z" transform="translate(151.579 398.143)" fill="#231f20"/>
      <path id="Path_2301" data-name="Path 2301" d="M224.484,148.23l29.7,297.235-49.064,1.1L149.343,236.646,118.455,448.287,61.61,445.5s9.89-118.205,15.058-163.2S89.8,159.427,89.8,159.427Z" transform="translate(53.71 225.624)" fill="#231f20"/>
      <path id="Path_2302" data-name="Path 2302" d="M111.561,71.48s10.246,16.869,7.841,20.166-9.742.772-9.742.772" transform="translate(148.368 74.428)" fill="#fff"/>
      <path id="Path_2303" data-name="Path 2303" d="M116.052,95.831a20.226,20.226,0,0,1-5.94-1.01,1.515,1.515,0,0,1-.921-1.9A1.485,1.485,0,0,1,111.062,92c2.079.713,6.772,1.574,8.078-.238s-2.97-10.128-7.9-18.533a1.455,1.455,0,0,1,.475-2.02,1.485,1.485,0,0,1,2.049.475C117,77,124.219,89.772,121.546,93.485a6.593,6.593,0,0,1-5.494,2.346Z" transform="translate(147.292 73.451)" fill="#231f20"/>
      <path id="Path_2304" data-name="Path 2304" d="M146.5,68.356c6.712,5.94,4.247,17.82,3.891,25.512-.5,10.93-1.277,21.8-2.287,32.67-.624,6.89-18.533,6.356-21.621,4.158l1.752,27.413L91.17,142.189l2.465-31.422s11.88.535,19.3-13.127S121.018,62,121.018,62,139.967,62.594,146.5,68.356Z" transform="translate(111.943 55.753)" fill="#fff"/>
      <path id="Path_2305" data-name="Path 2305" d="M129.162,160.61a1.425,1.425,0,0,1-.594,0L91.592,144.631a1.574,1.574,0,0,1-.891-1.485l2.406-31.511a1.485,1.485,0,0,1,1.544-1.366c.445,0,11.019.3,18-12.5,7.276-13.335,7.9-34.6,7.9-34.808a1.485,1.485,0,0,1,.475-1.039,1.366,1.366,0,0,1,1.069-.416c.8,0,19.572.683,26.4,6.742,6.148,5.405,5.346,14.85,4.693,22.512,0,1.485-.238,2.97-.3,4.188-.5,10.9-1.277,21.918-2.287,32.67a6.356,6.356,0,0,1-4.277,5.2,30.591,30.591,0,0,1-17.2,1.039l1.6,25.126a1.485,1.485,0,0,1-.624,1.307A1.544,1.544,0,0,1,129.162,160.61Zm-35.64-18.3,33.858,14.493-1.6-25.007a1.544,1.544,0,0,1,.772-1.4,1.515,1.515,0,0,1,1.574,0,26.433,26.433,0,0,0,16.721-.327q2.406-1.1,2.584-2.762c.98-10.781,1.752-21.77,2.257-32.67,0-1.336.178-2.762.3-4.277.594-6.979,1.336-15.622-3.683-20.047s-18.592-5.643-23.077-5.94c-.267,5.227-1.634,22.631-8.2,34.63S99.314,112.7,95.75,113Z" transform="translate(111.016 54.766)" fill="#231f20"/>
      <path id="Path_2306" data-name="Path 2306" d="M253.227,169.558s-43.837-46.332-61.211-63.736c-16.1-16.157-62.964-30.828-84.258-7.722,0,0-35.135,48.945-41.817,77.368L86.433,188a935.55,935.55,0,0,0-7.96,101.6c38.61,30.621,137.6-19.037,137.6-19.037l-8.91-69.735,16.008,15.979Z" transform="translate(62.24 103.287)" fill="#2ccd70"/>
      <path id="Path_2307" data-name="Path 2307" d="M118.87,83.679s-8.643,4.9-12.83-4.039" transform="translate(141.237 90.503)" fill="#fff"/>
      <path id="Path_2308" data-name="Path 2308" d="M114.616,87.573a9.445,9.445,0,0,1-2.97-.446,10.1,10.1,0,0,1-5.94-5.94,1.455,1.455,0,0,1,.713-1.96,1.485,1.485,0,0,1,1.99.713,7.336,7.336,0,0,0,4.217,4.217,9.5,9.5,0,0,0,6.534-.832,1.485,1.485,0,0,1,2.02.564,1.515,1.515,0,0,1-.564,2.02,13.306,13.306,0,0,1-6,1.663Z" transform="translate(140.293 89.401)" fill="#231f20"/>
      <path id="Path_2309" data-name="Path 2309" d="M115.377,83.379a14.85,14.85,0,0,0-2.762-7.6,21.473,21.473,0,0,0-3.683-5.108,7.158,7.158,0,0,0-5.94-2.02,6.593,6.593,0,0,0-4.4,3.208,12.533,12.533,0,0,0-1.544,5.376,23.433,23.433,0,0,0,10.009,21.176l-.594-.683" transform="translate(123.376 68.737)" fill="#fff"/>
      <path id="Path_2310" data-name="Path 2310" d="M108.047,100.843a1.4,1.4,0,0,1-.832-.267A25.007,25.007,0,0,1,96.553,78.034a13.871,13.871,0,0,1,1.782-5.94,8.168,8.168,0,0,1,5.435-3.92,8.494,8.494,0,0,1,7.039,2.406,21.68,21.68,0,0,1,4.069,5.435,16.424,16.424,0,0,1,2.97,8.405,1.455,1.455,0,0,1-1.515,1.455,1.485,1.485,0,0,1-1.455-1.515,13.543,13.543,0,0,0-2.554-6.831,20.105,20.105,0,0,0-3.5-4.752,5.7,5.7,0,0,0-4.544-1.663,5.049,5.049,0,0,0-3.267,2.614,10.841,10.841,0,0,0-1.366,4.722,22.067,22.067,0,0,0,8.91,19.542h0l.594.653a1.485,1.485,0,0,1,0,1.96,1.515,1.515,0,0,1-1.1.238Z" transform="translate(122.39 67.786)" fill="#231f20"/>
      <path id="Path_2311" data-name="Path 2311" d="M111.846,91.621A29.046,29.046,0,0,1,98.6,81.85s0,16.632,14.018,21.978Z" transform="translate(126.58 94.857)" fill="#231f20"/>
      <path id="Path_2312" data-name="Path 2312" d="M113.524,106.242a1.693,1.693,0,0,1-.535,0c-14.85-5.643-14.85-23.2-14.85-23.374a1.485,1.485,0,0,1,1.069-1.426,1.455,1.455,0,0,1,1.663.624,27.769,27.769,0,0,0,12.5,9.177,1.426,1.426,0,0,1,.98,1.307l.772,12.207a1.426,1.426,0,0,1-.594,1.277A1.4,1.4,0,0,1,113.524,106.242ZM101.645,87.5a21.265,21.265,0,0,0,10.336,14.85l-.564-8.91a34.51,34.51,0,0,1-9.86-5.94Z" transform="translate(125.674 93.928)" fill="#231f20"/>
      <path id="Path_2313" data-name="Path 2313" d="M119.53,193.34a90.02,90.02,0,0,0,50.49,21.681c18.028,1.277,64.656-42.857,76.863-56.43,11.2-12.533,19.839-25.72,19.483-43.273a15.741,15.741,0,0,0-4.9-11.672c-1.515-1.307-3.475-2.435-3.831-4.366a8.557,8.557,0,0,0-.178-2.138,3.594,3.594,0,0,0-3.772-2.287,8.91,8.91,0,0,0-4.306,1.96,59.7,59.7,0,0,0-15.83,16.127,33.949,33.949,0,0,0-2.673,6.95c-2.495,8.138-3.742,16.335-9.593,22.6s-38.847,36-51.767,30.472c-15.919-6.831-27.888-13.216-27.888-13.216" transform="translate(167.812 120.431)" fill="#fff"/>
      <path id="Path_2314" data-name="Path 2314" d="M171.842,217.638h-.861a90.5,90.5,0,0,1-51.5-22.067,1.485,1.485,0,0,1,0-2.109,1.455,1.455,0,0,1,2.079,0,89.1,89.1,0,0,0,49.688,21.265c16.78,1.188,61.479-40.154,75.675-56.043,10.128-11.345,19.453-24.324,19.1-42.263a14.167,14.167,0,0,0-4.544-10.662,10.709,10.709,0,0,0-.891-.743,7.633,7.633,0,0,1-3.416-4.485,5.615,5.615,0,0,1,0-1.218,5.936,5.936,0,0,0,0-.832c-.208-.772-1.307-1.218-2.2-1.158a7.425,7.425,0,0,0-3.534,1.663,59.4,59.4,0,0,0-15.444,15.652,36.678,36.678,0,0,0-2.554,6.653c-.475,1.6-.891,3.178-1.337,4.752-1.782,6.445-3.623,13.127-8.554,18.444s-39.055,37.036-53.46,30.858c-15.8-6.772-27.888-13.216-28.007-13.276a1.489,1.489,0,0,1,1.426-2.614s12.088,6.445,27.769,13.157c11.108,4.722,41.936-21.235,50.222-30.145,4.425-4.782,6.088-10.811,7.87-17.226.416-1.6.861-3.208,1.366-4.811a36.084,36.084,0,0,1,2.792-7.247,61.36,61.36,0,0,1,16.068-16.6,10.663,10.663,0,0,1,5.049-2.227,4.96,4.96,0,0,1,5.316,3.386,7.426,7.426,0,0,1,.178,1.515,6.207,6.207,0,0,0,0,.742c.178,1.01,1.247,1.812,2.346,2.7l.98.8a16.958,16.958,0,0,1,5.435,12.771c.386,19.008-9.8,33.056-19.839,44.282C238.132,172.851,191.533,217.638,171.842,217.638Z" transform="translate(166.85 119.418)" fill="#231f20"/>
      <path id="Path_2315" data-name="Path 2315" d="M135.621,152.263a1.515,1.515,0,0,1-1.069-.445A443.732,443.732,0,0,1,103.1,115.643a1.485,1.485,0,0,1,.327-2.079,1.426,1.426,0,0,1,2.049.3,448.209,448.209,0,0,0,31.185,35.907,1.455,1.455,0,0,1-1.039,2.495Z" transform="translate(134.881 156.727)" fill="#231f20"/>
      <path id="Path_2316" data-name="Path 2316" d="M103.557,203.361a1.515,1.515,0,0,1-.95-.356c-.742-.624-18.087-15.384-18.176-38.61a1.485,1.485,0,0,1,1.456-1.485h0a1.455,1.455,0,0,1,1.455,1.485c0,21.889,16.959,36.293,17.137,36.442a1.485,1.485,0,0,1-.95,2.614Z" transform="translate(98.665 254.543)" fill="#fff"/>
      <ellipse id="Ellipse_340" data-name="Ellipse 340" cx="3.891" cy="1.544" rx="3.891" ry="1.544" transform="translate(251.711 141.609) rotate(-78.19)" fill="#231f20"/>
      <path id="Path_2317" data-name="Path 2317" d="M73.654,165h-.238a1.544,1.544,0,0,1-1.247-1.723c.356-2.109,8.524-52.272,17.82-69.052A1.5,1.5,0,1,1,92.6,95.685c-8.91,16.305-17.315,67.567-17.4,68.072A1.455,1.455,0,0,1,73.654,165Z" transform="translate(74.485 117.731)" fill="#231f20"/>
    </g>
  </g>
</svg>
