<svg xmlns="http://www.w3.org/2000/svg" width="35" height="35" viewBox="0 0 35 35">
  <g id="Group_146" data-name="Group 146" transform="translate(-183 -108)">
    <g id="Group_110" data-name="Group 110" transform="translate(-486 -1371)">
      <rect id="Rectangle_68" data-name="Rectangle 68" width="35" height="35" rx="10" transform="translate(669 1479)" fill="#012632"/>
      <path id="Rectangle_68_-_Outline" data-name="Rectangle 68 - Outline" d="M10,2a8.009,8.009,0,0,0-8,8V25a8.009,8.009,0,0,0,8,8H25a8.009,8.009,0,0,0,8-8V10a8.009,8.009,0,0,0-8-8H10m0-2H25A10,10,0,0,1,35,10V25A10,10,0,0,1,25,35H10A10,10,0,0,1,0,25V10A10,10,0,0,1,10,0Z" transform="translate(669 1479)" fill="#05dbff"/>
      <path id="Path_2323" data-name="Path 2323" d="M-16.01,0h-2.153V-12.551h4.975a4.219,4.219,0,0,1,3.028,1,3.726,3.726,0,0,1,1.05,2.83,3.711,3.711,0,0,1-1.05,2.826,4.23,4.23,0,0,1-3.028,1H-16.01Zm0-10.758v4.069h2.769a1.891,1.891,0,0,0,1.49-.558,2.145,2.145,0,0,0,.5-1.481,2.132,2.132,0,0,0-.5-1.472,1.891,1.891,0,0,0-1.49-.558ZM-4.456-9.5a4.12,4.12,0,0,1,2.76.835,2.708,2.708,0,0,1,.905,2.32L-2.514-6.4a1.289,1.289,0,0,0-.5-1.085,2.32,2.32,0,0,0-1.437-.382,2.451,2.451,0,0,0-1.367.334,1.034,1.034,0,0,0-.505.905.77.77,0,0,0,.4.7,6.016,6.016,0,0,0,1.63.5,6.537,6.537,0,0,1,2.72,1.011A2.081,2.081,0,0,1-.712-2.689,2.347,2.347,0,0,1-1.793-.664,4.979,4.979,0,0,1-4.685.088,4.256,4.256,0,0,1-7.506-.756a2.722,2.722,0,0,1-.94-2.329l1.74.07A1.22,1.22,0,0,0-6.13-1.938a2.955,2.955,0,0,0,1.639.382,2.568,2.568,0,0,0,1.362-.3.951.951,0,0,0,.475-.853.774.774,0,0,0-.163-.5,1.428,1.428,0,0,0-.628-.369,11.257,11.257,0,0,0-1.389-.36A6.652,6.652,0,0,1-7.462-4.979,2.085,2.085,0,0,1-8.244-6.7,2.413,2.413,0,0,1-7.225-8.75,4.572,4.572,0,0,1-4.456-9.5Z" transform="translate(696 1502)" fill="#fff"/>
    </g>
  </g>
</svg>
