<svg xmlns="http://www.w3.org/2000/svg" xmlns:xlink="http://www.w3.org/1999/xlink" width="440" height="477" viewBox="0 0 440 477">
  <defs>
    <clipPath id="clip-path">
      <rect id="Rectangle_113" data-name="Rectangle 113" width="440" height="477" rx="25" transform="translate(1337 3042)" fill="#fafafa" stroke="#ededed" stroke-width="2" style="mix-blend-mode: multiply;isolation: isolate"/>
    </clipPath>
  </defs>
  <g id="Mask_Group_1" data-name="Mask Group 1" transform="translate(-1337 -3042)" clip-path="url(#clip-path)">
    <g id="_505_achievement_flatline" data-name="#505_achievement_flatline" transform="translate(1221.245 3054.287)">
      <path id="Path_67" data-name="Path 67" d="M267,131.624s6.377-12.5,5.378-17.58S269.742,93.7,269.742,93.7l41.9,3.89-13.477,48.616" transform="translate(235.28 64.821)" fill="#fff"/>
      <path id="Path_68" data-name="Path 68" d="M298.7,147.933h-.3a1.105,1.105,0,0,1-.765-1.339l13.116-47.383-39.2-3.635c.468,3.826,1.764,14.88,2.487,18.941.957,5.378-5.208,17.729-5.484,18.26a1.106,1.106,0,0,1-1.467.489,1.084,1.084,0,0,1-.489-1.467c1.7-3.4,5.974-13.031,5.293-17.006C271,109.733,269.3,95,269.239,94.364a1.105,1.105,0,0,1,.3-.893,1.127,1.127,0,0,1,.893-.319l41.793,3.933a1.169,1.169,0,0,1,.808.468,1.084,1.084,0,0,1,.149.914L299.722,147.1A1.084,1.084,0,0,1,298.7,147.933Z" transform="translate(234.7 64.199)" fill="#231f20"/>
      <path id="Path_69" data-name="Path 69" d="M151.122,180.75s.383-24.744,0-30.313,7.972-36.563,5.973-41.431-7.568-6.76-9.566-1.02-5.591,18.494-5.591,18.494S120,112.96,115.6,122.228s-8.5,26.508-3.869,30.909a17.622,17.622,0,0,0,10.246,4.634l-1.19,31.4Z" transform="translate(58.185 76.916)" fill="#fff"/>
      <path id="Path_70" data-name="Path 70" d="M121.38,190.961a1.148,1.148,0,0,1-.68-.234,1.042,1.042,0,0,1-.4-.893l1.148-30.377a18.9,18.9,0,0,1-9.864-4.8c-5.57-5.229-.3-23.83,3.614-32.184a6.377,6.377,0,0,1,4.252-3.507c6.781-2.126,18.622,4.251,22.512,6.377.978-3.465,3.614-12.606,5.208-17.2a5.57,5.57,0,0,1,4.932-4.252,7.653,7.653,0,0,1,6.7,5.229c1.19,2.934-.489,12.011-3.231,25.509a112.661,112.661,0,0,0-2.678,16.22c.4,5.57,0,29.4,0,30.42a1.063,1.063,0,0,1-.787,1.042l-30.335,8.5a.723.723,0,0,1-.383.149Zm1.063-70.15a8.844,8.844,0,0,0-2.445.319,4.252,4.252,0,0,0-2.806,2.36c-4.252,9.247-8.205,25.785-4.124,29.633a16.5,16.5,0,0,0,9.566,4.252,1.105,1.105,0,0,1,1.042,1.148l-1.148,29.888,28.1-7.865c0-4.252.34-24.51,0-29.421a105.655,105.655,0,0,1,2.721-16.815c1.849-9.183,4.379-21.747,3.359-24.276a5.591,5.591,0,0,0-4.613-3.869c-1.637,0-2.487,1.552-2.912,2.806-1.977,5.633-5.548,18.3-5.57,18.43a1.127,1.127,0,0,1-.659.723,1.063,1.063,0,0,1-.978,0c-.149-.17-11.9-7.4-19.536-7.4Zm29.272,60.648Z" transform="translate(57.593 76.293)" fill="#231f20"/>
      <path id="Path_71" data-name="Path 71" d="M184.662,235.749,155.05,348.776l74.1-4.889,16.411-55.8L271.436,341.8h66.388L297.306,187.6Z" transform="translate(109.251 170.53)" fill="#231f20"/>
      <path id="Path_72" data-name="Path 72" d="M276.66,284.381,166.8,304.874l27.316-162.26s55.929-11.224,69.449-11.224C274.959,131.3,276.66,284.381,276.66,284.381Z" transform="translate(122.479 107.251)" fill="#fff"/>
      <path id="Path_73" data-name="Path 73" d="M167.368,306.46a1.063,1.063,0,0,1-.744-.3,1.105,1.105,0,0,1-.319-.935l27.316-162.281a1.084,1.084,0,0,1,.85-.85c2.275-.468,56.184-11.245,69.661-11.245h0c2.423,0,8.12.128,11.862,77.548,1.828,37.839,2.275,76.187,2.3,76.528a1.084,1.084,0,0,1-.871,1.063L167.538,306.4ZM195.6,144.03,168.665,304.079l107.5-19.982c-.978-84.818-6.25-151.121-12.032-151.121C251.7,132.976,202.167,142.712,195.6,144.03Z" transform="translate(121.91 106.643)" fill="#231f20"/>
      <path id="Path_74" data-name="Path 74" d="M236.2,131.351c-1.637,1.063,3.146,24.68,3.423,26.806a565.078,565.078,0,0,1,3.486,64.517,190.618,190.618,0,0,1-13.924,70.15c-4.06,10.31-8.779,20.386-13.732,30.292s-14.689,11.607-25.063,10.863a148.8,148.8,0,0,1-32.716-6.1,19.578,19.578,0,0,1-10.012-5.569c-4.252-5.421.383-12.755,2.806-17.941,3.444-7.376,6.739-14.88,9.821-22.363,4.911-12.1,18.154-41.091,21.534-53.7,4.4-16.39-2.126-16.432-1.36-33.375.319-6.845.4-13.69.68-20.535.149-4.1-1.084-17.006,1.594-20.11C203.211,130.713,236.2,131.351,236.2,131.351Z" transform="translate(98.992 107.205)" fill="#d0d0d0"/>
      <path id="Path_75" data-name="Path 75" d="M254.086,130.041c.68.128-2.657,55.1-2.423,57.842,1.764,20.854,32.312,102.866,32.312,102.866,0,7.546-76.166,52.719-81.034,39.178,22.576-119.043,7.015-196.059,6.484-196.1C209.445,133.825,236.548,126.7,254.086,130.041Z" transform="translate(163.164 104.731)" fill="#d0d0d0"/>
      <path id="Path_76" data-name="Path 76" d="M244.352,145,236,153.12l6.76,4.677s-7.121,52.974-32.163,60.5-34.778,4.932-34.778,4.932L162,241.191s21.47,6.143,23,6.654,47.022-10.1,54.186-38.264a292.786,292.786,0,0,0,8.375-50.678l4.528-5.7Z" transform="translate(117.075 122.573)" fill="#231f20"/>
      <path id="Path_77" data-name="Path 77" d="M199.879,207.443a1.084,1.084,0,0,1-.85-.425L177.814,178.3a1.042,1.042,0,0,1,0-1.36l13.2-13.647-16.56-4.252a1.02,1.02,0,0,1-.744-.723,1.063,1.063,0,0,1,.255-1.02l19.366-20.769a1.068,1.068,0,1,1,1.552,1.467l-18.154,19.451,16.6,4.252a1.084,1.084,0,0,1,.744.744,1.042,1.042,0,0,1-.255,1.02l-13.86,14.306L200.6,205.848a1.063,1.063,0,0,1-.234,1.467A1,1,0,0,1,199.879,207.443Z" transform="translate(130.214 112.658)" fill="#231f20"/>
      <path id="Path_78" data-name="Path 78" d="M214.266,208.484a1.51,1.51,0,0,1-.425,0,1.084,1.084,0,0,1-.553-1.4L228.87,170.73l-15.986-8.014a1.169,1.169,0,0,1-.531-.659,1.084,1.084,0,0,1,.106-.85L224.406,141.8l-15.688-7.249a1.105,1.105,0,0,1-.531-1.424,1.063,1.063,0,0,1,1.424-.51l16.772,7.759a1.042,1.042,0,0,1,.574.659,1.127,1.127,0,0,1-.106.872l-12.032,19.281,15.837,7.95a1.063,1.063,0,0,1,.51,1.36L215.18,207.761A1.084,1.084,0,0,1,214.266,208.484Z" transform="translate(168.971 108.513)" fill="#231f20"/>
      <path id="Path_79" data-name="Path 79" d="M316.365,36.58l25.36,51.38,56.694,8.248-41.027,39.986,9.693,56.482-50.721-26.657-50.721,26.657,9.693-56.482L234.31,96.208,291,87.96Z" transform="translate(198.479 0.517)" fill="#fff"/>
      <path id="Path_80" data-name="Path 80" d="M367.608,194.255a.979.979,0,0,1-.489-.128l-50.232-26.466-50.232,26.4a1,1,0,0,1-1.105,0,1.042,1.042,0,0,1-.425-1.042l9.587-55.908-40.538-39.6a1.042,1.042,0,0,1-.276-1.084,1.084,1.084,0,0,1,.85-.723l56.163-8.163,25.105-50.87a1.105,1.105,0,0,1,1.913,0l25.105,50.87L399.2,95.7a1.084,1.084,0,0,1,.85.723,1.042,1.042,0,0,1-.276,1.084l-40.708,39.582L368.65,193a1.042,1.042,0,0,1-.425,1.042A.957.957,0,0,1,367.608,194.255Zm-50.721-28.719a.978.978,0,0,1,.489,0l48.893,25.679-9.332-54.356a1.127,1.127,0,0,1,.3-.957l39.433-38.391L342.1,89.582a1.105,1.105,0,0,1-.808-.6L316.887,39.5l-24.4,49.509a1.105,1.105,0,0,1-.808.6l-54.568,7.908,39.582,38.434a1.127,1.127,0,0,1,.3.957l-9.332,54.356,48.893-25.679a.978.978,0,0,1,.34-.042Z" transform="translate(197.956 0)" fill="#231f20"/>
      <path id="Path_81" data-name="Path 81" d="M229.792,151.6S269.65,164.994,279.875,162s30.909-52,30.909-52l41.9,5.208S335.209,218.86,301.962,224.43s-77.442-9.247-77.442-9.247Z" transform="translate(187.458 83.171)" fill="#d0d0d0"/>
      <path id="Path_82" data-name="Path 82" d="M183.956,144.942c-1.7-7.7-4-15.305-4.677-23.15s.383-16.156,4.825-22.639c4.783-6.973,10.884-6.165,18.239-7.121,9.757-1.275,18.473-6.165,27.529-9.693,1.722-.68,4.4-.829,4.719,1A3.062,3.062,0,0,1,234.273,85a28.952,28.952,0,0,1-4.825,7.95A71.3,71.3,0,0,0,249.6,85a23.532,23.532,0,0,1-5.208,19.727l11.968-5.995a20.173,20.173,0,0,1-15.093,23.107" transform="translate(136.316 51.502)" fill="#fff"/>
      <path id="Path_83" data-name="Path 83" d="M184.535,146.584a1.063,1.063,0,0,1-1.063-.85c-.446-2-.935-4-1.424-6.016a116.166,116.166,0,0,1-3.274-17.261c-.574-6.5-.17-15.816,5.017-23.383,4.252-6.165,9.609-6.675,15.327-7.185l3.678-.383a75.316,75.316,0,0,0,19.918-6.569c2.4-1.042,4.868-2.126,7.334-3.061a6.1,6.1,0,0,1,4.847,0,2.615,2.615,0,0,1,1.361,1.892,3.912,3.912,0,0,1-.383,2.253,30.139,30.139,0,0,1-3.061,5.718,70.322,70.322,0,0,0,16.815-7.121,1.042,1.042,0,0,1,1,0,1.106,1.106,0,0,1,.617.787,24.6,24.6,0,0,1-2.849,17.006l8.035-4.018a1.127,1.127,0,0,1,.978,0,1.084,1.084,0,0,1,.6.765,21.258,21.258,0,0,1-15.943,24.4,1.084,1.084,0,0,1-1.3-.85,1.127,1.127,0,0,1,.872-1.3,18.3,18.3,0,0,0,11.415-8.078A18.643,18.643,0,0,0,256,100.923l-10.629,5.336a1.105,1.105,0,0,1-1.318-1.7A22.512,22.512,0,0,0,249.265,87.3a72.128,72.128,0,0,1-19.132,7.27,1.105,1.105,0,0,1-1.084-1.786,27.636,27.636,0,0,0,4.677-7.631,2.425,2.425,0,0,0,.234-1.063.447.447,0,0,0-.255-.361,4.251,4.251,0,0,0-2.976.191c-2.423.935-4.889,2.126-7.249,3.04a77.823,77.823,0,0,1-20.535,6.717c-1.3.17-2.551.276-3.763.4-5.612.51-10.055.914-13.711,6.25-4.8,7.015-5.187,15.794-4.655,21.938a117.345,117.345,0,0,0,3.231,17.006c.489,2.126.978,4.039,1.445,6.058a1.105,1.105,0,0,1-.85,1.3Z" transform="translate(135.737 50.945)" fill="#231f20"/>
      <path id="Path_84" data-name="Path 84" d="M230.294,161.021l2.53,16.5s-2.593,24-20.726,19.791-25.36-20.556-25.36-20.556l-2.317-43.578s13.371-7.291,9.141-36.393a89.622,89.622,0,0,0,47.086,6.1s6.377,29.973,4.422,44a15.5,15.5,0,0,1-14.774,14.136Z" transform="translate(142.315 68.288)" fill="#fff"/>
      <path id="Path_85" data-name="Path 85" d="M216.724,199.467a19.725,19.725,0,0,1-4.252-.51,39.9,39.9,0,0,1-26.1-21.258.83.83,0,0,1,0-.383l-2.487-43.429a1.063,1.063,0,0,1,.574-1.02c.128,0,12.606-7.4,8.5-35.266a1.148,1.148,0,0,1,.446-1.042,1.042,1.042,0,0,1,1.127-.106A89.452,89.452,0,0,0,241,102.447a1.105,1.105,0,0,1,1.212.872c.255,1.212,6.484,30.313,4.422,44.386a16.56,16.56,0,0,1-14.6,14.88l2.36,15.327a1.4,1.4,0,0,1,0,.3c0,.51-1.509,13.052-9.4,18.643a14.072,14.072,0,0,1-8.269,2.615ZM188.388,177.04c.829,1.743,8.142,15.965,24.51,19.77a13.01,13.01,0,0,0,10.926-1.743c6.675-4.719,8.29-15.624,8.5-17.006l-2.508-16.347a1.063,1.063,0,0,1,.255-.872.978.978,0,0,1,.808-.383,14.349,14.349,0,0,0,13.711-13.2c1.786-12.266-3.1-37.35-4.252-42.515a93.726,93.726,0,0,1-44.875-5.548c3.04,24.808-6.76,33.375-9.353,35.181Z" transform="translate(141.705 67.787)" fill="#231f20"/>
      <path id="Path_86" data-name="Path 86" d="M203.222,107.94s8.5,15.794,6.016,18.175-9.1,0-9.1,0" transform="translate(160.012 80.852)" fill="#fff"/>
      <path id="Path_87" data-name="Path 87" d="M206.205,128.783a18.919,18.919,0,0,1-5.782-1.042,1.063,1.063,0,1,1,.7-2c1.531.553,6.377,1.743,8.014.17,1.042-.957-1.934-8.992-6.228-16.879a1.065,1.065,0,1,1,1.871-1.02c2.721,4.974,8.694,16.815,5.782,19.472a6.377,6.377,0,0,1-4.358,1.3Z" transform="translate(159.431 80.31)" fill="#231f20"/>
      <ellipse id="Ellipse_298" data-name="Ellipse 298" cx="1.786" cy="4.081" rx="1.786" ry="4.081" transform="matrix(0.999, -0.042, 0.042, 0.999, 345.808, 181.973)" fill="#231f20"/>
      <ellipse id="Ellipse_299" data-name="Ellipse 299" cx="1.786" cy="4.081" rx="1.786" ry="4.081" transform="matrix(0.999, -0.042, 0.042, 0.999, 374.268, 181.967)" fill="#231f20"/>
      <path id="Path_88" data-name="Path 88" d="M201.577,115.275a25.212,25.212,0,0,0-6.25-7.079,8.5,8.5,0,0,0-4.634-2.126,7.568,7.568,0,0,0-4,1.19,14.668,14.668,0,0,0-6.973,9.779,11.67,11.67,0,0,0,.213,5.676,12.946,12.946,0,0,0,5.655,6.8,39.029,39.029,0,0,0,8.248,3.571" transform="translate(136.743 78.747)" fill="#fff"/>
      <path id="Path_89" data-name="Path 89" d="M194.433,134.832h-.361a39.346,39.346,0,0,1-8.5-3.7,13.924,13.924,0,0,1-6.1-7.376,12.755,12.755,0,0,1-.255-6.228,15.943,15.943,0,0,1,7.525-10.629,8.5,8.5,0,0,1,4.57-1.339,9.651,9.651,0,0,1,5.272,2.275,26.4,26.4,0,0,1,6.5,7.4,1.1,1.1,0,1,1-1.892,1.105,23.533,23.533,0,0,0-5.952-6.76,7.546,7.546,0,0,0-4.018-1.807,6.483,6.483,0,0,0-3.4,1.02,13.69,13.69,0,0,0-6.377,9.056,10.948,10.948,0,0,0,.191,5.144,11.82,11.82,0,0,0,5.187,6.186,37.456,37.456,0,0,0,8.035,3.465,1.084,1.084,0,0,1,.68,1.382A1.063,1.063,0,0,1,194.433,134.832Z" transform="translate(136.149 78.173)" fill="#231f20"/>
      <path id="Path_90" data-name="Path 90" d="M222.121,129.657a49.572,49.572,0,0,1-30.441-5.017S207.2,148.491,224.5,145.132Z" transform="translate(150.488 99.652)" fill="#231f20"/>
      <path id="Path_91" data-name="Path 91" d="M221.61,147.133c-16.241,0-29.761-20.365-30.292-21.258a1.084,1.084,0,0,1,.106-1.3,1.042,1.042,0,0,1,1.275-.234,48.893,48.893,0,0,0,29.761,4.911,1.148,1.148,0,0,1,.829.17,1.084,1.084,0,0,1,.446.723l2.381,15.454a1.042,1.042,0,0,1-.829,1.212A19.447,19.447,0,0,1,221.61,147.133ZM195.485,128c4.783,6.1,16.177,18.537,28.336,17.006L221.7,131.636a50.508,50.508,0,0,1-26.211-3.784Z" transform="translate(149.893 99.182)" fill="#231f20"/>
      <path id="Path_92" data-name="Path 92" d="M202.773,128.635a14.413,14.413,0,1,1,14.413-14.413A14.413,14.413,0,0,1,202.773,128.635Zm0-26.636A12.223,12.223,0,1,0,215,114.223,12.223,12.223,0,0,0,202.773,102Z" transform="translate(146.75 71.699)" fill="#231f20"/>
      <path id="Path_93" data-name="Path 93" d="M216.293,128.635a14.413,14.413,0,1,1,14.413-14.413,14.413,14.413,0,0,1-14.413,14.413Zm0-26.636a12.223,12.223,0,1,0,12.223,12.223A12.223,12.223,0,0,0,216.293,102Z" transform="translate(161.971 71.699)" fill="#231f20"/>
      <path id="Path_94" data-name="Path 94" d="M212.013,128.948h0c-6.717,0-13.2-4.081-19.3-12.011a1.063,1.063,0,1,1,1.679-1.275c5.676,7.355,11.607,11.118,17.623,11.16h0c8.312,0,14.073-7.185,14.136-7.249a1.063,1.063,0,0,1,1.679,1.3C227.531,121.231,221.3,128.948,212.013,128.948Z" transform="translate(151.306 88.946)" fill="#231f20"/>
      <path id="Path_95" data-name="Path 95" d="M230.012,141.318c-7.546,7.249-63.433,63.773-67.621,53.357s-7.164-58.225-7.164-58.225l-38.264,5.676S94.9,249.775,133.268,261.636,230.012,217,230.012,217Z" transform="translate(59.267 112.947)" fill="#d0d0d0"/>
      <path id="Path_96" data-name="Path 96" d="M152.563,265.81a1,1,0,0,1-.531-.149,1.042,1.042,0,0,1-.383-1.445c.234-.425,24.723-44.131,32.673-113.558a1.105,1.105,0,0,1,1.19-.935,1.063,1.063,0,0,1,.935,1.169c-8.014,69.9-32.716,113.941-32.971,114.387A1.063,1.063,0,0,1,152.563,265.81Z" transform="translate(105.254 127.884)" fill="#231f20"/>
      <path id="Path_97" data-name="Path 97" d="M301.132,171.867c-28.592,0-81.778-11.968-82.31-12.1a1.063,1.063,0,0,1-.808-1.275,1.02,1.02,0,0,1,1.275-.786c.531.106,53.484,12.032,81.821,12.032h2.126a1.084,1.084,0,0,1,1.084,1.042,1.063,1.063,0,0,1-1.042,1.084Z" transform="translate(180.104 136.839)" fill="#231f20"/>
      <path id="Path_98" data-name="Path 98" d="M128.948,112.85s6.717,7.164,3.422,19.727-8.843,14.88-18.26,9.29" transform="translate(63.162 86.379)" fill="#fff"/>
      <path id="Path_99" data-name="Path 99" d="M122.963,146.452a17.751,17.751,0,0,1-8.843-3.061,1.092,1.092,0,1,1,1.127-1.871c4.252,2.572,7.525,3.316,9.991,2.317,2.849-1.148,5.017-4.719,6.632-10.948,3.082-11.777-2.912-18.409-3.167-18.686a1.105,1.105,0,0,1,0-1.552,1.063,1.063,0,0,1,1.531,0c.3.319,7.1,7.759,3.7,20.747-1.849,7.036-4.252,10.99-7.929,12.436A8.312,8.312,0,0,1,122.963,146.452Z" transform="translate(62.578 85.791)" fill="#231f20"/>
      <path id="Path_100" data-name="Path 100" d="M274.688,115.5s-12.266-20.641-9.268-22.746,9.97,5.931,13.818,11.373c0,0,11.8,2.126,9.821,15.263" transform="translate(232.97 63.367)" fill="#fff"/>
      <path id="Path_101" data-name="Path 101" d="M289.585,121.081h-.17a1.105,1.105,0,0,1-.914-1.254c1.807-11.947-8.5-13.945-8.928-14.009a1.127,1.127,0,0,1-.7-.446c-5.059-7.164-10.629-12.244-12.287-11.118-.787,1.424,3.593,11.2,9.587,21.258a1.105,1.105,0,0,1-.383,1.488,1.084,1.084,0,0,1-1.509-.383c-5.825-9.821-12.117-21.98-8.949-24.191,4.251-3.019,12.351,7.44,15.093,11.288,2.275.6,12.138,3.911,10.246,16.411a1.106,1.106,0,0,1-1.084.957Z" transform="translate(232.444 62.779)" fill="#231f20"/>
    </g>
  </g>
</svg>
